G04 #@! TF.GenerationSoftware,KiCad,Pcbnew,8.0.6*
G04 #@! TF.CreationDate,2024-11-23T14:24:09+05:30*
G04 #@! TF.ProjectId,p1,70312e6b-6963-4616-945f-706362585858,rev?*
G04 #@! TF.SameCoordinates,Original*
G04 #@! TF.FileFunction,Legend,Top*
G04 #@! TF.FilePolarity,Positive*
%FSLAX46Y46*%
G04 Gerber Fmt 4.6, Leading zero omitted, Abs format (unit mm)*
G04 Created by KiCad (PCBNEW 8.0.6) date 2024-11-23 14:24:09*
%MOMM*%
%LPD*%
G01*
G04 APERTURE LIST*
%ADD10C,0.152400*%
%ADD11C,0.162560*%
%ADD12C,0.100000*%
%ADD13C,0.150000*%
%ADD14C,0.120000*%
%ADD15R,1.524000X1.524000*%
%ADD16C,1.524000*%
%ADD17C,2.000000*%
%ADD18C,1.600000*%
%ADD19O,1.600000X1.600000*%
%ADD20R,1.800000X1.800000*%
%ADD21C,1.800000*%
%ADD22R,1.600000X1.600000*%
G04 APERTURE END LIST*
D10*
X100793596Y-107992701D02*
X100793596Y-107180701D01*
X100793596Y-107180701D02*
X101064263Y-107760701D01*
X101064263Y-107760701D02*
X101334929Y-107180701D01*
X101334929Y-107180701D02*
X101334929Y-107992701D01*
X101682929Y-107760701D02*
X102069596Y-107760701D01*
X101605596Y-107992701D02*
X101876263Y-107180701D01*
X101876263Y-107180701D02*
X102146929Y-107992701D01*
X102572263Y-107606035D02*
X102572263Y-107992701D01*
X102301596Y-107180701D02*
X102572263Y-107606035D01*
X102572263Y-107606035D02*
X102842929Y-107180701D01*
X103693596Y-107142035D02*
X102997596Y-108186035D01*
X104118930Y-107180701D02*
X104196263Y-107180701D01*
X104196263Y-107180701D02*
X104273596Y-107219368D01*
X104273596Y-107219368D02*
X104312263Y-107258035D01*
X104312263Y-107258035D02*
X104350930Y-107335368D01*
X104350930Y-107335368D02*
X104389596Y-107490035D01*
X104389596Y-107490035D02*
X104389596Y-107683368D01*
X104389596Y-107683368D02*
X104350930Y-107838035D01*
X104350930Y-107838035D02*
X104312263Y-107915368D01*
X104312263Y-107915368D02*
X104273596Y-107954035D01*
X104273596Y-107954035D02*
X104196263Y-107992701D01*
X104196263Y-107992701D02*
X104118930Y-107992701D01*
X104118930Y-107992701D02*
X104041596Y-107954035D01*
X104041596Y-107954035D02*
X104002930Y-107915368D01*
X104002930Y-107915368D02*
X103964263Y-107838035D01*
X103964263Y-107838035D02*
X103925596Y-107683368D01*
X103925596Y-107683368D02*
X103925596Y-107490035D01*
X103925596Y-107490035D02*
X103964263Y-107335368D01*
X103964263Y-107335368D02*
X104002930Y-107258035D01*
X104002930Y-107258035D02*
X104041596Y-107219368D01*
X104041596Y-107219368D02*
X104118930Y-107180701D01*
X105124263Y-107180701D02*
X104737596Y-107180701D01*
X104737596Y-107180701D02*
X104698929Y-107567368D01*
X104698929Y-107567368D02*
X104737596Y-107528701D01*
X104737596Y-107528701D02*
X104814929Y-107490035D01*
X104814929Y-107490035D02*
X105008263Y-107490035D01*
X105008263Y-107490035D02*
X105085596Y-107528701D01*
X105085596Y-107528701D02*
X105124263Y-107567368D01*
X105124263Y-107567368D02*
X105162929Y-107644701D01*
X105162929Y-107644701D02*
X105162929Y-107838035D01*
X105162929Y-107838035D02*
X105124263Y-107915368D01*
X105124263Y-107915368D02*
X105085596Y-107954035D01*
X105085596Y-107954035D02*
X105008263Y-107992701D01*
X105008263Y-107992701D02*
X104814929Y-107992701D01*
X104814929Y-107992701D02*
X104737596Y-107954035D01*
X104737596Y-107954035D02*
X104698929Y-107915368D01*
X106090929Y-107142035D02*
X105394929Y-108186035D01*
X106322929Y-107258035D02*
X106361596Y-107219368D01*
X106361596Y-107219368D02*
X106438929Y-107180701D01*
X106438929Y-107180701D02*
X106632263Y-107180701D01*
X106632263Y-107180701D02*
X106709596Y-107219368D01*
X106709596Y-107219368D02*
X106748263Y-107258035D01*
X106748263Y-107258035D02*
X106786929Y-107335368D01*
X106786929Y-107335368D02*
X106786929Y-107412701D01*
X106786929Y-107412701D02*
X106748263Y-107528701D01*
X106748263Y-107528701D02*
X106284263Y-107992701D01*
X106284263Y-107992701D02*
X106786929Y-107992701D01*
X107289596Y-107180701D02*
X107366929Y-107180701D01*
X107366929Y-107180701D02*
X107444262Y-107219368D01*
X107444262Y-107219368D02*
X107482929Y-107258035D01*
X107482929Y-107258035D02*
X107521596Y-107335368D01*
X107521596Y-107335368D02*
X107560262Y-107490035D01*
X107560262Y-107490035D02*
X107560262Y-107683368D01*
X107560262Y-107683368D02*
X107521596Y-107838035D01*
X107521596Y-107838035D02*
X107482929Y-107915368D01*
X107482929Y-107915368D02*
X107444262Y-107954035D01*
X107444262Y-107954035D02*
X107366929Y-107992701D01*
X107366929Y-107992701D02*
X107289596Y-107992701D01*
X107289596Y-107992701D02*
X107212262Y-107954035D01*
X107212262Y-107954035D02*
X107173596Y-107915368D01*
X107173596Y-107915368D02*
X107134929Y-107838035D01*
X107134929Y-107838035D02*
X107096262Y-107683368D01*
X107096262Y-107683368D02*
X107096262Y-107490035D01*
X107096262Y-107490035D02*
X107134929Y-107335368D01*
X107134929Y-107335368D02*
X107173596Y-107258035D01*
X107173596Y-107258035D02*
X107212262Y-107219368D01*
X107212262Y-107219368D02*
X107289596Y-107180701D01*
X108062929Y-107180701D02*
X108140262Y-107180701D01*
X108140262Y-107180701D02*
X108217595Y-107219368D01*
X108217595Y-107219368D02*
X108256262Y-107258035D01*
X108256262Y-107258035D02*
X108294929Y-107335368D01*
X108294929Y-107335368D02*
X108333595Y-107490035D01*
X108333595Y-107490035D02*
X108333595Y-107683368D01*
X108333595Y-107683368D02*
X108294929Y-107838035D01*
X108294929Y-107838035D02*
X108256262Y-107915368D01*
X108256262Y-107915368D02*
X108217595Y-107954035D01*
X108217595Y-107954035D02*
X108140262Y-107992701D01*
X108140262Y-107992701D02*
X108062929Y-107992701D01*
X108062929Y-107992701D02*
X107985595Y-107954035D01*
X107985595Y-107954035D02*
X107946929Y-107915368D01*
X107946929Y-107915368D02*
X107908262Y-107838035D01*
X107908262Y-107838035D02*
X107869595Y-107683368D01*
X107869595Y-107683368D02*
X107869595Y-107490035D01*
X107869595Y-107490035D02*
X107908262Y-107335368D01*
X107908262Y-107335368D02*
X107946929Y-107258035D01*
X107946929Y-107258035D02*
X107985595Y-107219368D01*
X107985595Y-107219368D02*
X108062929Y-107180701D01*
X109106928Y-107992701D02*
X108642928Y-107992701D01*
X108874928Y-107992701D02*
X108874928Y-107180701D01*
X108874928Y-107180701D02*
X108797595Y-107296701D01*
X108797595Y-107296701D02*
X108720262Y-107374035D01*
X108720262Y-107374035D02*
X108642928Y-107412701D01*
X110073595Y-107683368D02*
X110692262Y-107683368D01*
X111542928Y-107915368D02*
X111504261Y-107954035D01*
X111504261Y-107954035D02*
X111388261Y-107992701D01*
X111388261Y-107992701D02*
X111310928Y-107992701D01*
X111310928Y-107992701D02*
X111194928Y-107954035D01*
X111194928Y-107954035D02*
X111117595Y-107876701D01*
X111117595Y-107876701D02*
X111078928Y-107799368D01*
X111078928Y-107799368D02*
X111040261Y-107644701D01*
X111040261Y-107644701D02*
X111040261Y-107528701D01*
X111040261Y-107528701D02*
X111078928Y-107374035D01*
X111078928Y-107374035D02*
X111117595Y-107296701D01*
X111117595Y-107296701D02*
X111194928Y-107219368D01*
X111194928Y-107219368D02*
X111310928Y-107180701D01*
X111310928Y-107180701D02*
X111388261Y-107180701D01*
X111388261Y-107180701D02*
X111504261Y-107219368D01*
X111504261Y-107219368D02*
X111542928Y-107258035D01*
X112316261Y-107992701D02*
X111852261Y-107992701D01*
X112084261Y-107992701D02*
X112084261Y-107180701D01*
X112084261Y-107180701D02*
X112006928Y-107296701D01*
X112006928Y-107296701D02*
X111929595Y-107374035D01*
X111929595Y-107374035D02*
X111852261Y-107412701D01*
X112664261Y-107915368D02*
X112702928Y-107954035D01*
X112702928Y-107954035D02*
X112664261Y-107992701D01*
X112664261Y-107992701D02*
X112625594Y-107954035D01*
X112625594Y-107954035D02*
X112664261Y-107915368D01*
X112664261Y-107915368D02*
X112664261Y-107992701D01*
X113205595Y-107180701D02*
X113282928Y-107180701D01*
X113282928Y-107180701D02*
X113360261Y-107219368D01*
X113360261Y-107219368D02*
X113398928Y-107258035D01*
X113398928Y-107258035D02*
X113437595Y-107335368D01*
X113437595Y-107335368D02*
X113476261Y-107490035D01*
X113476261Y-107490035D02*
X113476261Y-107683368D01*
X113476261Y-107683368D02*
X113437595Y-107838035D01*
X113437595Y-107838035D02*
X113398928Y-107915368D01*
X113398928Y-107915368D02*
X113360261Y-107954035D01*
X113360261Y-107954035D02*
X113282928Y-107992701D01*
X113282928Y-107992701D02*
X113205595Y-107992701D01*
X113205595Y-107992701D02*
X113128261Y-107954035D01*
X113128261Y-107954035D02*
X113089595Y-107915368D01*
X113089595Y-107915368D02*
X113050928Y-107838035D01*
X113050928Y-107838035D02*
X113012261Y-107683368D01*
X113012261Y-107683368D02*
X113012261Y-107490035D01*
X113012261Y-107490035D02*
X113050928Y-107335368D01*
X113050928Y-107335368D02*
X113089595Y-107258035D01*
X113089595Y-107258035D02*
X113128261Y-107219368D01*
X113128261Y-107219368D02*
X113205595Y-107180701D01*
D11*
X109786729Y-104509417D02*
X109709319Y-104470712D01*
X109709319Y-104470712D02*
X109593205Y-104470712D01*
X109593205Y-104470712D02*
X109477091Y-104509417D01*
X109477091Y-104509417D02*
X109399681Y-104586827D01*
X109399681Y-104586827D02*
X109360976Y-104664236D01*
X109360976Y-104664236D02*
X109322272Y-104819055D01*
X109322272Y-104819055D02*
X109322272Y-104935169D01*
X109322272Y-104935169D02*
X109360976Y-105089988D01*
X109360976Y-105089988D02*
X109399681Y-105167398D01*
X109399681Y-105167398D02*
X109477091Y-105244808D01*
X109477091Y-105244808D02*
X109593205Y-105283512D01*
X109593205Y-105283512D02*
X109670614Y-105283512D01*
X109670614Y-105283512D02*
X109786729Y-105244808D01*
X109786729Y-105244808D02*
X109825433Y-105206103D01*
X109825433Y-105206103D02*
X109825433Y-104935169D01*
X109825433Y-104935169D02*
X109670614Y-104935169D01*
X110638233Y-105206103D02*
X110599529Y-105244808D01*
X110599529Y-105244808D02*
X110483414Y-105283512D01*
X110483414Y-105283512D02*
X110406005Y-105283512D01*
X110406005Y-105283512D02*
X110289891Y-105244808D01*
X110289891Y-105244808D02*
X110212481Y-105167398D01*
X110212481Y-105167398D02*
X110173776Y-105089988D01*
X110173776Y-105089988D02*
X110135072Y-104935169D01*
X110135072Y-104935169D02*
X110135072Y-104819055D01*
X110135072Y-104819055D02*
X110173776Y-104664236D01*
X110173776Y-104664236D02*
X110212481Y-104586827D01*
X110212481Y-104586827D02*
X110289891Y-104509417D01*
X110289891Y-104509417D02*
X110406005Y-104470712D01*
X110406005Y-104470712D02*
X110483414Y-104470712D01*
X110483414Y-104470712D02*
X110599529Y-104509417D01*
X110599529Y-104509417D02*
X110638233Y-104548122D01*
X108315949Y-106592074D02*
X107851492Y-106592074D01*
X108083720Y-106592074D02*
X108083720Y-105779274D01*
X108083720Y-105779274D02*
X108006311Y-105895389D01*
X108006311Y-105895389D02*
X107928901Y-105972798D01*
X107928901Y-105972798D02*
X107851492Y-106011503D01*
X109012634Y-105779274D02*
X108857815Y-105779274D01*
X108857815Y-105779274D02*
X108780406Y-105817979D01*
X108780406Y-105817979D02*
X108741701Y-105856684D01*
X108741701Y-105856684D02*
X108664291Y-105972798D01*
X108664291Y-105972798D02*
X108625587Y-106127617D01*
X108625587Y-106127617D02*
X108625587Y-106437255D01*
X108625587Y-106437255D02*
X108664291Y-106514665D01*
X108664291Y-106514665D02*
X108702996Y-106553370D01*
X108702996Y-106553370D02*
X108780406Y-106592074D01*
X108780406Y-106592074D02*
X108935225Y-106592074D01*
X108935225Y-106592074D02*
X109012634Y-106553370D01*
X109012634Y-106553370D02*
X109051339Y-106514665D01*
X109051339Y-106514665D02*
X109090044Y-106437255D01*
X109090044Y-106437255D02*
X109090044Y-106243731D01*
X109090044Y-106243731D02*
X109051339Y-106166322D01*
X109051339Y-106166322D02*
X109012634Y-106127617D01*
X109012634Y-106127617D02*
X108935225Y-106088912D01*
X108935225Y-106088912D02*
X108780406Y-106088912D01*
X108780406Y-106088912D02*
X108702996Y-106127617D01*
X108702996Y-106127617D02*
X108664291Y-106166322D01*
X108664291Y-106166322D02*
X108625587Y-106243731D01*
X109399682Y-105856684D02*
X109438386Y-105817979D01*
X109438386Y-105817979D02*
X109515796Y-105779274D01*
X109515796Y-105779274D02*
X109709320Y-105779274D01*
X109709320Y-105779274D02*
X109786729Y-105817979D01*
X109786729Y-105817979D02*
X109825434Y-105856684D01*
X109825434Y-105856684D02*
X109864139Y-105934093D01*
X109864139Y-105934093D02*
X109864139Y-106011503D01*
X109864139Y-106011503D02*
X109825434Y-106127617D01*
X109825434Y-106127617D02*
X109360977Y-106592074D01*
X109360977Y-106592074D02*
X109864139Y-106592074D01*
X110251186Y-106592074D02*
X110406005Y-106592074D01*
X110406005Y-106592074D02*
X110483415Y-106553370D01*
X110483415Y-106553370D02*
X110522119Y-106514665D01*
X110522119Y-106514665D02*
X110599529Y-106398550D01*
X110599529Y-106398550D02*
X110638234Y-106243731D01*
X110638234Y-106243731D02*
X110638234Y-105934093D01*
X110638234Y-105934093D02*
X110599529Y-105856684D01*
X110599529Y-105856684D02*
X110560824Y-105817979D01*
X110560824Y-105817979D02*
X110483415Y-105779274D01*
X110483415Y-105779274D02*
X110328596Y-105779274D01*
X110328596Y-105779274D02*
X110251186Y-105817979D01*
X110251186Y-105817979D02*
X110212481Y-105856684D01*
X110212481Y-105856684D02*
X110173777Y-105934093D01*
X110173777Y-105934093D02*
X110173777Y-106127617D01*
X110173777Y-106127617D02*
X110212481Y-106205027D01*
X110212481Y-106205027D02*
X110251186Y-106243731D01*
X110251186Y-106243731D02*
X110328596Y-106282436D01*
X110328596Y-106282436D02*
X110483415Y-106282436D01*
X110483415Y-106282436D02*
X110560824Y-106243731D01*
X110560824Y-106243731D02*
X110599529Y-106205027D01*
X110599529Y-106205027D02*
X110638234Y-106127617D01*
D10*
X137292603Y-83480460D02*
X137292603Y-83944917D01*
X137292603Y-83712689D02*
X136479803Y-83712689D01*
X136479803Y-83712689D02*
X136595918Y-83790098D01*
X136595918Y-83790098D02*
X136673327Y-83867508D01*
X136673327Y-83867508D02*
X136712032Y-83944917D01*
X136479803Y-82977299D02*
X136479803Y-82899889D01*
X136479803Y-82899889D02*
X136518508Y-82822480D01*
X136518508Y-82822480D02*
X136557213Y-82783775D01*
X136557213Y-82783775D02*
X136634622Y-82745070D01*
X136634622Y-82745070D02*
X136789441Y-82706365D01*
X136789441Y-82706365D02*
X136982965Y-82706365D01*
X136982965Y-82706365D02*
X137137784Y-82745070D01*
X137137784Y-82745070D02*
X137215194Y-82783775D01*
X137215194Y-82783775D02*
X137253899Y-82822480D01*
X137253899Y-82822480D02*
X137292603Y-82899889D01*
X137292603Y-82899889D02*
X137292603Y-82977299D01*
X137292603Y-82977299D02*
X137253899Y-83054708D01*
X137253899Y-83054708D02*
X137215194Y-83093413D01*
X137215194Y-83093413D02*
X137137784Y-83132118D01*
X137137784Y-83132118D02*
X136982965Y-83170822D01*
X136982965Y-83170822D02*
X136789441Y-83170822D01*
X136789441Y-83170822D02*
X136634622Y-83132118D01*
X136634622Y-83132118D02*
X136557213Y-83093413D01*
X136557213Y-83093413D02*
X136518508Y-83054708D01*
X136518508Y-83054708D02*
X136479803Y-82977299D01*
X136479803Y-82203204D02*
X136479803Y-82125794D01*
X136479803Y-82125794D02*
X136518508Y-82048385D01*
X136518508Y-82048385D02*
X136557213Y-82009680D01*
X136557213Y-82009680D02*
X136634622Y-81970975D01*
X136634622Y-81970975D02*
X136789441Y-81932270D01*
X136789441Y-81932270D02*
X136982965Y-81932270D01*
X136982965Y-81932270D02*
X137137784Y-81970975D01*
X137137784Y-81970975D02*
X137215194Y-82009680D01*
X137215194Y-82009680D02*
X137253899Y-82048385D01*
X137253899Y-82048385D02*
X137292603Y-82125794D01*
X137292603Y-82125794D02*
X137292603Y-82203204D01*
X137292603Y-82203204D02*
X137253899Y-82280613D01*
X137253899Y-82280613D02*
X137215194Y-82319318D01*
X137215194Y-82319318D02*
X137137784Y-82358023D01*
X137137784Y-82358023D02*
X136982965Y-82396727D01*
X136982965Y-82396727D02*
X136789441Y-82396727D01*
X136789441Y-82396727D02*
X136634622Y-82358023D01*
X136634622Y-82358023D02*
X136557213Y-82319318D01*
X136557213Y-82319318D02*
X136518508Y-82280613D01*
X136518508Y-82280613D02*
X136479803Y-82203204D01*
X136750737Y-81583928D02*
X137292603Y-81583928D01*
X136828146Y-81583928D02*
X136789441Y-81545223D01*
X136789441Y-81545223D02*
X136750737Y-81467813D01*
X136750737Y-81467813D02*
X136750737Y-81351699D01*
X136750737Y-81351699D02*
X136789441Y-81274290D01*
X136789441Y-81274290D02*
X136866851Y-81235585D01*
X136866851Y-81235585D02*
X137292603Y-81235585D01*
X137292603Y-95380460D02*
X137292603Y-95844917D01*
X137292603Y-95612689D02*
X136479803Y-95612689D01*
X136479803Y-95612689D02*
X136595918Y-95690098D01*
X136595918Y-95690098D02*
X136673327Y-95767508D01*
X136673327Y-95767508D02*
X136712032Y-95844917D01*
X136479803Y-94877299D02*
X136479803Y-94799889D01*
X136479803Y-94799889D02*
X136518508Y-94722480D01*
X136518508Y-94722480D02*
X136557213Y-94683775D01*
X136557213Y-94683775D02*
X136634622Y-94645070D01*
X136634622Y-94645070D02*
X136789441Y-94606365D01*
X136789441Y-94606365D02*
X136982965Y-94606365D01*
X136982965Y-94606365D02*
X137137784Y-94645070D01*
X137137784Y-94645070D02*
X137215194Y-94683775D01*
X137215194Y-94683775D02*
X137253899Y-94722480D01*
X137253899Y-94722480D02*
X137292603Y-94799889D01*
X137292603Y-94799889D02*
X137292603Y-94877299D01*
X137292603Y-94877299D02*
X137253899Y-94954708D01*
X137253899Y-94954708D02*
X137215194Y-94993413D01*
X137215194Y-94993413D02*
X137137784Y-95032118D01*
X137137784Y-95032118D02*
X136982965Y-95070822D01*
X136982965Y-95070822D02*
X136789441Y-95070822D01*
X136789441Y-95070822D02*
X136634622Y-95032118D01*
X136634622Y-95032118D02*
X136557213Y-94993413D01*
X136557213Y-94993413D02*
X136518508Y-94954708D01*
X136518508Y-94954708D02*
X136479803Y-94877299D01*
X136479803Y-94103204D02*
X136479803Y-94025794D01*
X136479803Y-94025794D02*
X136518508Y-93948385D01*
X136518508Y-93948385D02*
X136557213Y-93909680D01*
X136557213Y-93909680D02*
X136634622Y-93870975D01*
X136634622Y-93870975D02*
X136789441Y-93832270D01*
X136789441Y-93832270D02*
X136982965Y-93832270D01*
X136982965Y-93832270D02*
X137137784Y-93870975D01*
X137137784Y-93870975D02*
X137215194Y-93909680D01*
X137215194Y-93909680D02*
X137253899Y-93948385D01*
X137253899Y-93948385D02*
X137292603Y-94025794D01*
X137292603Y-94025794D02*
X137292603Y-94103204D01*
X137292603Y-94103204D02*
X137253899Y-94180613D01*
X137253899Y-94180613D02*
X137215194Y-94219318D01*
X137215194Y-94219318D02*
X137137784Y-94258023D01*
X137137784Y-94258023D02*
X136982965Y-94296727D01*
X136982965Y-94296727D02*
X136789441Y-94296727D01*
X136789441Y-94296727D02*
X136634622Y-94258023D01*
X136634622Y-94258023D02*
X136557213Y-94219318D01*
X136557213Y-94219318D02*
X136518508Y-94180613D01*
X136518508Y-94180613D02*
X136479803Y-94103204D01*
X136750737Y-93483928D02*
X137292603Y-93483928D01*
X136828146Y-93483928D02*
X136789441Y-93445223D01*
X136789441Y-93445223D02*
X136750737Y-93367813D01*
X136750737Y-93367813D02*
X136750737Y-93251699D01*
X136750737Y-93251699D02*
X136789441Y-93174290D01*
X136789441Y-93174290D02*
X136866851Y-93135585D01*
X136866851Y-93135585D02*
X137292603Y-93135585D01*
X137192603Y-106280460D02*
X137192603Y-106744917D01*
X137192603Y-106512689D02*
X136379803Y-106512689D01*
X136379803Y-106512689D02*
X136495918Y-106590098D01*
X136495918Y-106590098D02*
X136573327Y-106667508D01*
X136573327Y-106667508D02*
X136612032Y-106744917D01*
X136379803Y-105777299D02*
X136379803Y-105699889D01*
X136379803Y-105699889D02*
X136418508Y-105622480D01*
X136418508Y-105622480D02*
X136457213Y-105583775D01*
X136457213Y-105583775D02*
X136534622Y-105545070D01*
X136534622Y-105545070D02*
X136689441Y-105506365D01*
X136689441Y-105506365D02*
X136882965Y-105506365D01*
X136882965Y-105506365D02*
X137037784Y-105545070D01*
X137037784Y-105545070D02*
X137115194Y-105583775D01*
X137115194Y-105583775D02*
X137153899Y-105622480D01*
X137153899Y-105622480D02*
X137192603Y-105699889D01*
X137192603Y-105699889D02*
X137192603Y-105777299D01*
X137192603Y-105777299D02*
X137153899Y-105854708D01*
X137153899Y-105854708D02*
X137115194Y-105893413D01*
X137115194Y-105893413D02*
X137037784Y-105932118D01*
X137037784Y-105932118D02*
X136882965Y-105970822D01*
X136882965Y-105970822D02*
X136689441Y-105970822D01*
X136689441Y-105970822D02*
X136534622Y-105932118D01*
X136534622Y-105932118D02*
X136457213Y-105893413D01*
X136457213Y-105893413D02*
X136418508Y-105854708D01*
X136418508Y-105854708D02*
X136379803Y-105777299D01*
X136379803Y-105003204D02*
X136379803Y-104925794D01*
X136379803Y-104925794D02*
X136418508Y-104848385D01*
X136418508Y-104848385D02*
X136457213Y-104809680D01*
X136457213Y-104809680D02*
X136534622Y-104770975D01*
X136534622Y-104770975D02*
X136689441Y-104732270D01*
X136689441Y-104732270D02*
X136882965Y-104732270D01*
X136882965Y-104732270D02*
X137037784Y-104770975D01*
X137037784Y-104770975D02*
X137115194Y-104809680D01*
X137115194Y-104809680D02*
X137153899Y-104848385D01*
X137153899Y-104848385D02*
X137192603Y-104925794D01*
X137192603Y-104925794D02*
X137192603Y-105003204D01*
X137192603Y-105003204D02*
X137153899Y-105080613D01*
X137153899Y-105080613D02*
X137115194Y-105119318D01*
X137115194Y-105119318D02*
X137037784Y-105158023D01*
X137037784Y-105158023D02*
X136882965Y-105196727D01*
X136882965Y-105196727D02*
X136689441Y-105196727D01*
X136689441Y-105196727D02*
X136534622Y-105158023D01*
X136534622Y-105158023D02*
X136457213Y-105119318D01*
X136457213Y-105119318D02*
X136418508Y-105080613D01*
X136418508Y-105080613D02*
X136379803Y-105003204D01*
X136650737Y-104383928D02*
X137192603Y-104383928D01*
X136728146Y-104383928D02*
X136689441Y-104345223D01*
X136689441Y-104345223D02*
X136650737Y-104267813D01*
X136650737Y-104267813D02*
X136650737Y-104151699D01*
X136650737Y-104151699D02*
X136689441Y-104074290D01*
X136689441Y-104074290D02*
X136766851Y-104035585D01*
X136766851Y-104035585D02*
X137192603Y-104035585D01*
X144392603Y-107080460D02*
X144392603Y-107544917D01*
X144392603Y-107312689D02*
X143579803Y-107312689D01*
X143579803Y-107312689D02*
X143695918Y-107390098D01*
X143695918Y-107390098D02*
X143773327Y-107467508D01*
X143773327Y-107467508D02*
X143812032Y-107544917D01*
X144392603Y-106732118D02*
X143579803Y-106732118D01*
X144392603Y-106267661D02*
X143928146Y-106616003D01*
X143579803Y-106267661D02*
X144044260Y-106732118D01*
X144392603Y-95380460D02*
X144392603Y-95844917D01*
X144392603Y-95612689D02*
X143579803Y-95612689D01*
X143579803Y-95612689D02*
X143695918Y-95690098D01*
X143695918Y-95690098D02*
X143773327Y-95767508D01*
X143773327Y-95767508D02*
X143812032Y-95844917D01*
X144392603Y-95032118D02*
X143579803Y-95032118D01*
X144392603Y-94567661D02*
X143928146Y-94916003D01*
X143579803Y-94567661D02*
X144044260Y-95032118D01*
X144192603Y-82580460D02*
X144192603Y-83044917D01*
X144192603Y-82812689D02*
X143379803Y-82812689D01*
X143379803Y-82812689D02*
X143495918Y-82890098D01*
X143495918Y-82890098D02*
X143573327Y-82967508D01*
X143573327Y-82967508D02*
X143612032Y-83044917D01*
X144192603Y-82232118D02*
X143379803Y-82232118D01*
X144192603Y-81767661D02*
X143728146Y-82116003D01*
X143379803Y-81767661D02*
X143844260Y-82232118D01*
X141919539Y-67192603D02*
X141455082Y-67192603D01*
X141687310Y-67192603D02*
X141687310Y-66379803D01*
X141687310Y-66379803D02*
X141609901Y-66495918D01*
X141609901Y-66495918D02*
X141532491Y-66573327D01*
X141532491Y-66573327D02*
X141455082Y-66612032D01*
X142267881Y-67192603D02*
X142267881Y-66379803D01*
X142732338Y-67192603D02*
X142383996Y-66728146D01*
X142732338Y-66379803D02*
X142267881Y-66844260D01*
X89093786Y-108092603D02*
X89093786Y-107279803D01*
X89093786Y-107279803D02*
X89364720Y-107860375D01*
X89364720Y-107860375D02*
X89635653Y-107279803D01*
X89635653Y-107279803D02*
X89635653Y-108092603D01*
X89983996Y-107860375D02*
X90371043Y-107860375D01*
X89906586Y-108092603D02*
X90177519Y-107279803D01*
X90177519Y-107279803D02*
X90448453Y-108092603D01*
X90641977Y-107279803D02*
X91183843Y-108092603D01*
X91183843Y-107279803D02*
X90641977Y-108092603D01*
X91416072Y-107279803D02*
X91919234Y-107279803D01*
X91919234Y-107279803D02*
X91648300Y-107589441D01*
X91648300Y-107589441D02*
X91764415Y-107589441D01*
X91764415Y-107589441D02*
X91841824Y-107628146D01*
X91841824Y-107628146D02*
X91880529Y-107666851D01*
X91880529Y-107666851D02*
X91919234Y-107744260D01*
X91919234Y-107744260D02*
X91919234Y-107937784D01*
X91919234Y-107937784D02*
X91880529Y-108015194D01*
X91880529Y-108015194D02*
X91841824Y-108053899D01*
X91841824Y-108053899D02*
X91764415Y-108092603D01*
X91764415Y-108092603D02*
X91532186Y-108092603D01*
X91532186Y-108092603D02*
X91454777Y-108053899D01*
X91454777Y-108053899D02*
X91416072Y-108015194D01*
X92422395Y-107279803D02*
X92499805Y-107279803D01*
X92499805Y-107279803D02*
X92577214Y-107318508D01*
X92577214Y-107318508D02*
X92615919Y-107357213D01*
X92615919Y-107357213D02*
X92654624Y-107434622D01*
X92654624Y-107434622D02*
X92693329Y-107589441D01*
X92693329Y-107589441D02*
X92693329Y-107782965D01*
X92693329Y-107782965D02*
X92654624Y-107937784D01*
X92654624Y-107937784D02*
X92615919Y-108015194D01*
X92615919Y-108015194D02*
X92577214Y-108053899D01*
X92577214Y-108053899D02*
X92499805Y-108092603D01*
X92499805Y-108092603D02*
X92422395Y-108092603D01*
X92422395Y-108092603D02*
X92344986Y-108053899D01*
X92344986Y-108053899D02*
X92306281Y-108015194D01*
X92306281Y-108015194D02*
X92267576Y-107937784D01*
X92267576Y-107937784D02*
X92228872Y-107782965D01*
X92228872Y-107782965D02*
X92228872Y-107589441D01*
X92228872Y-107589441D02*
X92267576Y-107434622D01*
X92267576Y-107434622D02*
X92306281Y-107357213D01*
X92306281Y-107357213D02*
X92344986Y-107318508D01*
X92344986Y-107318508D02*
X92422395Y-107279803D01*
X93467424Y-108092603D02*
X93002967Y-108092603D01*
X93235195Y-108092603D02*
X93235195Y-107279803D01*
X93235195Y-107279803D02*
X93157786Y-107395918D01*
X93157786Y-107395918D02*
X93080376Y-107473327D01*
X93080376Y-107473327D02*
X93002967Y-107512032D01*
X93970585Y-107279803D02*
X94047995Y-107279803D01*
X94047995Y-107279803D02*
X94125404Y-107318508D01*
X94125404Y-107318508D02*
X94164109Y-107357213D01*
X94164109Y-107357213D02*
X94202814Y-107434622D01*
X94202814Y-107434622D02*
X94241519Y-107589441D01*
X94241519Y-107589441D02*
X94241519Y-107782965D01*
X94241519Y-107782965D02*
X94202814Y-107937784D01*
X94202814Y-107937784D02*
X94164109Y-108015194D01*
X94164109Y-108015194D02*
X94125404Y-108053899D01*
X94125404Y-108053899D02*
X94047995Y-108092603D01*
X94047995Y-108092603D02*
X93970585Y-108092603D01*
X93970585Y-108092603D02*
X93893176Y-108053899D01*
X93893176Y-108053899D02*
X93854471Y-108015194D01*
X93854471Y-108015194D02*
X93815766Y-107937784D01*
X93815766Y-107937784D02*
X93777062Y-107782965D01*
X93777062Y-107782965D02*
X93777062Y-107589441D01*
X93777062Y-107589441D02*
X93815766Y-107434622D01*
X93815766Y-107434622D02*
X93854471Y-107357213D01*
X93854471Y-107357213D02*
X93893176Y-107318508D01*
X93893176Y-107318508D02*
X93970585Y-107279803D01*
X94551157Y-107357213D02*
X94589861Y-107318508D01*
X94589861Y-107318508D02*
X94667271Y-107279803D01*
X94667271Y-107279803D02*
X94860795Y-107279803D01*
X94860795Y-107279803D02*
X94938204Y-107318508D01*
X94938204Y-107318508D02*
X94976909Y-107357213D01*
X94976909Y-107357213D02*
X95015614Y-107434622D01*
X95015614Y-107434622D02*
X95015614Y-107512032D01*
X95015614Y-107512032D02*
X94976909Y-107628146D01*
X94976909Y-107628146D02*
X94512452Y-108092603D01*
X94512452Y-108092603D02*
X95015614Y-108092603D01*
X96955082Y-80053899D02*
X97071196Y-80092603D01*
X97071196Y-80092603D02*
X97264720Y-80092603D01*
X97264720Y-80092603D02*
X97342129Y-80053899D01*
X97342129Y-80053899D02*
X97380834Y-80015194D01*
X97380834Y-80015194D02*
X97419539Y-79937784D01*
X97419539Y-79937784D02*
X97419539Y-79860375D01*
X97419539Y-79860375D02*
X97380834Y-79782965D01*
X97380834Y-79782965D02*
X97342129Y-79744260D01*
X97342129Y-79744260D02*
X97264720Y-79705556D01*
X97264720Y-79705556D02*
X97109901Y-79666851D01*
X97109901Y-79666851D02*
X97032491Y-79628146D01*
X97032491Y-79628146D02*
X96993786Y-79589441D01*
X96993786Y-79589441D02*
X96955082Y-79512032D01*
X96955082Y-79512032D02*
X96955082Y-79434622D01*
X96955082Y-79434622D02*
X96993786Y-79357213D01*
X96993786Y-79357213D02*
X97032491Y-79318508D01*
X97032491Y-79318508D02*
X97109901Y-79279803D01*
X97109901Y-79279803D02*
X97303424Y-79279803D01*
X97303424Y-79279803D02*
X97419539Y-79318508D01*
X97729177Y-80053899D02*
X97845291Y-80092603D01*
X97845291Y-80092603D02*
X98038815Y-80092603D01*
X98038815Y-80092603D02*
X98116224Y-80053899D01*
X98116224Y-80053899D02*
X98154929Y-80015194D01*
X98154929Y-80015194D02*
X98193634Y-79937784D01*
X98193634Y-79937784D02*
X98193634Y-79860375D01*
X98193634Y-79860375D02*
X98154929Y-79782965D01*
X98154929Y-79782965D02*
X98116224Y-79744260D01*
X98116224Y-79744260D02*
X98038815Y-79705556D01*
X98038815Y-79705556D02*
X97883996Y-79666851D01*
X97883996Y-79666851D02*
X97806586Y-79628146D01*
X97806586Y-79628146D02*
X97767881Y-79589441D01*
X97767881Y-79589441D02*
X97729177Y-79512032D01*
X97729177Y-79512032D02*
X97729177Y-79434622D01*
X97729177Y-79434622D02*
X97767881Y-79357213D01*
X97767881Y-79357213D02*
X97806586Y-79318508D01*
X97806586Y-79318508D02*
X97883996Y-79279803D01*
X97883996Y-79279803D02*
X98077519Y-79279803D01*
X98077519Y-79279803D02*
X98193634Y-79318508D01*
X98541976Y-80092603D02*
X98541976Y-79279803D01*
X98541976Y-79279803D02*
X98735500Y-79279803D01*
X98735500Y-79279803D02*
X98851614Y-79318508D01*
X98851614Y-79318508D02*
X98929024Y-79395918D01*
X98929024Y-79395918D02*
X98967729Y-79473327D01*
X98967729Y-79473327D02*
X99006433Y-79628146D01*
X99006433Y-79628146D02*
X99006433Y-79744260D01*
X99006433Y-79744260D02*
X98967729Y-79899079D01*
X98967729Y-79899079D02*
X98929024Y-79976489D01*
X98929024Y-79976489D02*
X98851614Y-80053899D01*
X98851614Y-80053899D02*
X98735500Y-80092603D01*
X98735500Y-80092603D02*
X98541976Y-80092603D01*
X99780529Y-80092603D02*
X99316072Y-80092603D01*
X99548300Y-80092603D02*
X99548300Y-79279803D01*
X99548300Y-79279803D02*
X99470891Y-79395918D01*
X99470891Y-79395918D02*
X99393481Y-79473327D01*
X99393481Y-79473327D02*
X99316072Y-79512032D01*
X100051462Y-79279803D02*
X100554624Y-79279803D01*
X100554624Y-79279803D02*
X100283690Y-79589441D01*
X100283690Y-79589441D02*
X100399805Y-79589441D01*
X100399805Y-79589441D02*
X100477214Y-79628146D01*
X100477214Y-79628146D02*
X100515919Y-79666851D01*
X100515919Y-79666851D02*
X100554624Y-79744260D01*
X100554624Y-79744260D02*
X100554624Y-79937784D01*
X100554624Y-79937784D02*
X100515919Y-80015194D01*
X100515919Y-80015194D02*
X100477214Y-80053899D01*
X100477214Y-80053899D02*
X100399805Y-80092603D01*
X100399805Y-80092603D02*
X100167576Y-80092603D01*
X100167576Y-80092603D02*
X100090167Y-80053899D01*
X100090167Y-80053899D02*
X100051462Y-80015194D01*
X101057785Y-79279803D02*
X101135195Y-79279803D01*
X101135195Y-79279803D02*
X101212604Y-79318508D01*
X101212604Y-79318508D02*
X101251309Y-79357213D01*
X101251309Y-79357213D02*
X101290014Y-79434622D01*
X101290014Y-79434622D02*
X101328719Y-79589441D01*
X101328719Y-79589441D02*
X101328719Y-79782965D01*
X101328719Y-79782965D02*
X101290014Y-79937784D01*
X101290014Y-79937784D02*
X101251309Y-80015194D01*
X101251309Y-80015194D02*
X101212604Y-80053899D01*
X101212604Y-80053899D02*
X101135195Y-80092603D01*
X101135195Y-80092603D02*
X101057785Y-80092603D01*
X101057785Y-80092603D02*
X100980376Y-80053899D01*
X100980376Y-80053899D02*
X100941671Y-80015194D01*
X100941671Y-80015194D02*
X100902966Y-79937784D01*
X100902966Y-79937784D02*
X100864262Y-79782965D01*
X100864262Y-79782965D02*
X100864262Y-79589441D01*
X100864262Y-79589441D02*
X100902966Y-79434622D01*
X100902966Y-79434622D02*
X100941671Y-79357213D01*
X100941671Y-79357213D02*
X100980376Y-79318508D01*
X100980376Y-79318508D02*
X101057785Y-79279803D01*
X102025404Y-79279803D02*
X101870585Y-79279803D01*
X101870585Y-79279803D02*
X101793176Y-79318508D01*
X101793176Y-79318508D02*
X101754471Y-79357213D01*
X101754471Y-79357213D02*
X101677061Y-79473327D01*
X101677061Y-79473327D02*
X101638357Y-79628146D01*
X101638357Y-79628146D02*
X101638357Y-79937784D01*
X101638357Y-79937784D02*
X101677061Y-80015194D01*
X101677061Y-80015194D02*
X101715766Y-80053899D01*
X101715766Y-80053899D02*
X101793176Y-80092603D01*
X101793176Y-80092603D02*
X101947995Y-80092603D01*
X101947995Y-80092603D02*
X102025404Y-80053899D01*
X102025404Y-80053899D02*
X102064109Y-80015194D01*
X102064109Y-80015194D02*
X102102814Y-79937784D01*
X102102814Y-79937784D02*
X102102814Y-79744260D01*
X102102814Y-79744260D02*
X102064109Y-79666851D01*
X102064109Y-79666851D02*
X102025404Y-79628146D01*
X102025404Y-79628146D02*
X101947995Y-79589441D01*
X101947995Y-79589441D02*
X101793176Y-79589441D01*
X101793176Y-79589441D02*
X101715766Y-79628146D01*
X101715766Y-79628146D02*
X101677061Y-79666851D01*
X101677061Y-79666851D02*
X101638357Y-79744260D01*
X119455082Y-89660375D02*
X119842129Y-89660375D01*
X119377672Y-89892603D02*
X119648605Y-89079803D01*
X119648605Y-89079803D02*
X119919539Y-89892603D01*
X120654929Y-89892603D02*
X120383996Y-89505556D01*
X120190472Y-89892603D02*
X120190472Y-89079803D01*
X120190472Y-89079803D02*
X120500110Y-89079803D01*
X120500110Y-89079803D02*
X120577520Y-89118508D01*
X120577520Y-89118508D02*
X120616225Y-89157213D01*
X120616225Y-89157213D02*
X120654929Y-89234622D01*
X120654929Y-89234622D02*
X120654929Y-89350737D01*
X120654929Y-89350737D02*
X120616225Y-89428146D01*
X120616225Y-89428146D02*
X120577520Y-89466851D01*
X120577520Y-89466851D02*
X120500110Y-89505556D01*
X120500110Y-89505556D02*
X120190472Y-89505556D01*
X121003272Y-89892603D02*
X121003272Y-89079803D01*
X121003272Y-89079803D02*
X121196796Y-89079803D01*
X121196796Y-89079803D02*
X121312910Y-89118508D01*
X121312910Y-89118508D02*
X121390320Y-89195918D01*
X121390320Y-89195918D02*
X121429025Y-89273327D01*
X121429025Y-89273327D02*
X121467729Y-89428146D01*
X121467729Y-89428146D02*
X121467729Y-89544260D01*
X121467729Y-89544260D02*
X121429025Y-89699079D01*
X121429025Y-89699079D02*
X121390320Y-89776489D01*
X121390320Y-89776489D02*
X121312910Y-89853899D01*
X121312910Y-89853899D02*
X121196796Y-89892603D01*
X121196796Y-89892603D02*
X121003272Y-89892603D01*
X121816072Y-89079803D02*
X121816072Y-89737784D01*
X121816072Y-89737784D02*
X121854777Y-89815194D01*
X121854777Y-89815194D02*
X121893482Y-89853899D01*
X121893482Y-89853899D02*
X121970891Y-89892603D01*
X121970891Y-89892603D02*
X122125710Y-89892603D01*
X122125710Y-89892603D02*
X122203120Y-89853899D01*
X122203120Y-89853899D02*
X122241825Y-89815194D01*
X122241825Y-89815194D02*
X122280529Y-89737784D01*
X122280529Y-89737784D02*
X122280529Y-89079803D01*
X122667577Y-89892603D02*
X122667577Y-89079803D01*
X123054625Y-89892603D02*
X123054625Y-89079803D01*
X123054625Y-89079803D02*
X123519082Y-89892603D01*
X123519082Y-89892603D02*
X123519082Y-89079803D01*
X124060949Y-89079803D02*
X124215768Y-89079803D01*
X124215768Y-89079803D02*
X124293178Y-89118508D01*
X124293178Y-89118508D02*
X124370587Y-89195918D01*
X124370587Y-89195918D02*
X124409292Y-89350737D01*
X124409292Y-89350737D02*
X124409292Y-89621670D01*
X124409292Y-89621670D02*
X124370587Y-89776489D01*
X124370587Y-89776489D02*
X124293178Y-89853899D01*
X124293178Y-89853899D02*
X124215768Y-89892603D01*
X124215768Y-89892603D02*
X124060949Y-89892603D01*
X124060949Y-89892603D02*
X123983540Y-89853899D01*
X123983540Y-89853899D02*
X123906130Y-89776489D01*
X123906130Y-89776489D02*
X123867426Y-89621670D01*
X123867426Y-89621670D02*
X123867426Y-89350737D01*
X123867426Y-89350737D02*
X123906130Y-89195918D01*
X123906130Y-89195918D02*
X123983540Y-89118508D01*
X123983540Y-89118508D02*
X124060949Y-89079803D01*
X125376911Y-89892603D02*
X125376911Y-89079803D01*
X125376911Y-89079803D02*
X125841368Y-89892603D01*
X125841368Y-89892603D02*
X125841368Y-89079803D01*
X126189712Y-89660375D02*
X126576759Y-89660375D01*
X126112302Y-89892603D02*
X126383235Y-89079803D01*
X126383235Y-89079803D02*
X126654169Y-89892603D01*
X126925102Y-89892603D02*
X126925102Y-89079803D01*
X126925102Y-89079803D02*
X127389559Y-89892603D01*
X127389559Y-89892603D02*
X127389559Y-89079803D01*
X127931426Y-89079803D02*
X128086245Y-89079803D01*
X128086245Y-89079803D02*
X128163655Y-89118508D01*
X128163655Y-89118508D02*
X128241064Y-89195918D01*
X128241064Y-89195918D02*
X128279769Y-89350737D01*
X128279769Y-89350737D02*
X128279769Y-89621670D01*
X128279769Y-89621670D02*
X128241064Y-89776489D01*
X128241064Y-89776489D02*
X128163655Y-89853899D01*
X128163655Y-89853899D02*
X128086245Y-89892603D01*
X128086245Y-89892603D02*
X127931426Y-89892603D01*
X127931426Y-89892603D02*
X127854017Y-89853899D01*
X127854017Y-89853899D02*
X127776607Y-89776489D01*
X127776607Y-89776489D02*
X127737903Y-89621670D01*
X127737903Y-89621670D02*
X127737903Y-89350737D01*
X127737903Y-89350737D02*
X127776607Y-89195918D01*
X127776607Y-89195918D02*
X127854017Y-89118508D01*
X127854017Y-89118508D02*
X127931426Y-89079803D01*
D12*
X109428095Y-94887419D02*
X109428095Y-95696942D01*
X109428095Y-95696942D02*
X109475714Y-95792180D01*
X109475714Y-95792180D02*
X109523333Y-95839800D01*
X109523333Y-95839800D02*
X109618571Y-95887419D01*
X109618571Y-95887419D02*
X109809047Y-95887419D01*
X109809047Y-95887419D02*
X109904285Y-95839800D01*
X109904285Y-95839800D02*
X109951904Y-95792180D01*
X109951904Y-95792180D02*
X109999523Y-95696942D01*
X109999523Y-95696942D02*
X109999523Y-94887419D01*
X110428095Y-94982657D02*
X110475714Y-94935038D01*
X110475714Y-94935038D02*
X110570952Y-94887419D01*
X110570952Y-94887419D02*
X110809047Y-94887419D01*
X110809047Y-94887419D02*
X110904285Y-94935038D01*
X110904285Y-94935038D02*
X110951904Y-94982657D01*
X110951904Y-94982657D02*
X110999523Y-95077895D01*
X110999523Y-95077895D02*
X110999523Y-95173133D01*
X110999523Y-95173133D02*
X110951904Y-95315990D01*
X110951904Y-95315990D02*
X110380476Y-95887419D01*
X110380476Y-95887419D02*
X110999523Y-95887419D01*
D13*
X97269819Y-72616077D02*
X98269819Y-72282744D01*
X98269819Y-72282744D02*
X97269819Y-71949411D01*
X98174580Y-71044649D02*
X98222200Y-71092268D01*
X98222200Y-71092268D02*
X98269819Y-71235125D01*
X98269819Y-71235125D02*
X98269819Y-71330363D01*
X98269819Y-71330363D02*
X98222200Y-71473220D01*
X98222200Y-71473220D02*
X98126961Y-71568458D01*
X98126961Y-71568458D02*
X98031723Y-71616077D01*
X98031723Y-71616077D02*
X97841247Y-71663696D01*
X97841247Y-71663696D02*
X97698390Y-71663696D01*
X97698390Y-71663696D02*
X97507914Y-71616077D01*
X97507914Y-71616077D02*
X97412676Y-71568458D01*
X97412676Y-71568458D02*
X97317438Y-71473220D01*
X97317438Y-71473220D02*
X97269819Y-71330363D01*
X97269819Y-71330363D02*
X97269819Y-71235125D01*
X97269819Y-71235125D02*
X97317438Y-71092268D01*
X97317438Y-71092268D02*
X97365057Y-71044649D01*
X98174580Y-70044649D02*
X98222200Y-70092268D01*
X98222200Y-70092268D02*
X98269819Y-70235125D01*
X98269819Y-70235125D02*
X98269819Y-70330363D01*
X98269819Y-70330363D02*
X98222200Y-70473220D01*
X98222200Y-70473220D02*
X98126961Y-70568458D01*
X98126961Y-70568458D02*
X98031723Y-70616077D01*
X98031723Y-70616077D02*
X97841247Y-70663696D01*
X97841247Y-70663696D02*
X97698390Y-70663696D01*
X97698390Y-70663696D02*
X97507914Y-70616077D01*
X97507914Y-70616077D02*
X97412676Y-70568458D01*
X97412676Y-70568458D02*
X97317438Y-70473220D01*
X97317438Y-70473220D02*
X97269819Y-70330363D01*
X97269819Y-70330363D02*
X97269819Y-70235125D01*
X97269819Y-70235125D02*
X97317438Y-70092268D01*
X97317438Y-70092268D02*
X97365057Y-70044649D01*
X94805438Y-71949411D02*
X94757819Y-72044649D01*
X94757819Y-72044649D02*
X94757819Y-72187506D01*
X94757819Y-72187506D02*
X94805438Y-72330363D01*
X94805438Y-72330363D02*
X94900676Y-72425601D01*
X94900676Y-72425601D02*
X94995914Y-72473220D01*
X94995914Y-72473220D02*
X95186390Y-72520839D01*
X95186390Y-72520839D02*
X95329247Y-72520839D01*
X95329247Y-72520839D02*
X95519723Y-72473220D01*
X95519723Y-72473220D02*
X95614961Y-72425601D01*
X95614961Y-72425601D02*
X95710200Y-72330363D01*
X95710200Y-72330363D02*
X95757819Y-72187506D01*
X95757819Y-72187506D02*
X95757819Y-72092268D01*
X95757819Y-72092268D02*
X95710200Y-71949411D01*
X95710200Y-71949411D02*
X95662580Y-71901792D01*
X95662580Y-71901792D02*
X95329247Y-71901792D01*
X95329247Y-71901792D02*
X95329247Y-72092268D01*
X95757819Y-71473220D02*
X94757819Y-71473220D01*
X94757819Y-71473220D02*
X95757819Y-70901792D01*
X95757819Y-70901792D02*
X94757819Y-70901792D01*
X95757819Y-70425601D02*
X94757819Y-70425601D01*
X94757819Y-70425601D02*
X94757819Y-70187506D01*
X94757819Y-70187506D02*
X94805438Y-70044649D01*
X94805438Y-70044649D02*
X94900676Y-69949411D01*
X94900676Y-69949411D02*
X94995914Y-69901792D01*
X94995914Y-69901792D02*
X95186390Y-69854173D01*
X95186390Y-69854173D02*
X95329247Y-69854173D01*
X95329247Y-69854173D02*
X95519723Y-69901792D01*
X95519723Y-69901792D02*
X95614961Y-69949411D01*
X95614961Y-69949411D02*
X95710200Y-70044649D01*
X95710200Y-70044649D02*
X95757819Y-70187506D01*
X95757819Y-70187506D02*
X95757819Y-70425601D01*
X103330200Y-72520839D02*
X103377819Y-72377982D01*
X103377819Y-72377982D02*
X103377819Y-72139887D01*
X103377819Y-72139887D02*
X103330200Y-72044649D01*
X103330200Y-72044649D02*
X103282580Y-71997030D01*
X103282580Y-71997030D02*
X103187342Y-71949411D01*
X103187342Y-71949411D02*
X103092104Y-71949411D01*
X103092104Y-71949411D02*
X102996866Y-71997030D01*
X102996866Y-71997030D02*
X102949247Y-72044649D01*
X102949247Y-72044649D02*
X102901628Y-72139887D01*
X102901628Y-72139887D02*
X102854009Y-72330363D01*
X102854009Y-72330363D02*
X102806390Y-72425601D01*
X102806390Y-72425601D02*
X102758771Y-72473220D01*
X102758771Y-72473220D02*
X102663533Y-72520839D01*
X102663533Y-72520839D02*
X102568295Y-72520839D01*
X102568295Y-72520839D02*
X102473057Y-72473220D01*
X102473057Y-72473220D02*
X102425438Y-72425601D01*
X102425438Y-72425601D02*
X102377819Y-72330363D01*
X102377819Y-72330363D02*
X102377819Y-72092268D01*
X102377819Y-72092268D02*
X102425438Y-71949411D01*
X103377819Y-71520839D02*
X102377819Y-71520839D01*
X102377819Y-71520839D02*
X102377819Y-71282744D01*
X102377819Y-71282744D02*
X102425438Y-71139887D01*
X102425438Y-71139887D02*
X102520676Y-71044649D01*
X102520676Y-71044649D02*
X102615914Y-70997030D01*
X102615914Y-70997030D02*
X102806390Y-70949411D01*
X102806390Y-70949411D02*
X102949247Y-70949411D01*
X102949247Y-70949411D02*
X103139723Y-70997030D01*
X103139723Y-70997030D02*
X103234961Y-71044649D01*
X103234961Y-71044649D02*
X103330200Y-71139887D01*
X103330200Y-71139887D02*
X103377819Y-71282744D01*
X103377819Y-71282744D02*
X103377819Y-71520839D01*
X103092104Y-70568458D02*
X103092104Y-70092268D01*
X103377819Y-70663696D02*
X102377819Y-70330363D01*
X102377819Y-70330363D02*
X103377819Y-69997030D01*
X100663200Y-72520839D02*
X100710819Y-72377982D01*
X100710819Y-72377982D02*
X100710819Y-72139887D01*
X100710819Y-72139887D02*
X100663200Y-72044649D01*
X100663200Y-72044649D02*
X100615580Y-71997030D01*
X100615580Y-71997030D02*
X100520342Y-71949411D01*
X100520342Y-71949411D02*
X100425104Y-71949411D01*
X100425104Y-71949411D02*
X100329866Y-71997030D01*
X100329866Y-71997030D02*
X100282247Y-72044649D01*
X100282247Y-72044649D02*
X100234628Y-72139887D01*
X100234628Y-72139887D02*
X100187009Y-72330363D01*
X100187009Y-72330363D02*
X100139390Y-72425601D01*
X100139390Y-72425601D02*
X100091771Y-72473220D01*
X100091771Y-72473220D02*
X99996533Y-72520839D01*
X99996533Y-72520839D02*
X99901295Y-72520839D01*
X99901295Y-72520839D02*
X99806057Y-72473220D01*
X99806057Y-72473220D02*
X99758438Y-72425601D01*
X99758438Y-72425601D02*
X99710819Y-72330363D01*
X99710819Y-72330363D02*
X99710819Y-72092268D01*
X99710819Y-72092268D02*
X99758438Y-71949411D01*
X100615580Y-70949411D02*
X100663200Y-70997030D01*
X100663200Y-70997030D02*
X100710819Y-71139887D01*
X100710819Y-71139887D02*
X100710819Y-71235125D01*
X100710819Y-71235125D02*
X100663200Y-71377982D01*
X100663200Y-71377982D02*
X100567961Y-71473220D01*
X100567961Y-71473220D02*
X100472723Y-71520839D01*
X100472723Y-71520839D02*
X100282247Y-71568458D01*
X100282247Y-71568458D02*
X100139390Y-71568458D01*
X100139390Y-71568458D02*
X99948914Y-71520839D01*
X99948914Y-71520839D02*
X99853676Y-71473220D01*
X99853676Y-71473220D02*
X99758438Y-71377982D01*
X99758438Y-71377982D02*
X99710819Y-71235125D01*
X99710819Y-71235125D02*
X99710819Y-71139887D01*
X99710819Y-71139887D02*
X99758438Y-70997030D01*
X99758438Y-70997030D02*
X99806057Y-70949411D01*
X100710819Y-70044649D02*
X100710819Y-70520839D01*
X100710819Y-70520839D02*
X99710819Y-70520839D01*
D12*
X99938095Y-110057419D02*
X99938095Y-110866942D01*
X99938095Y-110866942D02*
X99985714Y-110962180D01*
X99985714Y-110962180D02*
X100033333Y-111009800D01*
X100033333Y-111009800D02*
X100128571Y-111057419D01*
X100128571Y-111057419D02*
X100319047Y-111057419D01*
X100319047Y-111057419D02*
X100414285Y-111009800D01*
X100414285Y-111009800D02*
X100461904Y-110962180D01*
X100461904Y-110962180D02*
X100509523Y-110866942D01*
X100509523Y-110866942D02*
X100509523Y-110057419D01*
X101509523Y-111057419D02*
X100938095Y-111057419D01*
X101223809Y-111057419D02*
X101223809Y-110057419D01*
X101223809Y-110057419D02*
X101128571Y-110200276D01*
X101128571Y-110200276D02*
X101033333Y-110295514D01*
X101033333Y-110295514D02*
X100938095Y-110343133D01*
D13*
X93917438Y-101869411D02*
X93869819Y-101964649D01*
X93869819Y-101964649D02*
X93869819Y-102107506D01*
X93869819Y-102107506D02*
X93917438Y-102250363D01*
X93917438Y-102250363D02*
X94012676Y-102345601D01*
X94012676Y-102345601D02*
X94107914Y-102393220D01*
X94107914Y-102393220D02*
X94298390Y-102440839D01*
X94298390Y-102440839D02*
X94441247Y-102440839D01*
X94441247Y-102440839D02*
X94631723Y-102393220D01*
X94631723Y-102393220D02*
X94726961Y-102345601D01*
X94726961Y-102345601D02*
X94822200Y-102250363D01*
X94822200Y-102250363D02*
X94869819Y-102107506D01*
X94869819Y-102107506D02*
X94869819Y-102012268D01*
X94869819Y-102012268D02*
X94822200Y-101869411D01*
X94822200Y-101869411D02*
X94774580Y-101821792D01*
X94774580Y-101821792D02*
X94441247Y-101821792D01*
X94441247Y-101821792D02*
X94441247Y-102012268D01*
X94869819Y-101393220D02*
X93869819Y-101393220D01*
X93869819Y-101393220D02*
X94869819Y-100821792D01*
X94869819Y-100821792D02*
X93869819Y-100821792D01*
X94869819Y-100345601D02*
X93869819Y-100345601D01*
X93869819Y-100345601D02*
X93869819Y-100107506D01*
X93869819Y-100107506D02*
X93917438Y-99964649D01*
X93917438Y-99964649D02*
X94012676Y-99869411D01*
X94012676Y-99869411D02*
X94107914Y-99821792D01*
X94107914Y-99821792D02*
X94298390Y-99774173D01*
X94298390Y-99774173D02*
X94441247Y-99774173D01*
X94441247Y-99774173D02*
X94631723Y-99821792D01*
X94631723Y-99821792D02*
X94726961Y-99869411D01*
X94726961Y-99869411D02*
X94822200Y-99964649D01*
X94822200Y-99964649D02*
X94869819Y-100107506D01*
X94869819Y-100107506D02*
X94869819Y-100345601D01*
X91822200Y-102440839D02*
X91869819Y-102297982D01*
X91869819Y-102297982D02*
X91869819Y-102059887D01*
X91869819Y-102059887D02*
X91822200Y-101964649D01*
X91822200Y-101964649D02*
X91774580Y-101917030D01*
X91774580Y-101917030D02*
X91679342Y-101869411D01*
X91679342Y-101869411D02*
X91584104Y-101869411D01*
X91584104Y-101869411D02*
X91488866Y-101917030D01*
X91488866Y-101917030D02*
X91441247Y-101964649D01*
X91441247Y-101964649D02*
X91393628Y-102059887D01*
X91393628Y-102059887D02*
X91346009Y-102250363D01*
X91346009Y-102250363D02*
X91298390Y-102345601D01*
X91298390Y-102345601D02*
X91250771Y-102393220D01*
X91250771Y-102393220D02*
X91155533Y-102440839D01*
X91155533Y-102440839D02*
X91060295Y-102440839D01*
X91060295Y-102440839D02*
X90965057Y-102393220D01*
X90965057Y-102393220D02*
X90917438Y-102345601D01*
X90917438Y-102345601D02*
X90869819Y-102250363D01*
X90869819Y-102250363D02*
X90869819Y-102012268D01*
X90869819Y-102012268D02*
X90917438Y-101869411D01*
X91774580Y-100869411D02*
X91822200Y-100917030D01*
X91822200Y-100917030D02*
X91869819Y-101059887D01*
X91869819Y-101059887D02*
X91869819Y-101155125D01*
X91869819Y-101155125D02*
X91822200Y-101297982D01*
X91822200Y-101297982D02*
X91726961Y-101393220D01*
X91726961Y-101393220D02*
X91631723Y-101440839D01*
X91631723Y-101440839D02*
X91441247Y-101488458D01*
X91441247Y-101488458D02*
X91298390Y-101488458D01*
X91298390Y-101488458D02*
X91107914Y-101440839D01*
X91107914Y-101440839D02*
X91012676Y-101393220D01*
X91012676Y-101393220D02*
X90917438Y-101297982D01*
X90917438Y-101297982D02*
X90869819Y-101155125D01*
X90869819Y-101155125D02*
X90869819Y-101059887D01*
X90869819Y-101059887D02*
X90917438Y-100917030D01*
X90917438Y-100917030D02*
X90965057Y-100869411D01*
X91869819Y-99964649D02*
X91869819Y-100440839D01*
X91869819Y-100440839D02*
X90869819Y-100440839D01*
X96369819Y-102536077D02*
X97369819Y-102202744D01*
X97369819Y-102202744D02*
X96369819Y-101869411D01*
X97274580Y-100964649D02*
X97322200Y-101012268D01*
X97322200Y-101012268D02*
X97369819Y-101155125D01*
X97369819Y-101155125D02*
X97369819Y-101250363D01*
X97369819Y-101250363D02*
X97322200Y-101393220D01*
X97322200Y-101393220D02*
X97226961Y-101488458D01*
X97226961Y-101488458D02*
X97131723Y-101536077D01*
X97131723Y-101536077D02*
X96941247Y-101583696D01*
X96941247Y-101583696D02*
X96798390Y-101583696D01*
X96798390Y-101583696D02*
X96607914Y-101536077D01*
X96607914Y-101536077D02*
X96512676Y-101488458D01*
X96512676Y-101488458D02*
X96417438Y-101393220D01*
X96417438Y-101393220D02*
X96369819Y-101250363D01*
X96369819Y-101250363D02*
X96369819Y-101155125D01*
X96369819Y-101155125D02*
X96417438Y-101012268D01*
X96417438Y-101012268D02*
X96465057Y-100964649D01*
X97274580Y-99964649D02*
X97322200Y-100012268D01*
X97322200Y-100012268D02*
X97369819Y-100155125D01*
X97369819Y-100155125D02*
X97369819Y-100250363D01*
X97369819Y-100250363D02*
X97322200Y-100393220D01*
X97322200Y-100393220D02*
X97226961Y-100488458D01*
X97226961Y-100488458D02*
X97131723Y-100536077D01*
X97131723Y-100536077D02*
X96941247Y-100583696D01*
X96941247Y-100583696D02*
X96798390Y-100583696D01*
X96798390Y-100583696D02*
X96607914Y-100536077D01*
X96607914Y-100536077D02*
X96512676Y-100488458D01*
X96512676Y-100488458D02*
X96417438Y-100393220D01*
X96417438Y-100393220D02*
X96369819Y-100250363D01*
X96369819Y-100250363D02*
X96369819Y-100155125D01*
X96369819Y-100155125D02*
X96417438Y-100012268D01*
X96417438Y-100012268D02*
X96465057Y-99964649D01*
X86789819Y-102393220D02*
X85789819Y-102393220D01*
X86789819Y-101917030D02*
X85789819Y-101917030D01*
X85789819Y-101917030D02*
X86789819Y-101345602D01*
X86789819Y-101345602D02*
X85789819Y-101345602D01*
X85789819Y-101012268D02*
X85789819Y-100440840D01*
X86789819Y-100726554D02*
X85789819Y-100726554D01*
X89822200Y-102440839D02*
X89869819Y-102297982D01*
X89869819Y-102297982D02*
X89869819Y-102059887D01*
X89869819Y-102059887D02*
X89822200Y-101964649D01*
X89822200Y-101964649D02*
X89774580Y-101917030D01*
X89774580Y-101917030D02*
X89679342Y-101869411D01*
X89679342Y-101869411D02*
X89584104Y-101869411D01*
X89584104Y-101869411D02*
X89488866Y-101917030D01*
X89488866Y-101917030D02*
X89441247Y-101964649D01*
X89441247Y-101964649D02*
X89393628Y-102059887D01*
X89393628Y-102059887D02*
X89346009Y-102250363D01*
X89346009Y-102250363D02*
X89298390Y-102345601D01*
X89298390Y-102345601D02*
X89250771Y-102393220D01*
X89250771Y-102393220D02*
X89155533Y-102440839D01*
X89155533Y-102440839D02*
X89060295Y-102440839D01*
X89060295Y-102440839D02*
X88965057Y-102393220D01*
X88965057Y-102393220D02*
X88917438Y-102345601D01*
X88917438Y-102345601D02*
X88869819Y-102250363D01*
X88869819Y-102250363D02*
X88869819Y-102012268D01*
X88869819Y-102012268D02*
X88917438Y-101869411D01*
X89869819Y-101440839D02*
X88869819Y-101440839D01*
X88869819Y-101440839D02*
X88869819Y-101202744D01*
X88869819Y-101202744D02*
X88917438Y-101059887D01*
X88917438Y-101059887D02*
X89012676Y-100964649D01*
X89012676Y-100964649D02*
X89107914Y-100917030D01*
X89107914Y-100917030D02*
X89298390Y-100869411D01*
X89298390Y-100869411D02*
X89441247Y-100869411D01*
X89441247Y-100869411D02*
X89631723Y-100917030D01*
X89631723Y-100917030D02*
X89726961Y-100964649D01*
X89726961Y-100964649D02*
X89822200Y-101059887D01*
X89822200Y-101059887D02*
X89869819Y-101202744D01*
X89869819Y-101202744D02*
X89869819Y-101440839D01*
X89584104Y-100488458D02*
X89584104Y-100012268D01*
X89869819Y-100583696D02*
X88869819Y-100250363D01*
X88869819Y-100250363D02*
X89869819Y-99917030D01*
X150869048Y-101954819D02*
X150869048Y-100954819D01*
X150869048Y-100954819D02*
X151107143Y-100954819D01*
X151107143Y-100954819D02*
X151250000Y-101002438D01*
X151250000Y-101002438D02*
X151345238Y-101097676D01*
X151345238Y-101097676D02*
X151392857Y-101192914D01*
X151392857Y-101192914D02*
X151440476Y-101383390D01*
X151440476Y-101383390D02*
X151440476Y-101526247D01*
X151440476Y-101526247D02*
X151392857Y-101716723D01*
X151392857Y-101716723D02*
X151345238Y-101811961D01*
X151345238Y-101811961D02*
X151250000Y-101907200D01*
X151250000Y-101907200D02*
X151107143Y-101954819D01*
X151107143Y-101954819D02*
X150869048Y-101954819D01*
X152059524Y-100954819D02*
X152250000Y-100954819D01*
X152250000Y-100954819D02*
X152345238Y-101002438D01*
X152345238Y-101002438D02*
X152440476Y-101097676D01*
X152440476Y-101097676D02*
X152488095Y-101288152D01*
X152488095Y-101288152D02*
X152488095Y-101621485D01*
X152488095Y-101621485D02*
X152440476Y-101811961D01*
X152440476Y-101811961D02*
X152345238Y-101907200D01*
X152345238Y-101907200D02*
X152250000Y-101954819D01*
X152250000Y-101954819D02*
X152059524Y-101954819D01*
X152059524Y-101954819D02*
X151964286Y-101907200D01*
X151964286Y-101907200D02*
X151869048Y-101811961D01*
X151869048Y-101811961D02*
X151821429Y-101621485D01*
X151821429Y-101621485D02*
X151821429Y-101288152D01*
X151821429Y-101288152D02*
X151869048Y-101097676D01*
X151869048Y-101097676D02*
X151964286Y-101002438D01*
X151964286Y-101002438D02*
X152059524Y-100954819D01*
X152821429Y-100954819D02*
X153059524Y-101954819D01*
X153059524Y-101954819D02*
X153250000Y-101240533D01*
X153250000Y-101240533D02*
X153440476Y-101954819D01*
X153440476Y-101954819D02*
X153678572Y-100954819D01*
X154059524Y-101954819D02*
X154059524Y-100954819D01*
X154059524Y-100954819D02*
X154630952Y-101954819D01*
X154630952Y-101954819D02*
X154630952Y-100954819D01*
X151464286Y-89454819D02*
X151464286Y-90264342D01*
X151464286Y-90264342D02*
X151511905Y-90359580D01*
X151511905Y-90359580D02*
X151559524Y-90407200D01*
X151559524Y-90407200D02*
X151654762Y-90454819D01*
X151654762Y-90454819D02*
X151845238Y-90454819D01*
X151845238Y-90454819D02*
X151940476Y-90407200D01*
X151940476Y-90407200D02*
X151988095Y-90359580D01*
X151988095Y-90359580D02*
X152035714Y-90264342D01*
X152035714Y-90264342D02*
X152035714Y-89454819D01*
X152511905Y-90454819D02*
X152511905Y-89454819D01*
X152511905Y-89454819D02*
X152892857Y-89454819D01*
X152892857Y-89454819D02*
X152988095Y-89502438D01*
X152988095Y-89502438D02*
X153035714Y-89550057D01*
X153035714Y-89550057D02*
X153083333Y-89645295D01*
X153083333Y-89645295D02*
X153083333Y-89788152D01*
X153083333Y-89788152D02*
X153035714Y-89883390D01*
X153035714Y-89883390D02*
X152988095Y-89931009D01*
X152988095Y-89931009D02*
X152892857Y-89978628D01*
X152892857Y-89978628D02*
X152511905Y-89978628D01*
X150416667Y-78454819D02*
X150416667Y-77454819D01*
X150416667Y-77454819D02*
X150750000Y-78169104D01*
X150750000Y-78169104D02*
X151083333Y-77454819D01*
X151083333Y-77454819D02*
X151083333Y-78454819D01*
X151559524Y-77931009D02*
X151892857Y-77931009D01*
X152035714Y-78454819D02*
X151559524Y-78454819D01*
X151559524Y-78454819D02*
X151559524Y-77454819D01*
X151559524Y-77454819D02*
X152035714Y-77454819D01*
X152464286Y-78454819D02*
X152464286Y-77454819D01*
X152464286Y-77454819D02*
X153035714Y-78454819D01*
X153035714Y-78454819D02*
X153035714Y-77454819D01*
X153511905Y-77454819D02*
X153511905Y-78264342D01*
X153511905Y-78264342D02*
X153559524Y-78359580D01*
X153559524Y-78359580D02*
X153607143Y-78407200D01*
X153607143Y-78407200D02*
X153702381Y-78454819D01*
X153702381Y-78454819D02*
X153892857Y-78454819D01*
X153892857Y-78454819D02*
X153988095Y-78407200D01*
X153988095Y-78407200D02*
X154035714Y-78359580D01*
X154035714Y-78359580D02*
X154083333Y-78264342D01*
X154083333Y-78264342D02*
X154083333Y-77454819D01*
X142023333Y-65084819D02*
X141690000Y-64608628D01*
X141451905Y-65084819D02*
X141451905Y-64084819D01*
X141451905Y-64084819D02*
X141832857Y-64084819D01*
X141832857Y-64084819D02*
X141928095Y-64132438D01*
X141928095Y-64132438D02*
X141975714Y-64180057D01*
X141975714Y-64180057D02*
X142023333Y-64275295D01*
X142023333Y-64275295D02*
X142023333Y-64418152D01*
X142023333Y-64418152D02*
X141975714Y-64513390D01*
X141975714Y-64513390D02*
X141928095Y-64561009D01*
X141928095Y-64561009D02*
X141832857Y-64608628D01*
X141832857Y-64608628D02*
X141451905Y-64608628D01*
X142880476Y-64418152D02*
X142880476Y-65084819D01*
X142642381Y-64037200D02*
X142404286Y-64751485D01*
X142404286Y-64751485D02*
X143023333Y-64751485D01*
X146824819Y-107166666D02*
X146348628Y-107499999D01*
X146824819Y-107738094D02*
X145824819Y-107738094D01*
X145824819Y-107738094D02*
X145824819Y-107357142D01*
X145824819Y-107357142D02*
X145872438Y-107261904D01*
X145872438Y-107261904D02*
X145920057Y-107214285D01*
X145920057Y-107214285D02*
X146015295Y-107166666D01*
X146015295Y-107166666D02*
X146158152Y-107166666D01*
X146158152Y-107166666D02*
X146253390Y-107214285D01*
X146253390Y-107214285D02*
X146301009Y-107261904D01*
X146301009Y-107261904D02*
X146348628Y-107357142D01*
X146348628Y-107357142D02*
X146348628Y-107738094D01*
X145824819Y-106833332D02*
X145824819Y-106214285D01*
X145824819Y-106214285D02*
X146205771Y-106547618D01*
X146205771Y-106547618D02*
X146205771Y-106404761D01*
X146205771Y-106404761D02*
X146253390Y-106309523D01*
X146253390Y-106309523D02*
X146301009Y-106261904D01*
X146301009Y-106261904D02*
X146396247Y-106214285D01*
X146396247Y-106214285D02*
X146634342Y-106214285D01*
X146634342Y-106214285D02*
X146729580Y-106261904D01*
X146729580Y-106261904D02*
X146777200Y-106309523D01*
X146777200Y-106309523D02*
X146824819Y-106404761D01*
X146824819Y-106404761D02*
X146824819Y-106690475D01*
X146824819Y-106690475D02*
X146777200Y-106785713D01*
X146777200Y-106785713D02*
X146729580Y-106833332D01*
X146824819Y-95356666D02*
X146348628Y-95689999D01*
X146824819Y-95928094D02*
X145824819Y-95928094D01*
X145824819Y-95928094D02*
X145824819Y-95547142D01*
X145824819Y-95547142D02*
X145872438Y-95451904D01*
X145872438Y-95451904D02*
X145920057Y-95404285D01*
X145920057Y-95404285D02*
X146015295Y-95356666D01*
X146015295Y-95356666D02*
X146158152Y-95356666D01*
X146158152Y-95356666D02*
X146253390Y-95404285D01*
X146253390Y-95404285D02*
X146301009Y-95451904D01*
X146301009Y-95451904D02*
X146348628Y-95547142D01*
X146348628Y-95547142D02*
X146348628Y-95928094D01*
X145920057Y-94975713D02*
X145872438Y-94928094D01*
X145872438Y-94928094D02*
X145824819Y-94832856D01*
X145824819Y-94832856D02*
X145824819Y-94594761D01*
X145824819Y-94594761D02*
X145872438Y-94499523D01*
X145872438Y-94499523D02*
X145920057Y-94451904D01*
X145920057Y-94451904D02*
X146015295Y-94404285D01*
X146015295Y-94404285D02*
X146110533Y-94404285D01*
X146110533Y-94404285D02*
X146253390Y-94451904D01*
X146253390Y-94451904D02*
X146824819Y-95023332D01*
X146824819Y-95023332D02*
X146824819Y-94404285D01*
X146824819Y-82476666D02*
X146348628Y-82809999D01*
X146824819Y-83048094D02*
X145824819Y-83048094D01*
X145824819Y-83048094D02*
X145824819Y-82667142D01*
X145824819Y-82667142D02*
X145872438Y-82571904D01*
X145872438Y-82571904D02*
X145920057Y-82524285D01*
X145920057Y-82524285D02*
X146015295Y-82476666D01*
X146015295Y-82476666D02*
X146158152Y-82476666D01*
X146158152Y-82476666D02*
X146253390Y-82524285D01*
X146253390Y-82524285D02*
X146301009Y-82571904D01*
X146301009Y-82571904D02*
X146348628Y-82667142D01*
X146348628Y-82667142D02*
X146348628Y-83048094D01*
X146824819Y-81524285D02*
X146824819Y-82095713D01*
X146824819Y-81809999D02*
X145824819Y-81809999D01*
X145824819Y-81809999D02*
X145967676Y-81905237D01*
X145967676Y-81905237D02*
X146062914Y-82000475D01*
X146062914Y-82000475D02*
X146110533Y-82095713D01*
X151047143Y-71129104D02*
X151523333Y-71129104D01*
X150951905Y-71414819D02*
X151285238Y-70414819D01*
X151285238Y-70414819D02*
X151618571Y-71414819D01*
X152428095Y-71414819D02*
X151951905Y-71414819D01*
X151951905Y-71414819D02*
X151951905Y-70414819D01*
X152713810Y-71129104D02*
X153190000Y-71129104D01*
X152618572Y-71414819D02*
X152951905Y-70414819D01*
X152951905Y-70414819D02*
X153285238Y-71414819D01*
X154190000Y-71414819D02*
X153856667Y-70938628D01*
X153618572Y-71414819D02*
X153618572Y-70414819D01*
X153618572Y-70414819D02*
X153999524Y-70414819D01*
X153999524Y-70414819D02*
X154094762Y-70462438D01*
X154094762Y-70462438D02*
X154142381Y-70510057D01*
X154142381Y-70510057D02*
X154190000Y-70605295D01*
X154190000Y-70605295D02*
X154190000Y-70748152D01*
X154190000Y-70748152D02*
X154142381Y-70843390D01*
X154142381Y-70843390D02*
X154094762Y-70891009D01*
X154094762Y-70891009D02*
X153999524Y-70938628D01*
X153999524Y-70938628D02*
X153618572Y-70938628D01*
X154618572Y-71414819D02*
X154618572Y-70414819D01*
X154618572Y-70414819D02*
X154951905Y-71129104D01*
X154951905Y-71129104D02*
X155285238Y-70414819D01*
X155285238Y-70414819D02*
X155285238Y-71414819D01*
X134859580Y-105666666D02*
X134907200Y-105714285D01*
X134907200Y-105714285D02*
X134954819Y-105857142D01*
X134954819Y-105857142D02*
X134954819Y-105952380D01*
X134954819Y-105952380D02*
X134907200Y-106095237D01*
X134907200Y-106095237D02*
X134811961Y-106190475D01*
X134811961Y-106190475D02*
X134716723Y-106238094D01*
X134716723Y-106238094D02*
X134526247Y-106285713D01*
X134526247Y-106285713D02*
X134383390Y-106285713D01*
X134383390Y-106285713D02*
X134192914Y-106238094D01*
X134192914Y-106238094D02*
X134097676Y-106190475D01*
X134097676Y-106190475D02*
X134002438Y-106095237D01*
X134002438Y-106095237D02*
X133954819Y-105952380D01*
X133954819Y-105952380D02*
X133954819Y-105857142D01*
X133954819Y-105857142D02*
X134002438Y-105714285D01*
X134002438Y-105714285D02*
X134050057Y-105666666D01*
X133954819Y-105333332D02*
X133954819Y-104714285D01*
X133954819Y-104714285D02*
X134335771Y-105047618D01*
X134335771Y-105047618D02*
X134335771Y-104904761D01*
X134335771Y-104904761D02*
X134383390Y-104809523D01*
X134383390Y-104809523D02*
X134431009Y-104761904D01*
X134431009Y-104761904D02*
X134526247Y-104714285D01*
X134526247Y-104714285D02*
X134764342Y-104714285D01*
X134764342Y-104714285D02*
X134859580Y-104761904D01*
X134859580Y-104761904D02*
X134907200Y-104809523D01*
X134907200Y-104809523D02*
X134954819Y-104904761D01*
X134954819Y-104904761D02*
X134954819Y-105190475D01*
X134954819Y-105190475D02*
X134907200Y-105285713D01*
X134907200Y-105285713D02*
X134859580Y-105333332D01*
X134859580Y-94666666D02*
X134907200Y-94714285D01*
X134907200Y-94714285D02*
X134954819Y-94857142D01*
X134954819Y-94857142D02*
X134954819Y-94952380D01*
X134954819Y-94952380D02*
X134907200Y-95095237D01*
X134907200Y-95095237D02*
X134811961Y-95190475D01*
X134811961Y-95190475D02*
X134716723Y-95238094D01*
X134716723Y-95238094D02*
X134526247Y-95285713D01*
X134526247Y-95285713D02*
X134383390Y-95285713D01*
X134383390Y-95285713D02*
X134192914Y-95238094D01*
X134192914Y-95238094D02*
X134097676Y-95190475D01*
X134097676Y-95190475D02*
X134002438Y-95095237D01*
X134002438Y-95095237D02*
X133954819Y-94952380D01*
X133954819Y-94952380D02*
X133954819Y-94857142D01*
X133954819Y-94857142D02*
X134002438Y-94714285D01*
X134002438Y-94714285D02*
X134050057Y-94666666D01*
X134050057Y-94285713D02*
X134002438Y-94238094D01*
X134002438Y-94238094D02*
X133954819Y-94142856D01*
X133954819Y-94142856D02*
X133954819Y-93904761D01*
X133954819Y-93904761D02*
X134002438Y-93809523D01*
X134002438Y-93809523D02*
X134050057Y-93761904D01*
X134050057Y-93761904D02*
X134145295Y-93714285D01*
X134145295Y-93714285D02*
X134240533Y-93714285D01*
X134240533Y-93714285D02*
X134383390Y-93761904D01*
X134383390Y-93761904D02*
X134954819Y-94333332D01*
X134954819Y-94333332D02*
X134954819Y-93714285D01*
X134859580Y-82666666D02*
X134907200Y-82714285D01*
X134907200Y-82714285D02*
X134954819Y-82857142D01*
X134954819Y-82857142D02*
X134954819Y-82952380D01*
X134954819Y-82952380D02*
X134907200Y-83095237D01*
X134907200Y-83095237D02*
X134811961Y-83190475D01*
X134811961Y-83190475D02*
X134716723Y-83238094D01*
X134716723Y-83238094D02*
X134526247Y-83285713D01*
X134526247Y-83285713D02*
X134383390Y-83285713D01*
X134383390Y-83285713D02*
X134192914Y-83238094D01*
X134192914Y-83238094D02*
X134097676Y-83190475D01*
X134097676Y-83190475D02*
X134002438Y-83095237D01*
X134002438Y-83095237D02*
X133954819Y-82952380D01*
X133954819Y-82952380D02*
X133954819Y-82857142D01*
X133954819Y-82857142D02*
X134002438Y-82714285D01*
X134002438Y-82714285D02*
X134050057Y-82666666D01*
X134954819Y-81714285D02*
X134954819Y-82285713D01*
X134954819Y-81999999D02*
X133954819Y-81999999D01*
X133954819Y-81999999D02*
X134097676Y-82095237D01*
X134097676Y-82095237D02*
X134192914Y-82190475D01*
X134192914Y-82190475D02*
X134240533Y-82285713D01*
X122905714Y-111269104D02*
X123381904Y-111269104D01*
X122810476Y-111554819D02*
X123143809Y-110554819D01*
X123143809Y-110554819D02*
X123477142Y-111554819D01*
X124334285Y-111554819D02*
X123762857Y-111554819D01*
X124048571Y-111554819D02*
X124048571Y-110554819D01*
X124048571Y-110554819D02*
X123953333Y-110697676D01*
X123953333Y-110697676D02*
X123858095Y-110792914D01*
X123858095Y-110792914D02*
X123762857Y-110840533D01*
X124881904Y-71005180D02*
X124881904Y-70195657D01*
X124881904Y-70195657D02*
X124834285Y-70100419D01*
X124834285Y-70100419D02*
X124786666Y-70052800D01*
X124786666Y-70052800D02*
X124691428Y-70005180D01*
X124691428Y-70005180D02*
X124500952Y-70005180D01*
X124500952Y-70005180D02*
X124405714Y-70052800D01*
X124405714Y-70052800D02*
X124358095Y-70100419D01*
X124358095Y-70100419D02*
X124310476Y-70195657D01*
X124310476Y-70195657D02*
X124310476Y-71005180D01*
X123881904Y-70052800D02*
X123739047Y-70005180D01*
X123739047Y-70005180D02*
X123500952Y-70005180D01*
X123500952Y-70005180D02*
X123405714Y-70052800D01*
X123405714Y-70052800D02*
X123358095Y-70100419D01*
X123358095Y-70100419D02*
X123310476Y-70195657D01*
X123310476Y-70195657D02*
X123310476Y-70290895D01*
X123310476Y-70290895D02*
X123358095Y-70386133D01*
X123358095Y-70386133D02*
X123405714Y-70433752D01*
X123405714Y-70433752D02*
X123500952Y-70481371D01*
X123500952Y-70481371D02*
X123691428Y-70528990D01*
X123691428Y-70528990D02*
X123786666Y-70576609D01*
X123786666Y-70576609D02*
X123834285Y-70624228D01*
X123834285Y-70624228D02*
X123881904Y-70719466D01*
X123881904Y-70719466D02*
X123881904Y-70814704D01*
X123881904Y-70814704D02*
X123834285Y-70909942D01*
X123834285Y-70909942D02*
X123786666Y-70957561D01*
X123786666Y-70957561D02*
X123691428Y-71005180D01*
X123691428Y-71005180D02*
X123453333Y-71005180D01*
X123453333Y-71005180D02*
X123310476Y-70957561D01*
X122548571Y-70528990D02*
X122405714Y-70481371D01*
X122405714Y-70481371D02*
X122358095Y-70433752D01*
X122358095Y-70433752D02*
X122310476Y-70338514D01*
X122310476Y-70338514D02*
X122310476Y-70195657D01*
X122310476Y-70195657D02*
X122358095Y-70100419D01*
X122358095Y-70100419D02*
X122405714Y-70052800D01*
X122405714Y-70052800D02*
X122500952Y-70005180D01*
X122500952Y-70005180D02*
X122881904Y-70005180D01*
X122881904Y-70005180D02*
X122881904Y-71005180D01*
X122881904Y-71005180D02*
X122548571Y-71005180D01*
X122548571Y-71005180D02*
X122453333Y-70957561D01*
X122453333Y-70957561D02*
X122405714Y-70909942D01*
X122405714Y-70909942D02*
X122358095Y-70814704D01*
X122358095Y-70814704D02*
X122358095Y-70719466D01*
X122358095Y-70719466D02*
X122405714Y-70624228D01*
X122405714Y-70624228D02*
X122453333Y-70576609D01*
X122453333Y-70576609D02*
X122548571Y-70528990D01*
X122548571Y-70528990D02*
X122881904Y-70528990D01*
D12*
X85190000Y-66430000D02*
X113190000Y-66430000D01*
X85190000Y-94430000D02*
X85190000Y-66430000D01*
X113190000Y-66430000D02*
X113190000Y-94430000D01*
X113190000Y-94430000D02*
X85190000Y-94430000D01*
X85190000Y-66430000D02*
X113190000Y-66430000D01*
X113190000Y-94430000D01*
X85190000Y-94430000D01*
X85190000Y-66430000D01*
X85000000Y-97000000D02*
X99000000Y-97000000D01*
X85000000Y-111000000D02*
X85000000Y-97000000D01*
X99000000Y-97000000D02*
X99000000Y-111000000D01*
X99000000Y-111000000D02*
X85000000Y-111000000D01*
X88500000Y-109000000D02*
G75*
G02*
X86500000Y-109000000I-1000000J0D01*
G01*
X86500000Y-109000000D02*
G75*
G02*
X88500000Y-109000000I1000000J0D01*
G01*
D14*
X149250000Y-105000000D02*
X149250000Y-106500000D01*
X150500000Y-109000000D02*
X155000000Y-109000000D01*
X155000000Y-102500000D02*
X150500000Y-102500000D01*
X156250000Y-106500000D02*
X156250000Y-105000000D01*
X148750000Y-93500000D02*
X148750000Y-95000000D01*
X150000000Y-97500000D02*
X154500000Y-97500000D01*
X154500000Y-91000000D02*
X150000000Y-91000000D01*
X155750000Y-95000000D02*
X155750000Y-93500000D01*
X148750000Y-81500000D02*
X148750000Y-83000000D01*
X150000000Y-85500000D02*
X154500000Y-85500000D01*
X154500000Y-79000000D02*
X150000000Y-79000000D01*
X155750000Y-83000000D02*
X155750000Y-81500000D01*
X138920000Y-65630000D02*
X145460000Y-65630000D01*
X138920000Y-65960000D02*
X138920000Y-65630000D01*
X138920000Y-68040000D02*
X138920000Y-68370000D01*
X138920000Y-68370000D02*
X145460000Y-68370000D01*
X145460000Y-65630000D02*
X145460000Y-65960000D01*
X145460000Y-68370000D02*
X145460000Y-68040000D01*
X145370000Y-103730000D02*
X145370000Y-110270000D01*
X145040000Y-103730000D02*
X145370000Y-103730000D01*
X142960000Y-103730000D02*
X142630000Y-103730000D01*
X142630000Y-103730000D02*
X142630000Y-110270000D01*
X145370000Y-110270000D02*
X145040000Y-110270000D01*
X142630000Y-110270000D02*
X142960000Y-110270000D01*
X145370000Y-91920000D02*
X145370000Y-98460000D01*
X145040000Y-91920000D02*
X145370000Y-91920000D01*
X142960000Y-91920000D02*
X142630000Y-91920000D01*
X142630000Y-91920000D02*
X142630000Y-98460000D01*
X145370000Y-98460000D02*
X145040000Y-98460000D01*
X142630000Y-98460000D02*
X142960000Y-98460000D01*
X145370000Y-79040000D02*
X145370000Y-85580000D01*
X145040000Y-79040000D02*
X145370000Y-79040000D01*
X142960000Y-79040000D02*
X142630000Y-79040000D01*
X142630000Y-79040000D02*
X142630000Y-85580000D01*
X145370000Y-85580000D02*
X145040000Y-85580000D01*
X142630000Y-85580000D02*
X142960000Y-85580000D01*
X155750000Y-68545000D02*
X155750000Y-65455000D01*
X155750000Y-68544830D02*
G75*
G02*
X150200000Y-66999538I-2560000J1544830D01*
G01*
X150200000Y-67000462D02*
G75*
G02*
X155750000Y-65455170I2990000J462D01*
G01*
X155690000Y-67000000D02*
G75*
G02*
X150690000Y-67000000I-2500000J0D01*
G01*
X150690000Y-67000000D02*
G75*
G02*
X155690000Y-67000000I2500000J0D01*
G01*
X135630000Y-107970000D02*
X135945000Y-107970000D01*
X135630000Y-107970000D02*
X135630000Y-103030000D01*
X138055000Y-107970000D02*
X138370000Y-107970000D01*
X138370000Y-107970000D02*
X138370000Y-103030000D01*
X135630000Y-103030000D02*
X135945000Y-103030000D01*
X138055000Y-103030000D02*
X138370000Y-103030000D01*
X135630000Y-96970000D02*
X135945000Y-96970000D01*
X135630000Y-96970000D02*
X135630000Y-92030000D01*
X138055000Y-96970000D02*
X138370000Y-96970000D01*
X138370000Y-96970000D02*
X138370000Y-92030000D01*
X135630000Y-92030000D02*
X135945000Y-92030000D01*
X138055000Y-92030000D02*
X138370000Y-92030000D01*
X135630000Y-84970000D02*
X135945000Y-84970000D01*
X135630000Y-84970000D02*
X135630000Y-80030000D01*
X138055000Y-84970000D02*
X138370000Y-84970000D01*
X138370000Y-84970000D02*
X138370000Y-80030000D01*
X135630000Y-80030000D02*
X135945000Y-80030000D01*
X138055000Y-80030000D02*
X138370000Y-80030000D01*
X132640000Y-109960000D02*
X132640000Y-107290000D01*
X132640000Y-104750000D02*
X132640000Y-66520000D01*
X132640000Y-66520000D02*
X127560000Y-66520000D01*
X129970000Y-107290000D02*
X132640000Y-107290000D01*
X129970000Y-104750000D02*
X132640000Y-104750000D01*
X129970000Y-104750000D02*
X129970000Y-107290000D01*
X129970000Y-104750000D02*
X129970000Y-69190000D01*
X129970000Y-69190000D02*
X132640000Y-69190000D01*
X127560000Y-74400000D02*
X119680000Y-74400000D01*
X127560000Y-63980000D02*
X127560000Y-74400000D01*
X119680000Y-74400000D02*
X119680000Y-63980000D01*
X119680000Y-63980000D02*
X127560000Y-63980000D01*
X117270000Y-107290000D02*
X117270000Y-69190000D01*
X117270000Y-107290000D02*
X114600000Y-107290000D01*
X117270000Y-69190000D02*
X114600000Y-69190000D01*
X114600000Y-109960000D02*
X132640000Y-109960000D01*
X114600000Y-66520000D02*
X119680000Y-66520000D01*
X114600000Y-66520000D02*
X114600000Y-109960000D01*
%LPC*%
D15*
X95380000Y-67730000D03*
D16*
X97920000Y-67730000D03*
X100460000Y-67730000D03*
X103000000Y-67730000D03*
D15*
X86920000Y-98920000D03*
D16*
X89460000Y-98920000D03*
X92000000Y-98920000D03*
X94540000Y-98920000D03*
X97080000Y-98920000D03*
D17*
X149500000Y-103500000D03*
X156000000Y-103500000D03*
X149500000Y-108000000D03*
X156000000Y-108000000D03*
X149000000Y-92000000D03*
X155500000Y-92000000D03*
X149000000Y-96500000D03*
X155500000Y-96500000D03*
X149000000Y-80000000D03*
X155500000Y-80000000D03*
X149000000Y-84500000D03*
X155500000Y-84500000D03*
D18*
X138380000Y-67000000D03*
D19*
X146000000Y-67000000D03*
D18*
X144000000Y-103190000D03*
D19*
X144000000Y-110810000D03*
D18*
X144000000Y-91380000D03*
D19*
X144000000Y-99000000D03*
D18*
X144000000Y-78500000D03*
D19*
X144000000Y-86120000D03*
D20*
X154460000Y-67000000D03*
D21*
X151920000Y-67000000D03*
D18*
X137000000Y-108000000D03*
X137000000Y-103000000D03*
X137000000Y-97000000D03*
X137000000Y-92000000D03*
X137000000Y-85000000D03*
X137000000Y-80000000D03*
D22*
X131240000Y-106020000D03*
D19*
X131240000Y-103480000D03*
X131240000Y-100940000D03*
X131240000Y-98400000D03*
X131240000Y-95860000D03*
X131240000Y-93320000D03*
X131240000Y-90780000D03*
X131240000Y-88240000D03*
X131240000Y-85700000D03*
X131240000Y-83160000D03*
X131240000Y-80620000D03*
X131240000Y-78080000D03*
X131240000Y-75540000D03*
X131240000Y-73000000D03*
X131240000Y-70460000D03*
X116000000Y-70460000D03*
X116000000Y-73000000D03*
X116000000Y-75540000D03*
X116000000Y-78080000D03*
X116000000Y-80620000D03*
X116000000Y-83160000D03*
X116000000Y-85700000D03*
X116000000Y-88240000D03*
X116000000Y-90780000D03*
X116000000Y-93320000D03*
X116000000Y-95860000D03*
X116000000Y-98400000D03*
X116000000Y-100940000D03*
X116000000Y-103480000D03*
X116000000Y-106020000D03*
%LPD*%
M02*
