G04 #@! TF.GenerationSoftware,KiCad,Pcbnew,8.0.6*
G04 #@! TF.CreationDate,2024-11-23T14:24:09+05:30*
G04 #@! TF.ProjectId,p1,70312e6b-6963-4616-945f-706362585858,rev?*
G04 #@! TF.SameCoordinates,Original*
G04 #@! TF.FileFunction,Copper,L1,Top*
G04 #@! TF.FilePolarity,Positive*
%FSLAX46Y46*%
G04 Gerber Fmt 4.6, Leading zero omitted, Abs format (unit mm)*
G04 Created by KiCad (PCBNEW 8.0.6) date 2024-11-23 14:24:09*
%MOMM*%
%LPD*%
G01*
G04 APERTURE LIST*
G04 #@! TA.AperFunction,ComponentPad*
%ADD10R,1.524000X1.524000*%
G04 #@! TD*
G04 #@! TA.AperFunction,ComponentPad*
%ADD11C,1.524000*%
G04 #@! TD*
G04 #@! TA.AperFunction,ComponentPad*
%ADD12C,2.000000*%
G04 #@! TD*
G04 #@! TA.AperFunction,ComponentPad*
%ADD13C,1.600000*%
G04 #@! TD*
G04 #@! TA.AperFunction,ComponentPad*
%ADD14O,1.600000X1.600000*%
G04 #@! TD*
G04 #@! TA.AperFunction,ComponentPad*
%ADD15R,1.800000X1.800000*%
G04 #@! TD*
G04 #@! TA.AperFunction,ComponentPad*
%ADD16C,1.800000*%
G04 #@! TD*
G04 #@! TA.AperFunction,ComponentPad*
%ADD17R,1.600000X1.600000*%
G04 #@! TD*
G04 #@! TA.AperFunction,ViaPad*
%ADD18C,0.600000*%
G04 #@! TD*
G04 #@! TA.AperFunction,Conductor*
%ADD19C,0.400000*%
G04 #@! TD*
G04 #@! TA.AperFunction,Conductor*
%ADD20C,0.200000*%
G04 #@! TD*
G04 APERTURE END LIST*
D10*
X95380000Y-67730000D03*
D11*
X97920000Y-67730000D03*
X100460000Y-67730000D03*
X103000000Y-67730000D03*
D10*
X86920000Y-98920000D03*
D11*
X89460000Y-98920000D03*
X92000000Y-98920000D03*
X94540000Y-98920000D03*
X97080000Y-98920000D03*
D12*
X149500000Y-103500000D03*
X156000000Y-103500000D03*
X149500000Y-108000000D03*
X156000000Y-108000000D03*
X149000000Y-92000000D03*
X155500000Y-92000000D03*
X149000000Y-96500000D03*
X155500000Y-96500000D03*
X149000000Y-80000000D03*
X155500000Y-80000000D03*
X149000000Y-84500000D03*
X155500000Y-84500000D03*
D13*
X138380000Y-67000000D03*
D14*
X146000000Y-67000000D03*
D13*
X144000000Y-103190000D03*
D14*
X144000000Y-110810000D03*
D13*
X144000000Y-91380000D03*
D14*
X144000000Y-99000000D03*
D13*
X144000000Y-78500000D03*
D14*
X144000000Y-86120000D03*
D15*
X154460000Y-67000000D03*
D16*
X151920000Y-67000000D03*
D13*
X137000000Y-108000000D03*
X137000000Y-103000000D03*
X137000000Y-97000000D03*
X137000000Y-92000000D03*
X137000000Y-85000000D03*
X137000000Y-80000000D03*
D17*
X131240000Y-106020000D03*
D14*
X131240000Y-103480000D03*
X131240000Y-100940000D03*
X131240000Y-98400000D03*
X131240000Y-95860000D03*
X131240000Y-93320000D03*
X131240000Y-90780000D03*
X131240000Y-88240000D03*
X131240000Y-85700000D03*
X131240000Y-83160000D03*
X131240000Y-80620000D03*
X131240000Y-78080000D03*
X131240000Y-75540000D03*
X131240000Y-73000000D03*
X131240000Y-70460000D03*
X116000000Y-70460000D03*
X116000000Y-73000000D03*
X116000000Y-75540000D03*
X116000000Y-78080000D03*
X116000000Y-80620000D03*
X116000000Y-83160000D03*
X116000000Y-85700000D03*
X116000000Y-88240000D03*
X116000000Y-90780000D03*
X116000000Y-93320000D03*
X116000000Y-95860000D03*
X116000000Y-98400000D03*
X116000000Y-100940000D03*
X116000000Y-103480000D03*
X116000000Y-106020000D03*
D18*
X100900000Y-90300000D03*
X104100000Y-87700000D03*
X134300000Y-92400000D03*
X135100000Y-96600000D03*
D19*
X99200000Y-90300000D02*
X92000000Y-97500000D01*
X100900000Y-90300000D02*
X99200000Y-90300000D01*
X92000000Y-97500000D02*
X92000000Y-98920000D01*
X100680000Y-87700000D02*
X89460000Y-98920000D01*
X104100000Y-87700000D02*
X100680000Y-87700000D01*
X101000000Y-90300000D02*
X100900000Y-90300000D01*
X101480000Y-90780000D02*
X101000000Y-90300000D01*
X116000000Y-90780000D02*
X101480000Y-90780000D01*
X104640000Y-88240000D02*
X104100000Y-87700000D01*
X116000000Y-88240000D02*
X104640000Y-88240000D01*
X97600000Y-98400000D02*
X97080000Y-98920000D01*
X116000000Y-98400000D02*
X97600000Y-98400000D01*
D20*
X132680000Y-90780000D02*
X134300000Y-92400000D01*
X131240000Y-90780000D02*
X132680000Y-90780000D01*
X131980000Y-96600000D02*
X135100000Y-96600000D01*
X130213000Y-94833000D02*
X131980000Y-96600000D01*
X131240000Y-95860000D02*
X130213000Y-94833000D01*
X133320000Y-93320000D02*
X137000000Y-97000000D01*
X131240000Y-93320000D02*
X133320000Y-93320000D01*
X142777000Y-101967000D02*
X119567000Y-101967000D01*
X119567000Y-101967000D02*
X116000000Y-98400000D01*
X144000000Y-103190000D02*
X142777000Y-101967000D01*
X149500000Y-108000000D02*
X156000000Y-108000000D01*
X146690000Y-110810000D02*
X149500000Y-108000000D01*
X144000000Y-110810000D02*
X146690000Y-110810000D01*
X141190000Y-108000000D02*
X144000000Y-110810000D01*
X137000000Y-108000000D02*
X141190000Y-108000000D01*
X149000000Y-96500000D02*
X155500000Y-96500000D01*
X146600000Y-98900000D02*
X149000000Y-96500000D01*
X144100000Y-98900000D02*
X146600000Y-98900000D01*
X144000000Y-99000000D02*
X144100000Y-98900000D01*
X142000000Y-97000000D02*
X144000000Y-99000000D01*
X137000000Y-97000000D02*
X142000000Y-97000000D01*
X149000000Y-84500000D02*
X155500000Y-84500000D01*
X147380000Y-86120000D02*
X149000000Y-84500000D01*
X144000000Y-86120000D02*
X147380000Y-86120000D01*
X137000000Y-85000000D02*
X142880000Y-85000000D01*
X142880000Y-85000000D02*
X144000000Y-86120000D01*
X146000000Y-67000000D02*
X151920000Y-67000000D01*
X134920000Y-70460000D02*
X138380000Y-67000000D01*
X131240000Y-70460000D02*
X134920000Y-70460000D01*
M02*
