%TF.GenerationSoftware,KiCad,Pcbnew,8.0.6*%
%TF.CreationDate,2024-11-23T14:23:01+05:30*%
%TF.ProjectId,p1,70312e6b-6963-4616-945f-706362585858,rev?*%
%TF.SameCoordinates,Original*%
%TF.FileFunction,Drillmap*%
%TF.FilePolarity,Positive*%
%FSLAX45Y45*%
G04 Gerber Fmt 4.5, Leading zero omitted, Abs format (unit mm)*
G04 Created by KiCad (PCBNEW 8.0.6) date 2024-11-23 14:23:01*
%MOMM*%
%LPD*%
G01*
G04 APERTURE LIST*
%ADD10C,0.038100*%
%ADD11C,0.200000*%
G04 APERTURE END LIST*
D10*
X8300000Y-6100000D02*
X8300000Y-6200000D01*
X16100000Y-6100000D02*
X8300000Y-6100000D01*
X16100000Y-11500000D02*
X16100000Y-6100000D01*
X8300000Y-11500000D02*
X16100000Y-11500000D01*
X8300000Y-6200000D02*
X8300000Y-11500000D01*
D11*
X8558872Y-11813389D02*
X8558872Y-11613389D01*
X8558872Y-11613389D02*
X8606491Y-11613389D01*
X8606491Y-11613389D02*
X8635062Y-11622913D01*
X8635062Y-11622913D02*
X8654110Y-11641960D01*
X8654110Y-11641960D02*
X8663634Y-11661008D01*
X8663634Y-11661008D02*
X8673158Y-11699103D01*
X8673158Y-11699103D02*
X8673158Y-11727674D01*
X8673158Y-11727674D02*
X8663634Y-11765770D01*
X8663634Y-11765770D02*
X8654110Y-11784817D01*
X8654110Y-11784817D02*
X8635062Y-11803865D01*
X8635062Y-11803865D02*
X8606491Y-11813389D01*
X8606491Y-11813389D02*
X8558872Y-11813389D01*
X8758872Y-11813389D02*
X8758872Y-11680055D01*
X8758872Y-11718151D02*
X8768396Y-11699103D01*
X8768396Y-11699103D02*
X8777919Y-11689579D01*
X8777919Y-11689579D02*
X8796967Y-11680055D01*
X8796967Y-11680055D02*
X8816015Y-11680055D01*
X8882681Y-11813389D02*
X8882681Y-11680055D01*
X8882681Y-11613389D02*
X8873158Y-11622913D01*
X8873158Y-11622913D02*
X8882681Y-11632436D01*
X8882681Y-11632436D02*
X8892205Y-11622913D01*
X8892205Y-11622913D02*
X8882681Y-11613389D01*
X8882681Y-11613389D02*
X8882681Y-11632436D01*
X9006491Y-11813389D02*
X8987443Y-11803865D01*
X8987443Y-11803865D02*
X8977919Y-11784817D01*
X8977919Y-11784817D02*
X8977919Y-11613389D01*
X9111253Y-11813389D02*
X9092205Y-11803865D01*
X9092205Y-11803865D02*
X9082681Y-11784817D01*
X9082681Y-11784817D02*
X9082681Y-11613389D01*
X9339824Y-11813389D02*
X9339824Y-11613389D01*
X9339824Y-11613389D02*
X9406491Y-11756246D01*
X9406491Y-11756246D02*
X9473158Y-11613389D01*
X9473158Y-11613389D02*
X9473158Y-11813389D01*
X9654110Y-11813389D02*
X9654110Y-11708627D01*
X9654110Y-11708627D02*
X9644586Y-11689579D01*
X9644586Y-11689579D02*
X9625539Y-11680055D01*
X9625539Y-11680055D02*
X9587443Y-11680055D01*
X9587443Y-11680055D02*
X9568396Y-11689579D01*
X9654110Y-11803865D02*
X9635062Y-11813389D01*
X9635062Y-11813389D02*
X9587443Y-11813389D01*
X9587443Y-11813389D02*
X9568396Y-11803865D01*
X9568396Y-11803865D02*
X9558872Y-11784817D01*
X9558872Y-11784817D02*
X9558872Y-11765770D01*
X9558872Y-11765770D02*
X9568396Y-11746722D01*
X9568396Y-11746722D02*
X9587443Y-11737198D01*
X9587443Y-11737198D02*
X9635062Y-11737198D01*
X9635062Y-11737198D02*
X9654110Y-11727674D01*
X9749348Y-11680055D02*
X9749348Y-11880055D01*
X9749348Y-11689579D02*
X9768396Y-11680055D01*
X9768396Y-11680055D02*
X9806491Y-11680055D01*
X9806491Y-11680055D02*
X9825539Y-11689579D01*
X9825539Y-11689579D02*
X9835062Y-11699103D01*
X9835062Y-11699103D02*
X9844586Y-11718151D01*
X9844586Y-11718151D02*
X9844586Y-11775293D01*
X9844586Y-11775293D02*
X9835062Y-11794341D01*
X9835062Y-11794341D02*
X9825539Y-11803865D01*
X9825539Y-11803865D02*
X9806491Y-11813389D01*
X9806491Y-11813389D02*
X9768396Y-11813389D01*
X9768396Y-11813389D02*
X9749348Y-11803865D01*
X9930300Y-11794341D02*
X9939824Y-11803865D01*
X9939824Y-11803865D02*
X9930300Y-11813389D01*
X9930300Y-11813389D02*
X9920777Y-11803865D01*
X9920777Y-11803865D02*
X9930300Y-11794341D01*
X9930300Y-11794341D02*
X9930300Y-11813389D01*
X9930300Y-11689579D02*
X9939824Y-11699103D01*
X9939824Y-11699103D02*
X9930300Y-11708627D01*
X9930300Y-11708627D02*
X9920777Y-11699103D01*
X9920777Y-11699103D02*
X9930300Y-11689579D01*
X9930300Y-11689579D02*
X9930300Y-11708627D01*
M02*
