M48
; DRILL file {KiCad 8.0.6} date 2024-11-23T14:22:58+0530
; FORMAT={-:-/ absolute / metric / decimal}
; #@! TF.CreationDate,2024-11-23T14:22:58+05:30
; #@! TF.GenerationSoftware,Kicad,Pcbnew,8.0.6
; #@! TF.FileFunction,Plated,1,2,PTH
FMAT,2
METRIC
; #@! TA.AperFunction,Plated,PTH,ViaDrill
T1C0.300
; #@! TA.AperFunction,Plated,PTH,ComponentDrill
T2C0.762
; #@! TA.AperFunction,Plated,PTH,ComponentDrill
T3C0.800
; #@! TA.AperFunction,Plated,PTH,ComponentDrill
T4C0.900
; #@! TA.AperFunction,Plated,PTH,ComponentDrill
T5C1.000
; #@! TA.AperFunction,Plated,PTH,ComponentDrill
T6C1.100
%
G90
G05
T1
X100.9Y-90.3
X104.1Y-87.7
X134.3Y-92.4
X135.1Y-96.6
T2
X86.92Y-98.92
X89.46Y-98.92
X92.0Y-98.92
X94.54Y-98.92
X95.38Y-67.73
X97.08Y-98.92
X97.92Y-67.73
X100.46Y-67.73
X103.0Y-67.73
T3
X137.0Y-80.0
X137.0Y-85.0
X137.0Y-92.0
X137.0Y-97.0
X137.0Y-103.0
X137.0Y-108.0
X138.38Y-67.0
X144.0Y-78.5
X144.0Y-86.12
X144.0Y-91.38
X144.0Y-99.0
X144.0Y-103.19
X144.0Y-110.81
X146.0Y-67.0
T4
X151.92Y-67.0
X154.46Y-67.0
T5
X116.0Y-70.46
X116.0Y-73.0
X116.0Y-75.54
X116.0Y-78.08
X116.0Y-80.62
X116.0Y-83.16
X116.0Y-85.7
X116.0Y-88.24
X116.0Y-90.78
X116.0Y-93.32
X116.0Y-95.86
X116.0Y-98.4
X116.0Y-100.94
X116.0Y-103.48
X116.0Y-106.02
X131.24Y-70.46
X131.24Y-73.0
X131.24Y-75.54
X131.24Y-78.08
X131.24Y-80.62
X131.24Y-83.16
X131.24Y-85.7
X131.24Y-88.24
X131.24Y-90.78
X131.24Y-93.32
X131.24Y-95.86
X131.24Y-98.4
X131.24Y-100.94
X131.24Y-103.48
X131.24Y-106.02
T6
X149.0Y-80.0
X149.0Y-84.5
X149.0Y-92.0
X149.0Y-96.5
X149.5Y-103.5
X149.5Y-108.0
X155.5Y-80.0
X155.5Y-84.5
X155.5Y-92.0
X155.5Y-96.5
X156.0Y-103.5
X156.0Y-108.0
M30
