%TF.GenerationSoftware,KiCad,Pcbnew,8.0.6*%
%TF.CreationDate,2024-11-23T14:23:01+05:30*%
%TF.ProjectId,p1,70312e6b-6963-4616-945f-706362585858,rev?*%
%TF.SameCoordinates,Original*%
%TF.FileFunction,Drillmap*%
%TF.FilePolarity,Positive*%
%FSLAX45Y45*%
G04 Gerber Fmt 4.5, Leading zero omitted, Abs format (unit mm)*
G04 Created by KiCad (PCBNEW 8.0.6) date 2024-11-23 14:23:01*
%MOMM*%
%LPD*%
G01*
G04 APERTURE LIST*
%ADD10C,0.038100*%
%ADD11C,0.200000*%
%ADD12C,0.100000*%
%ADD13C,0.110000*%
G04 APERTURE END LIST*
D10*
X8300000Y-6100000D02*
X8300000Y-6200000D01*
X16100000Y-6100000D02*
X8300000Y-6100000D01*
X16100000Y-11500000D02*
X16100000Y-6100000D01*
X8300000Y-11500000D02*
X16100000Y-11500000D01*
X8300000Y-6200000D02*
X8300000Y-11500000D01*
D11*
D12*
X10075000Y-9015000D02*
X10105000Y-9045000D01*
X10105000Y-9015000D02*
X10075000Y-9045000D01*
X10395000Y-8755000D02*
X10425000Y-8785000D01*
X10425000Y-8755000D02*
X10395000Y-8785000D01*
X13415000Y-9225000D02*
X13445000Y-9255000D01*
X13445000Y-9225000D02*
X13415000Y-9255000D01*
X13495000Y-9645000D02*
X13525000Y-9675000D01*
X13525000Y-9645000D02*
X13495000Y-9675000D01*
X8730100Y-9892000D02*
G75*
G02*
X8653900Y-9892000I-38100J0D01*
G01*
X8653900Y-9892000D02*
G75*
G02*
X8730100Y-9892000I38100J0D01*
G01*
X8984100Y-9892000D02*
G75*
G02*
X8907900Y-9892000I-38100J0D01*
G01*
X8907900Y-9892000D02*
G75*
G02*
X8984100Y-9892000I38100J0D01*
G01*
X9238100Y-9892000D02*
G75*
G02*
X9161900Y-9892000I-38100J0D01*
G01*
X9161900Y-9892000D02*
G75*
G02*
X9238100Y-9892000I38100J0D01*
G01*
X9492100Y-9892000D02*
G75*
G02*
X9415900Y-9892000I-38100J0D01*
G01*
X9415900Y-9892000D02*
G75*
G02*
X9492100Y-9892000I38100J0D01*
G01*
X9576100Y-6773000D02*
G75*
G02*
X9499900Y-6773000I-38100J0D01*
G01*
X9499900Y-6773000D02*
G75*
G02*
X9576100Y-6773000I38100J0D01*
G01*
X9746100Y-9892000D02*
G75*
G02*
X9669900Y-9892000I-38100J0D01*
G01*
X9669900Y-9892000D02*
G75*
G02*
X9746100Y-9892000I38100J0D01*
G01*
X9830100Y-6773000D02*
G75*
G02*
X9753900Y-6773000I-38100J0D01*
G01*
X9753900Y-6773000D02*
G75*
G02*
X9830100Y-6773000I38100J0D01*
G01*
X10084100Y-6773000D02*
G75*
G02*
X10007900Y-6773000I-38100J0D01*
G01*
X10007900Y-6773000D02*
G75*
G02*
X10084100Y-6773000I38100J0D01*
G01*
X10338100Y-6773000D02*
G75*
G02*
X10261900Y-6773000I-38100J0D01*
G01*
X10261900Y-6773000D02*
G75*
G02*
X10338100Y-6773000I38100J0D01*
G01*
X13700000Y-7960000D02*
X13700000Y-8040000D01*
X13660000Y-8000000D02*
X13740000Y-8000000D01*
X13700000Y-8460000D02*
X13700000Y-8540000D01*
X13660000Y-8500000D02*
X13740000Y-8500000D01*
X13700000Y-9160000D02*
X13700000Y-9240000D01*
X13660000Y-9200000D02*
X13740000Y-9200000D01*
X13700000Y-9660000D02*
X13700000Y-9740000D01*
X13660000Y-9700000D02*
X13740000Y-9700000D01*
X13700000Y-10260000D02*
X13700000Y-10340000D01*
X13660000Y-10300000D02*
X13740000Y-10300000D01*
X13700000Y-10760000D02*
X13700000Y-10840000D01*
X13660000Y-10800000D02*
X13740000Y-10800000D01*
X13838000Y-6660000D02*
X13838000Y-6740000D01*
X13798000Y-6700000D02*
X13878000Y-6700000D01*
X14400000Y-7810000D02*
X14400000Y-7890000D01*
X14360000Y-7850000D02*
X14440000Y-7850000D01*
X14400000Y-8572000D02*
X14400000Y-8652000D01*
X14360000Y-8612000D02*
X14440000Y-8612000D01*
X14400000Y-9098000D02*
X14400000Y-9178000D01*
X14360000Y-9138000D02*
X14440000Y-9138000D01*
X14400000Y-9860000D02*
X14400000Y-9940000D01*
X14360000Y-9900000D02*
X14440000Y-9900000D01*
X14400000Y-10279000D02*
X14400000Y-10359000D01*
X14360000Y-10319000D02*
X14440000Y-10319000D01*
X14400000Y-11041000D02*
X14400000Y-11121000D01*
X14360000Y-11081000D02*
X14440000Y-11081000D01*
X14600000Y-6660000D02*
X14600000Y-6740000D01*
X14560000Y-6700000D02*
X14640000Y-6700000D01*
X15223820Y-6731820D02*
X15223820Y-6668180D01*
X15160180Y-6668180D01*
X15160180Y-6731820D01*
X15223820Y-6731820D01*
X15477820Y-6731820D02*
X15477820Y-6668180D01*
X15414180Y-6668180D01*
X15414180Y-6731820D01*
X15477820Y-6731820D01*
X11600000Y-7096000D02*
X11650000Y-7046000D01*
X11600000Y-6996000D01*
X11550000Y-7046000D01*
X11600000Y-7096000D01*
X11600000Y-7350000D02*
X11650000Y-7300000D01*
X11600000Y-7250000D01*
X11550000Y-7300000D01*
X11600000Y-7350000D01*
X11600000Y-7604000D02*
X11650000Y-7554000D01*
X11600000Y-7504000D01*
X11550000Y-7554000D01*
X11600000Y-7604000D01*
X11600000Y-7858000D02*
X11650000Y-7808000D01*
X11600000Y-7758000D01*
X11550000Y-7808000D01*
X11600000Y-7858000D01*
X11600000Y-8112000D02*
X11650000Y-8062000D01*
X11600000Y-8012000D01*
X11550000Y-8062000D01*
X11600000Y-8112000D01*
X11600000Y-8366000D02*
X11650000Y-8316000D01*
X11600000Y-8266000D01*
X11550000Y-8316000D01*
X11600000Y-8366000D01*
X11600000Y-8620000D02*
X11650000Y-8570000D01*
X11600000Y-8520000D01*
X11550000Y-8570000D01*
X11600000Y-8620000D01*
X11600000Y-8874000D02*
X11650000Y-8824000D01*
X11600000Y-8774000D01*
X11550000Y-8824000D01*
X11600000Y-8874000D01*
X11600000Y-9128000D02*
X11650000Y-9078000D01*
X11600000Y-9028000D01*
X11550000Y-9078000D01*
X11600000Y-9128000D01*
X11600000Y-9382000D02*
X11650000Y-9332000D01*
X11600000Y-9282000D01*
X11550000Y-9332000D01*
X11600000Y-9382000D01*
X11600000Y-9636000D02*
X11650000Y-9586000D01*
X11600000Y-9536000D01*
X11550000Y-9586000D01*
X11600000Y-9636000D01*
X11600000Y-9890000D02*
X11650000Y-9840000D01*
X11600000Y-9790000D01*
X11550000Y-9840000D01*
X11600000Y-9890000D01*
X11600000Y-10144000D02*
X11650000Y-10094000D01*
X11600000Y-10044000D01*
X11550000Y-10094000D01*
X11600000Y-10144000D01*
X11600000Y-10398000D02*
X11650000Y-10348000D01*
X11600000Y-10298000D01*
X11550000Y-10348000D01*
X11600000Y-10398000D01*
X11600000Y-10652000D02*
X11650000Y-10602000D01*
X11600000Y-10552000D01*
X11550000Y-10602000D01*
X11600000Y-10652000D01*
X13124000Y-7096000D02*
X13174000Y-7046000D01*
X13124000Y-6996000D01*
X13074000Y-7046000D01*
X13124000Y-7096000D01*
X13124000Y-7350000D02*
X13174000Y-7300000D01*
X13124000Y-7250000D01*
X13074000Y-7300000D01*
X13124000Y-7350000D01*
X13124000Y-7604000D02*
X13174000Y-7554000D01*
X13124000Y-7504000D01*
X13074000Y-7554000D01*
X13124000Y-7604000D01*
X13124000Y-7858000D02*
X13174000Y-7808000D01*
X13124000Y-7758000D01*
X13074000Y-7808000D01*
X13124000Y-7858000D01*
X13124000Y-8112000D02*
X13174000Y-8062000D01*
X13124000Y-8012000D01*
X13074000Y-8062000D01*
X13124000Y-8112000D01*
X13124000Y-8366000D02*
X13174000Y-8316000D01*
X13124000Y-8266000D01*
X13074000Y-8316000D01*
X13124000Y-8366000D01*
X13124000Y-8620000D02*
X13174000Y-8570000D01*
X13124000Y-8520000D01*
X13074000Y-8570000D01*
X13124000Y-8620000D01*
X13124000Y-8874000D02*
X13174000Y-8824000D01*
X13124000Y-8774000D01*
X13074000Y-8824000D01*
X13124000Y-8874000D01*
X13124000Y-9128000D02*
X13174000Y-9078000D01*
X13124000Y-9028000D01*
X13074000Y-9078000D01*
X13124000Y-9128000D01*
X13124000Y-9382000D02*
X13174000Y-9332000D01*
X13124000Y-9282000D01*
X13074000Y-9332000D01*
X13124000Y-9382000D01*
X13124000Y-9636000D02*
X13174000Y-9586000D01*
X13124000Y-9536000D01*
X13074000Y-9586000D01*
X13124000Y-9636000D01*
X13124000Y-9890000D02*
X13174000Y-9840000D01*
X13124000Y-9790000D01*
X13074000Y-9840000D01*
X13124000Y-9890000D01*
X13124000Y-10144000D02*
X13174000Y-10094000D01*
X13124000Y-10044000D01*
X13074000Y-10094000D01*
X13124000Y-10144000D01*
X13124000Y-10398000D02*
X13174000Y-10348000D01*
X13124000Y-10298000D01*
X13074000Y-10348000D01*
X13124000Y-10398000D01*
X13124000Y-10652000D02*
X13174000Y-10602000D01*
X13124000Y-10552000D01*
X13074000Y-10602000D01*
X13124000Y-10652000D01*
D13*
X14845000Y-7945000D02*
X14955000Y-8055000D01*
X14955000Y-7945000D02*
X14845000Y-8055000D01*
X14955000Y-8000000D02*
G75*
G02*
X14845000Y-8000000I-55000J0D01*
G01*
X14845000Y-8000000D02*
G75*
G02*
X14955000Y-8000000I55000J0D01*
G01*
X14845000Y-8395000D02*
X14955000Y-8505000D01*
X14955000Y-8395000D02*
X14845000Y-8505000D01*
X14955000Y-8450000D02*
G75*
G02*
X14845000Y-8450000I-55000J0D01*
G01*
X14845000Y-8450000D02*
G75*
G02*
X14955000Y-8450000I55000J0D01*
G01*
X14845000Y-9145000D02*
X14955000Y-9255000D01*
X14955000Y-9145000D02*
X14845000Y-9255000D01*
X14955000Y-9200000D02*
G75*
G02*
X14845000Y-9200000I-55000J0D01*
G01*
X14845000Y-9200000D02*
G75*
G02*
X14955000Y-9200000I55000J0D01*
G01*
X14845000Y-9595000D02*
X14955000Y-9705000D01*
X14955000Y-9595000D02*
X14845000Y-9705000D01*
X14955000Y-9650000D02*
G75*
G02*
X14845000Y-9650000I-55000J0D01*
G01*
X14845000Y-9650000D02*
G75*
G02*
X14955000Y-9650000I55000J0D01*
G01*
X14895000Y-10295000D02*
X15005000Y-10405000D01*
X15005000Y-10295000D02*
X14895000Y-10405000D01*
X15005000Y-10350000D02*
G75*
G02*
X14895000Y-10350000I-55000J0D01*
G01*
X14895000Y-10350000D02*
G75*
G02*
X15005000Y-10350000I55000J0D01*
G01*
X14895000Y-10745000D02*
X15005000Y-10855000D01*
X15005000Y-10745000D02*
X14895000Y-10855000D01*
X15005000Y-10800000D02*
G75*
G02*
X14895000Y-10800000I-55000J0D01*
G01*
X14895000Y-10800000D02*
G75*
G02*
X15005000Y-10800000I55000J0D01*
G01*
X15495000Y-7945000D02*
X15605000Y-8055000D01*
X15605000Y-7945000D02*
X15495000Y-8055000D01*
X15605000Y-8000000D02*
G75*
G02*
X15495000Y-8000000I-55000J0D01*
G01*
X15495000Y-8000000D02*
G75*
G02*
X15605000Y-8000000I55000J0D01*
G01*
X15495000Y-8395000D02*
X15605000Y-8505000D01*
X15605000Y-8395000D02*
X15495000Y-8505000D01*
X15605000Y-8450000D02*
G75*
G02*
X15495000Y-8450000I-55000J0D01*
G01*
X15495000Y-8450000D02*
G75*
G02*
X15605000Y-8450000I55000J0D01*
G01*
X15495000Y-9145000D02*
X15605000Y-9255000D01*
X15605000Y-9145000D02*
X15495000Y-9255000D01*
X15605000Y-9200000D02*
G75*
G02*
X15495000Y-9200000I-55000J0D01*
G01*
X15495000Y-9200000D02*
G75*
G02*
X15605000Y-9200000I55000J0D01*
G01*
X15495000Y-9595000D02*
X15605000Y-9705000D01*
X15605000Y-9595000D02*
X15495000Y-9705000D01*
X15605000Y-9650000D02*
G75*
G02*
X15495000Y-9650000I-55000J0D01*
G01*
X15495000Y-9650000D02*
G75*
G02*
X15605000Y-9650000I55000J0D01*
G01*
X15545000Y-10295000D02*
X15655000Y-10405000D01*
X15655000Y-10295000D02*
X15545000Y-10405000D01*
X15655000Y-10350000D02*
G75*
G02*
X15545000Y-10350000I-55000J0D01*
G01*
X15545000Y-10350000D02*
G75*
G02*
X15655000Y-10350000I55000J0D01*
G01*
X15545000Y-10745000D02*
X15655000Y-10855000D01*
X15655000Y-10745000D02*
X15545000Y-10855000D01*
X15655000Y-10800000D02*
G75*
G02*
X15545000Y-10800000I-55000J0D01*
G01*
X15545000Y-10800000D02*
G75*
G02*
X15655000Y-10800000I55000J0D01*
G01*
D11*
X8558872Y-11813389D02*
X8558872Y-11613389D01*
X8558872Y-11613389D02*
X8606491Y-11613389D01*
X8606491Y-11613389D02*
X8635062Y-11622913D01*
X8635062Y-11622913D02*
X8654110Y-11641960D01*
X8654110Y-11641960D02*
X8663634Y-11661008D01*
X8663634Y-11661008D02*
X8673158Y-11699103D01*
X8673158Y-11699103D02*
X8673158Y-11727674D01*
X8673158Y-11727674D02*
X8663634Y-11765770D01*
X8663634Y-11765770D02*
X8654110Y-11784817D01*
X8654110Y-11784817D02*
X8635062Y-11803865D01*
X8635062Y-11803865D02*
X8606491Y-11813389D01*
X8606491Y-11813389D02*
X8558872Y-11813389D01*
X8758872Y-11813389D02*
X8758872Y-11680055D01*
X8758872Y-11718151D02*
X8768396Y-11699103D01*
X8768396Y-11699103D02*
X8777919Y-11689579D01*
X8777919Y-11689579D02*
X8796967Y-11680055D01*
X8796967Y-11680055D02*
X8816015Y-11680055D01*
X8882681Y-11813389D02*
X8882681Y-11680055D01*
X8882681Y-11613389D02*
X8873158Y-11622913D01*
X8873158Y-11622913D02*
X8882681Y-11632436D01*
X8882681Y-11632436D02*
X8892205Y-11622913D01*
X8892205Y-11622913D02*
X8882681Y-11613389D01*
X8882681Y-11613389D02*
X8882681Y-11632436D01*
X9006491Y-11813389D02*
X8987443Y-11803865D01*
X8987443Y-11803865D02*
X8977919Y-11784817D01*
X8977919Y-11784817D02*
X8977919Y-11613389D01*
X9111253Y-11813389D02*
X9092205Y-11803865D01*
X9092205Y-11803865D02*
X9082681Y-11784817D01*
X9082681Y-11784817D02*
X9082681Y-11613389D01*
X9339824Y-11813389D02*
X9339824Y-11613389D01*
X9339824Y-11613389D02*
X9406491Y-11756246D01*
X9406491Y-11756246D02*
X9473158Y-11613389D01*
X9473158Y-11613389D02*
X9473158Y-11813389D01*
X9654110Y-11813389D02*
X9654110Y-11708627D01*
X9654110Y-11708627D02*
X9644586Y-11689579D01*
X9644586Y-11689579D02*
X9625539Y-11680055D01*
X9625539Y-11680055D02*
X9587443Y-11680055D01*
X9587443Y-11680055D02*
X9568396Y-11689579D01*
X9654110Y-11803865D02*
X9635062Y-11813389D01*
X9635062Y-11813389D02*
X9587443Y-11813389D01*
X9587443Y-11813389D02*
X9568396Y-11803865D01*
X9568396Y-11803865D02*
X9558872Y-11784817D01*
X9558872Y-11784817D02*
X9558872Y-11765770D01*
X9558872Y-11765770D02*
X9568396Y-11746722D01*
X9568396Y-11746722D02*
X9587443Y-11737198D01*
X9587443Y-11737198D02*
X9635062Y-11737198D01*
X9635062Y-11737198D02*
X9654110Y-11727674D01*
X9749348Y-11680055D02*
X9749348Y-11880055D01*
X9749348Y-11689579D02*
X9768396Y-11680055D01*
X9768396Y-11680055D02*
X9806491Y-11680055D01*
X9806491Y-11680055D02*
X9825539Y-11689579D01*
X9825539Y-11689579D02*
X9835062Y-11699103D01*
X9835062Y-11699103D02*
X9844586Y-11718151D01*
X9844586Y-11718151D02*
X9844586Y-11775293D01*
X9844586Y-11775293D02*
X9835062Y-11794341D01*
X9835062Y-11794341D02*
X9825539Y-11803865D01*
X9825539Y-11803865D02*
X9806491Y-11813389D01*
X9806491Y-11813389D02*
X9768396Y-11813389D01*
X9768396Y-11813389D02*
X9749348Y-11803865D01*
X9930300Y-11794341D02*
X9939824Y-11803865D01*
X9939824Y-11803865D02*
X9930300Y-11813389D01*
X9930300Y-11813389D02*
X9920777Y-11803865D01*
X9920777Y-11803865D02*
X9930300Y-11794341D01*
X9930300Y-11794341D02*
X9930300Y-11813389D01*
X9930300Y-11689579D02*
X9939824Y-11699103D01*
X9939824Y-11699103D02*
X9930300Y-11708627D01*
X9930300Y-11708627D02*
X9920777Y-11699103D01*
X9920777Y-11699103D02*
X9930300Y-11689579D01*
X9930300Y-11689579D02*
X9930300Y-11708627D01*
D12*
X8268095Y-12126905D02*
X8298095Y-12156905D01*
X8298095Y-12126905D02*
X8268095Y-12156905D01*
D11*
X8596967Y-12033389D02*
X8616015Y-12033389D01*
X8616015Y-12033389D02*
X8635062Y-12042913D01*
X8635062Y-12042913D02*
X8644586Y-12052436D01*
X8644586Y-12052436D02*
X8654110Y-12071484D01*
X8654110Y-12071484D02*
X8663634Y-12109579D01*
X8663634Y-12109579D02*
X8663634Y-12157198D01*
X8663634Y-12157198D02*
X8654110Y-12195293D01*
X8654110Y-12195293D02*
X8644586Y-12214341D01*
X8644586Y-12214341D02*
X8635062Y-12223865D01*
X8635062Y-12223865D02*
X8616015Y-12233389D01*
X8616015Y-12233389D02*
X8596967Y-12233389D01*
X8596967Y-12233389D02*
X8577919Y-12223865D01*
X8577919Y-12223865D02*
X8568396Y-12214341D01*
X8568396Y-12214341D02*
X8558872Y-12195293D01*
X8558872Y-12195293D02*
X8549348Y-12157198D01*
X8549348Y-12157198D02*
X8549348Y-12109579D01*
X8549348Y-12109579D02*
X8558872Y-12071484D01*
X8558872Y-12071484D02*
X8568396Y-12052436D01*
X8568396Y-12052436D02*
X8577919Y-12042913D01*
X8577919Y-12042913D02*
X8596967Y-12033389D01*
X8749348Y-12214341D02*
X8758872Y-12223865D01*
X8758872Y-12223865D02*
X8749348Y-12233389D01*
X8749348Y-12233389D02*
X8739824Y-12223865D01*
X8739824Y-12223865D02*
X8749348Y-12214341D01*
X8749348Y-12214341D02*
X8749348Y-12233389D01*
X8825539Y-12033389D02*
X8949348Y-12033389D01*
X8949348Y-12033389D02*
X8882681Y-12109579D01*
X8882681Y-12109579D02*
X8911253Y-12109579D01*
X8911253Y-12109579D02*
X8930300Y-12119103D01*
X8930300Y-12119103D02*
X8939824Y-12128627D01*
X8939824Y-12128627D02*
X8949348Y-12147674D01*
X8949348Y-12147674D02*
X8949348Y-12195293D01*
X8949348Y-12195293D02*
X8939824Y-12214341D01*
X8939824Y-12214341D02*
X8930300Y-12223865D01*
X8930300Y-12223865D02*
X8911253Y-12233389D01*
X8911253Y-12233389D02*
X8854110Y-12233389D01*
X8854110Y-12233389D02*
X8835062Y-12223865D01*
X8835062Y-12223865D02*
X8825539Y-12214341D01*
X9073158Y-12033389D02*
X9092205Y-12033389D01*
X9092205Y-12033389D02*
X9111253Y-12042913D01*
X9111253Y-12042913D02*
X9120777Y-12052436D01*
X9120777Y-12052436D02*
X9130300Y-12071484D01*
X9130300Y-12071484D02*
X9139824Y-12109579D01*
X9139824Y-12109579D02*
X9139824Y-12157198D01*
X9139824Y-12157198D02*
X9130300Y-12195293D01*
X9130300Y-12195293D02*
X9120777Y-12214341D01*
X9120777Y-12214341D02*
X9111253Y-12223865D01*
X9111253Y-12223865D02*
X9092205Y-12233389D01*
X9092205Y-12233389D02*
X9073158Y-12233389D01*
X9073158Y-12233389D02*
X9054110Y-12223865D01*
X9054110Y-12223865D02*
X9044586Y-12214341D01*
X9044586Y-12214341D02*
X9035062Y-12195293D01*
X9035062Y-12195293D02*
X9025539Y-12157198D01*
X9025539Y-12157198D02*
X9025539Y-12109579D01*
X9025539Y-12109579D02*
X9035062Y-12071484D01*
X9035062Y-12071484D02*
X9044586Y-12052436D01*
X9044586Y-12052436D02*
X9054110Y-12042913D01*
X9054110Y-12042913D02*
X9073158Y-12033389D01*
X9263634Y-12033389D02*
X9282681Y-12033389D01*
X9282681Y-12033389D02*
X9301729Y-12042913D01*
X9301729Y-12042913D02*
X9311253Y-12052436D01*
X9311253Y-12052436D02*
X9320777Y-12071484D01*
X9320777Y-12071484D02*
X9330300Y-12109579D01*
X9330300Y-12109579D02*
X9330300Y-12157198D01*
X9330300Y-12157198D02*
X9320777Y-12195293D01*
X9320777Y-12195293D02*
X9311253Y-12214341D01*
X9311253Y-12214341D02*
X9301729Y-12223865D01*
X9301729Y-12223865D02*
X9282681Y-12233389D01*
X9282681Y-12233389D02*
X9263634Y-12233389D01*
X9263634Y-12233389D02*
X9244586Y-12223865D01*
X9244586Y-12223865D02*
X9235062Y-12214341D01*
X9235062Y-12214341D02*
X9225539Y-12195293D01*
X9225539Y-12195293D02*
X9216015Y-12157198D01*
X9216015Y-12157198D02*
X9216015Y-12109579D01*
X9216015Y-12109579D02*
X9225539Y-12071484D01*
X9225539Y-12071484D02*
X9235062Y-12052436D01*
X9235062Y-12052436D02*
X9244586Y-12042913D01*
X9244586Y-12042913D02*
X9263634Y-12033389D01*
X9416015Y-12233389D02*
X9416015Y-12100055D01*
X9416015Y-12119103D02*
X9425539Y-12109579D01*
X9425539Y-12109579D02*
X9444586Y-12100055D01*
X9444586Y-12100055D02*
X9473158Y-12100055D01*
X9473158Y-12100055D02*
X9492205Y-12109579D01*
X9492205Y-12109579D02*
X9501729Y-12128627D01*
X9501729Y-12128627D02*
X9501729Y-12233389D01*
X9501729Y-12128627D02*
X9511253Y-12109579D01*
X9511253Y-12109579D02*
X9530300Y-12100055D01*
X9530300Y-12100055D02*
X9558872Y-12100055D01*
X9558872Y-12100055D02*
X9577920Y-12109579D01*
X9577920Y-12109579D02*
X9587443Y-12128627D01*
X9587443Y-12128627D02*
X9587443Y-12233389D01*
X9682681Y-12233389D02*
X9682681Y-12100055D01*
X9682681Y-12119103D02*
X9692205Y-12109579D01*
X9692205Y-12109579D02*
X9711253Y-12100055D01*
X9711253Y-12100055D02*
X9739824Y-12100055D01*
X9739824Y-12100055D02*
X9758872Y-12109579D01*
X9758872Y-12109579D02*
X9768396Y-12128627D01*
X9768396Y-12128627D02*
X9768396Y-12233389D01*
X9768396Y-12128627D02*
X9777920Y-12109579D01*
X9777920Y-12109579D02*
X9796967Y-12100055D01*
X9796967Y-12100055D02*
X9825539Y-12100055D01*
X9825539Y-12100055D02*
X9844586Y-12109579D01*
X9844586Y-12109579D02*
X9854110Y-12128627D01*
X9854110Y-12128627D02*
X9854110Y-12233389D01*
X10244586Y-12023865D02*
X10073158Y-12281008D01*
X10501729Y-12033389D02*
X10520777Y-12033389D01*
X10520777Y-12033389D02*
X10539824Y-12042913D01*
X10539824Y-12042913D02*
X10549348Y-12052436D01*
X10549348Y-12052436D02*
X10558872Y-12071484D01*
X10558872Y-12071484D02*
X10568396Y-12109579D01*
X10568396Y-12109579D02*
X10568396Y-12157198D01*
X10568396Y-12157198D02*
X10558872Y-12195293D01*
X10558872Y-12195293D02*
X10549348Y-12214341D01*
X10549348Y-12214341D02*
X10539824Y-12223865D01*
X10539824Y-12223865D02*
X10520777Y-12233389D01*
X10520777Y-12233389D02*
X10501729Y-12233389D01*
X10501729Y-12233389D02*
X10482682Y-12223865D01*
X10482682Y-12223865D02*
X10473158Y-12214341D01*
X10473158Y-12214341D02*
X10463634Y-12195293D01*
X10463634Y-12195293D02*
X10454110Y-12157198D01*
X10454110Y-12157198D02*
X10454110Y-12109579D01*
X10454110Y-12109579D02*
X10463634Y-12071484D01*
X10463634Y-12071484D02*
X10473158Y-12052436D01*
X10473158Y-12052436D02*
X10482682Y-12042913D01*
X10482682Y-12042913D02*
X10501729Y-12033389D01*
X10654110Y-12214341D02*
X10663634Y-12223865D01*
X10663634Y-12223865D02*
X10654110Y-12233389D01*
X10654110Y-12233389D02*
X10644586Y-12223865D01*
X10644586Y-12223865D02*
X10654110Y-12214341D01*
X10654110Y-12214341D02*
X10654110Y-12233389D01*
X10787443Y-12033389D02*
X10806491Y-12033389D01*
X10806491Y-12033389D02*
X10825539Y-12042913D01*
X10825539Y-12042913D02*
X10835063Y-12052436D01*
X10835063Y-12052436D02*
X10844586Y-12071484D01*
X10844586Y-12071484D02*
X10854110Y-12109579D01*
X10854110Y-12109579D02*
X10854110Y-12157198D01*
X10854110Y-12157198D02*
X10844586Y-12195293D01*
X10844586Y-12195293D02*
X10835063Y-12214341D01*
X10835063Y-12214341D02*
X10825539Y-12223865D01*
X10825539Y-12223865D02*
X10806491Y-12233389D01*
X10806491Y-12233389D02*
X10787443Y-12233389D01*
X10787443Y-12233389D02*
X10768396Y-12223865D01*
X10768396Y-12223865D02*
X10758872Y-12214341D01*
X10758872Y-12214341D02*
X10749348Y-12195293D01*
X10749348Y-12195293D02*
X10739824Y-12157198D01*
X10739824Y-12157198D02*
X10739824Y-12109579D01*
X10739824Y-12109579D02*
X10749348Y-12071484D01*
X10749348Y-12071484D02*
X10758872Y-12052436D01*
X10758872Y-12052436D02*
X10768396Y-12042913D01*
X10768396Y-12042913D02*
X10787443Y-12033389D01*
X11044586Y-12233389D02*
X10930301Y-12233389D01*
X10987443Y-12233389D02*
X10987443Y-12033389D01*
X10987443Y-12033389D02*
X10968396Y-12061960D01*
X10968396Y-12061960D02*
X10949348Y-12081008D01*
X10949348Y-12081008D02*
X10930301Y-12090532D01*
X11235062Y-12233389D02*
X11120777Y-12233389D01*
X11177920Y-12233389D02*
X11177920Y-12033389D01*
X11177920Y-12033389D02*
X11158872Y-12061960D01*
X11158872Y-12061960D02*
X11139824Y-12081008D01*
X11139824Y-12081008D02*
X11120777Y-12090532D01*
X11349348Y-12119103D02*
X11330301Y-12109579D01*
X11330301Y-12109579D02*
X11320777Y-12100055D01*
X11320777Y-12100055D02*
X11311253Y-12081008D01*
X11311253Y-12081008D02*
X11311253Y-12071484D01*
X11311253Y-12071484D02*
X11320777Y-12052436D01*
X11320777Y-12052436D02*
X11330301Y-12042913D01*
X11330301Y-12042913D02*
X11349348Y-12033389D01*
X11349348Y-12033389D02*
X11387443Y-12033389D01*
X11387443Y-12033389D02*
X11406491Y-12042913D01*
X11406491Y-12042913D02*
X11416015Y-12052436D01*
X11416015Y-12052436D02*
X11425539Y-12071484D01*
X11425539Y-12071484D02*
X11425539Y-12081008D01*
X11425539Y-12081008D02*
X11416015Y-12100055D01*
X11416015Y-12100055D02*
X11406491Y-12109579D01*
X11406491Y-12109579D02*
X11387443Y-12119103D01*
X11387443Y-12119103D02*
X11349348Y-12119103D01*
X11349348Y-12119103D02*
X11330301Y-12128627D01*
X11330301Y-12128627D02*
X11320777Y-12138151D01*
X11320777Y-12138151D02*
X11311253Y-12157198D01*
X11311253Y-12157198D02*
X11311253Y-12195293D01*
X11311253Y-12195293D02*
X11320777Y-12214341D01*
X11320777Y-12214341D02*
X11330301Y-12223865D01*
X11330301Y-12223865D02*
X11349348Y-12233389D01*
X11349348Y-12233389D02*
X11387443Y-12233389D01*
X11387443Y-12233389D02*
X11406491Y-12223865D01*
X11406491Y-12223865D02*
X11416015Y-12214341D01*
X11416015Y-12214341D02*
X11425539Y-12195293D01*
X11425539Y-12195293D02*
X11425539Y-12157198D01*
X11425539Y-12157198D02*
X11416015Y-12138151D01*
X11416015Y-12138151D02*
X11406491Y-12128627D01*
X11406491Y-12128627D02*
X11387443Y-12119103D01*
X11501729Y-12033389D02*
X11501729Y-12071484D01*
X11577920Y-12033389D02*
X11577920Y-12071484D01*
X11873158Y-12309579D02*
X11863634Y-12300055D01*
X11863634Y-12300055D02*
X11844586Y-12271484D01*
X11844586Y-12271484D02*
X11835063Y-12252436D01*
X11835063Y-12252436D02*
X11825539Y-12223865D01*
X11825539Y-12223865D02*
X11816015Y-12176246D01*
X11816015Y-12176246D02*
X11816015Y-12138151D01*
X11816015Y-12138151D02*
X11825539Y-12090532D01*
X11825539Y-12090532D02*
X11835063Y-12061960D01*
X11835063Y-12061960D02*
X11844586Y-12042913D01*
X11844586Y-12042913D02*
X11863634Y-12014341D01*
X11863634Y-12014341D02*
X11873158Y-12004817D01*
X12035063Y-12100055D02*
X12035063Y-12233389D01*
X11987443Y-12023865D02*
X11939824Y-12166722D01*
X11939824Y-12166722D02*
X12063634Y-12166722D01*
X12292205Y-12233389D02*
X12292205Y-12033389D01*
X12377920Y-12233389D02*
X12377920Y-12128627D01*
X12377920Y-12128627D02*
X12368396Y-12109579D01*
X12368396Y-12109579D02*
X12349348Y-12100055D01*
X12349348Y-12100055D02*
X12320777Y-12100055D01*
X12320777Y-12100055D02*
X12301729Y-12109579D01*
X12301729Y-12109579D02*
X12292205Y-12119103D01*
X12501729Y-12233389D02*
X12482682Y-12223865D01*
X12482682Y-12223865D02*
X12473158Y-12214341D01*
X12473158Y-12214341D02*
X12463634Y-12195293D01*
X12463634Y-12195293D02*
X12463634Y-12138151D01*
X12463634Y-12138151D02*
X12473158Y-12119103D01*
X12473158Y-12119103D02*
X12482682Y-12109579D01*
X12482682Y-12109579D02*
X12501729Y-12100055D01*
X12501729Y-12100055D02*
X12530301Y-12100055D01*
X12530301Y-12100055D02*
X12549348Y-12109579D01*
X12549348Y-12109579D02*
X12558872Y-12119103D01*
X12558872Y-12119103D02*
X12568396Y-12138151D01*
X12568396Y-12138151D02*
X12568396Y-12195293D01*
X12568396Y-12195293D02*
X12558872Y-12214341D01*
X12558872Y-12214341D02*
X12549348Y-12223865D01*
X12549348Y-12223865D02*
X12530301Y-12233389D01*
X12530301Y-12233389D02*
X12501729Y-12233389D01*
X12682682Y-12233389D02*
X12663634Y-12223865D01*
X12663634Y-12223865D02*
X12654110Y-12204817D01*
X12654110Y-12204817D02*
X12654110Y-12033389D01*
X12835063Y-12223865D02*
X12816015Y-12233389D01*
X12816015Y-12233389D02*
X12777920Y-12233389D01*
X12777920Y-12233389D02*
X12758872Y-12223865D01*
X12758872Y-12223865D02*
X12749348Y-12204817D01*
X12749348Y-12204817D02*
X12749348Y-12128627D01*
X12749348Y-12128627D02*
X12758872Y-12109579D01*
X12758872Y-12109579D02*
X12777920Y-12100055D01*
X12777920Y-12100055D02*
X12816015Y-12100055D01*
X12816015Y-12100055D02*
X12835063Y-12109579D01*
X12835063Y-12109579D02*
X12844586Y-12128627D01*
X12844586Y-12128627D02*
X12844586Y-12147674D01*
X12844586Y-12147674D02*
X12749348Y-12166722D01*
X12920777Y-12223865D02*
X12939825Y-12233389D01*
X12939825Y-12233389D02*
X12977920Y-12233389D01*
X12977920Y-12233389D02*
X12996967Y-12223865D01*
X12996967Y-12223865D02*
X13006491Y-12204817D01*
X13006491Y-12204817D02*
X13006491Y-12195293D01*
X13006491Y-12195293D02*
X12996967Y-12176246D01*
X12996967Y-12176246D02*
X12977920Y-12166722D01*
X12977920Y-12166722D02*
X12949348Y-12166722D01*
X12949348Y-12166722D02*
X12930301Y-12157198D01*
X12930301Y-12157198D02*
X12920777Y-12138151D01*
X12920777Y-12138151D02*
X12920777Y-12128627D01*
X12920777Y-12128627D02*
X12930301Y-12109579D01*
X12930301Y-12109579D02*
X12949348Y-12100055D01*
X12949348Y-12100055D02*
X12977920Y-12100055D01*
X12977920Y-12100055D02*
X12996967Y-12109579D01*
X13073158Y-12309579D02*
X13082682Y-12300055D01*
X13082682Y-12300055D02*
X13101729Y-12271484D01*
X13101729Y-12271484D02*
X13111253Y-12252436D01*
X13111253Y-12252436D02*
X13120777Y-12223865D01*
X13120777Y-12223865D02*
X13130301Y-12176246D01*
X13130301Y-12176246D02*
X13130301Y-12138151D01*
X13130301Y-12138151D02*
X13120777Y-12090532D01*
X13120777Y-12090532D02*
X13111253Y-12061960D01*
X13111253Y-12061960D02*
X13101729Y-12042913D01*
X13101729Y-12042913D02*
X13082682Y-12014341D01*
X13082682Y-12014341D02*
X13073158Y-12004817D01*
D12*
X8298095Y-12405905D02*
G75*
G02*
X8221895Y-12405905I-38100J0D01*
G01*
X8221895Y-12405905D02*
G75*
G02*
X8298095Y-12405905I38100J0D01*
G01*
D11*
X8596967Y-12297389D02*
X8616015Y-12297389D01*
X8616015Y-12297389D02*
X8635062Y-12306913D01*
X8635062Y-12306913D02*
X8644586Y-12316436D01*
X8644586Y-12316436D02*
X8654110Y-12335484D01*
X8654110Y-12335484D02*
X8663634Y-12373579D01*
X8663634Y-12373579D02*
X8663634Y-12421198D01*
X8663634Y-12421198D02*
X8654110Y-12459293D01*
X8654110Y-12459293D02*
X8644586Y-12478341D01*
X8644586Y-12478341D02*
X8635062Y-12487865D01*
X8635062Y-12487865D02*
X8616015Y-12497389D01*
X8616015Y-12497389D02*
X8596967Y-12497389D01*
X8596967Y-12497389D02*
X8577919Y-12487865D01*
X8577919Y-12487865D02*
X8568396Y-12478341D01*
X8568396Y-12478341D02*
X8558872Y-12459293D01*
X8558872Y-12459293D02*
X8549348Y-12421198D01*
X8549348Y-12421198D02*
X8549348Y-12373579D01*
X8549348Y-12373579D02*
X8558872Y-12335484D01*
X8558872Y-12335484D02*
X8568396Y-12316436D01*
X8568396Y-12316436D02*
X8577919Y-12306913D01*
X8577919Y-12306913D02*
X8596967Y-12297389D01*
X8749348Y-12478341D02*
X8758872Y-12487865D01*
X8758872Y-12487865D02*
X8749348Y-12497389D01*
X8749348Y-12497389D02*
X8739824Y-12487865D01*
X8739824Y-12487865D02*
X8749348Y-12478341D01*
X8749348Y-12478341D02*
X8749348Y-12497389D01*
X8825539Y-12297389D02*
X8958872Y-12297389D01*
X8958872Y-12297389D02*
X8873158Y-12497389D01*
X9120777Y-12297389D02*
X9082681Y-12297389D01*
X9082681Y-12297389D02*
X9063634Y-12306913D01*
X9063634Y-12306913D02*
X9054110Y-12316436D01*
X9054110Y-12316436D02*
X9035062Y-12345008D01*
X9035062Y-12345008D02*
X9025539Y-12383103D01*
X9025539Y-12383103D02*
X9025539Y-12459293D01*
X9025539Y-12459293D02*
X9035062Y-12478341D01*
X9035062Y-12478341D02*
X9044586Y-12487865D01*
X9044586Y-12487865D02*
X9063634Y-12497389D01*
X9063634Y-12497389D02*
X9101729Y-12497389D01*
X9101729Y-12497389D02*
X9120777Y-12487865D01*
X9120777Y-12487865D02*
X9130300Y-12478341D01*
X9130300Y-12478341D02*
X9139824Y-12459293D01*
X9139824Y-12459293D02*
X9139824Y-12411674D01*
X9139824Y-12411674D02*
X9130300Y-12392627D01*
X9130300Y-12392627D02*
X9120777Y-12383103D01*
X9120777Y-12383103D02*
X9101729Y-12373579D01*
X9101729Y-12373579D02*
X9063634Y-12373579D01*
X9063634Y-12373579D02*
X9044586Y-12383103D01*
X9044586Y-12383103D02*
X9035062Y-12392627D01*
X9035062Y-12392627D02*
X9025539Y-12411674D01*
X9216015Y-12316436D02*
X9225539Y-12306913D01*
X9225539Y-12306913D02*
X9244586Y-12297389D01*
X9244586Y-12297389D02*
X9292205Y-12297389D01*
X9292205Y-12297389D02*
X9311253Y-12306913D01*
X9311253Y-12306913D02*
X9320777Y-12316436D01*
X9320777Y-12316436D02*
X9330300Y-12335484D01*
X9330300Y-12335484D02*
X9330300Y-12354532D01*
X9330300Y-12354532D02*
X9320777Y-12383103D01*
X9320777Y-12383103D02*
X9206491Y-12497389D01*
X9206491Y-12497389D02*
X9330300Y-12497389D01*
X9416015Y-12497389D02*
X9416015Y-12364055D01*
X9416015Y-12383103D02*
X9425539Y-12373579D01*
X9425539Y-12373579D02*
X9444586Y-12364055D01*
X9444586Y-12364055D02*
X9473158Y-12364055D01*
X9473158Y-12364055D02*
X9492205Y-12373579D01*
X9492205Y-12373579D02*
X9501729Y-12392627D01*
X9501729Y-12392627D02*
X9501729Y-12497389D01*
X9501729Y-12392627D02*
X9511253Y-12373579D01*
X9511253Y-12373579D02*
X9530300Y-12364055D01*
X9530300Y-12364055D02*
X9558872Y-12364055D01*
X9558872Y-12364055D02*
X9577920Y-12373579D01*
X9577920Y-12373579D02*
X9587443Y-12392627D01*
X9587443Y-12392627D02*
X9587443Y-12497389D01*
X9682681Y-12497389D02*
X9682681Y-12364055D01*
X9682681Y-12383103D02*
X9692205Y-12373579D01*
X9692205Y-12373579D02*
X9711253Y-12364055D01*
X9711253Y-12364055D02*
X9739824Y-12364055D01*
X9739824Y-12364055D02*
X9758872Y-12373579D01*
X9758872Y-12373579D02*
X9768396Y-12392627D01*
X9768396Y-12392627D02*
X9768396Y-12497389D01*
X9768396Y-12392627D02*
X9777920Y-12373579D01*
X9777920Y-12373579D02*
X9796967Y-12364055D01*
X9796967Y-12364055D02*
X9825539Y-12364055D01*
X9825539Y-12364055D02*
X9844586Y-12373579D01*
X9844586Y-12373579D02*
X9854110Y-12392627D01*
X9854110Y-12392627D02*
X9854110Y-12497389D01*
X10244586Y-12287865D02*
X10073158Y-12545008D01*
X10501729Y-12297389D02*
X10520777Y-12297389D01*
X10520777Y-12297389D02*
X10539824Y-12306913D01*
X10539824Y-12306913D02*
X10549348Y-12316436D01*
X10549348Y-12316436D02*
X10558872Y-12335484D01*
X10558872Y-12335484D02*
X10568396Y-12373579D01*
X10568396Y-12373579D02*
X10568396Y-12421198D01*
X10568396Y-12421198D02*
X10558872Y-12459293D01*
X10558872Y-12459293D02*
X10549348Y-12478341D01*
X10549348Y-12478341D02*
X10539824Y-12487865D01*
X10539824Y-12487865D02*
X10520777Y-12497389D01*
X10520777Y-12497389D02*
X10501729Y-12497389D01*
X10501729Y-12497389D02*
X10482682Y-12487865D01*
X10482682Y-12487865D02*
X10473158Y-12478341D01*
X10473158Y-12478341D02*
X10463634Y-12459293D01*
X10463634Y-12459293D02*
X10454110Y-12421198D01*
X10454110Y-12421198D02*
X10454110Y-12373579D01*
X10454110Y-12373579D02*
X10463634Y-12335484D01*
X10463634Y-12335484D02*
X10473158Y-12316436D01*
X10473158Y-12316436D02*
X10482682Y-12306913D01*
X10482682Y-12306913D02*
X10501729Y-12297389D01*
X10654110Y-12478341D02*
X10663634Y-12487865D01*
X10663634Y-12487865D02*
X10654110Y-12497389D01*
X10654110Y-12497389D02*
X10644586Y-12487865D01*
X10644586Y-12487865D02*
X10654110Y-12478341D01*
X10654110Y-12478341D02*
X10654110Y-12497389D01*
X10787443Y-12297389D02*
X10806491Y-12297389D01*
X10806491Y-12297389D02*
X10825539Y-12306913D01*
X10825539Y-12306913D02*
X10835063Y-12316436D01*
X10835063Y-12316436D02*
X10844586Y-12335484D01*
X10844586Y-12335484D02*
X10854110Y-12373579D01*
X10854110Y-12373579D02*
X10854110Y-12421198D01*
X10854110Y-12421198D02*
X10844586Y-12459293D01*
X10844586Y-12459293D02*
X10835063Y-12478341D01*
X10835063Y-12478341D02*
X10825539Y-12487865D01*
X10825539Y-12487865D02*
X10806491Y-12497389D01*
X10806491Y-12497389D02*
X10787443Y-12497389D01*
X10787443Y-12497389D02*
X10768396Y-12487865D01*
X10768396Y-12487865D02*
X10758872Y-12478341D01*
X10758872Y-12478341D02*
X10749348Y-12459293D01*
X10749348Y-12459293D02*
X10739824Y-12421198D01*
X10739824Y-12421198D02*
X10739824Y-12373579D01*
X10739824Y-12373579D02*
X10749348Y-12335484D01*
X10749348Y-12335484D02*
X10758872Y-12316436D01*
X10758872Y-12316436D02*
X10768396Y-12306913D01*
X10768396Y-12306913D02*
X10787443Y-12297389D01*
X10920777Y-12297389D02*
X11044586Y-12297389D01*
X11044586Y-12297389D02*
X10977920Y-12373579D01*
X10977920Y-12373579D02*
X11006491Y-12373579D01*
X11006491Y-12373579D02*
X11025539Y-12383103D01*
X11025539Y-12383103D02*
X11035063Y-12392627D01*
X11035063Y-12392627D02*
X11044586Y-12411674D01*
X11044586Y-12411674D02*
X11044586Y-12459293D01*
X11044586Y-12459293D02*
X11035063Y-12478341D01*
X11035063Y-12478341D02*
X11025539Y-12487865D01*
X11025539Y-12487865D02*
X11006491Y-12497389D01*
X11006491Y-12497389D02*
X10949348Y-12497389D01*
X10949348Y-12497389D02*
X10930301Y-12487865D01*
X10930301Y-12487865D02*
X10920777Y-12478341D01*
X11168396Y-12297389D02*
X11187443Y-12297389D01*
X11187443Y-12297389D02*
X11206491Y-12306913D01*
X11206491Y-12306913D02*
X11216015Y-12316436D01*
X11216015Y-12316436D02*
X11225539Y-12335484D01*
X11225539Y-12335484D02*
X11235062Y-12373579D01*
X11235062Y-12373579D02*
X11235062Y-12421198D01*
X11235062Y-12421198D02*
X11225539Y-12459293D01*
X11225539Y-12459293D02*
X11216015Y-12478341D01*
X11216015Y-12478341D02*
X11206491Y-12487865D01*
X11206491Y-12487865D02*
X11187443Y-12497389D01*
X11187443Y-12497389D02*
X11168396Y-12497389D01*
X11168396Y-12497389D02*
X11149348Y-12487865D01*
X11149348Y-12487865D02*
X11139824Y-12478341D01*
X11139824Y-12478341D02*
X11130301Y-12459293D01*
X11130301Y-12459293D02*
X11120777Y-12421198D01*
X11120777Y-12421198D02*
X11120777Y-12373579D01*
X11120777Y-12373579D02*
X11130301Y-12335484D01*
X11130301Y-12335484D02*
X11139824Y-12316436D01*
X11139824Y-12316436D02*
X11149348Y-12306913D01*
X11149348Y-12306913D02*
X11168396Y-12297389D01*
X11358872Y-12297389D02*
X11377920Y-12297389D01*
X11377920Y-12297389D02*
X11396967Y-12306913D01*
X11396967Y-12306913D02*
X11406491Y-12316436D01*
X11406491Y-12316436D02*
X11416015Y-12335484D01*
X11416015Y-12335484D02*
X11425539Y-12373579D01*
X11425539Y-12373579D02*
X11425539Y-12421198D01*
X11425539Y-12421198D02*
X11416015Y-12459293D01*
X11416015Y-12459293D02*
X11406491Y-12478341D01*
X11406491Y-12478341D02*
X11396967Y-12487865D01*
X11396967Y-12487865D02*
X11377920Y-12497389D01*
X11377920Y-12497389D02*
X11358872Y-12497389D01*
X11358872Y-12497389D02*
X11339824Y-12487865D01*
X11339824Y-12487865D02*
X11330301Y-12478341D01*
X11330301Y-12478341D02*
X11320777Y-12459293D01*
X11320777Y-12459293D02*
X11311253Y-12421198D01*
X11311253Y-12421198D02*
X11311253Y-12373579D01*
X11311253Y-12373579D02*
X11320777Y-12335484D01*
X11320777Y-12335484D02*
X11330301Y-12316436D01*
X11330301Y-12316436D02*
X11339824Y-12306913D01*
X11339824Y-12306913D02*
X11358872Y-12297389D01*
X11501729Y-12297389D02*
X11501729Y-12335484D01*
X11577920Y-12297389D02*
X11577920Y-12335484D01*
X11873158Y-12573579D02*
X11863634Y-12564055D01*
X11863634Y-12564055D02*
X11844586Y-12535484D01*
X11844586Y-12535484D02*
X11835063Y-12516436D01*
X11835063Y-12516436D02*
X11825539Y-12487865D01*
X11825539Y-12487865D02*
X11816015Y-12440246D01*
X11816015Y-12440246D02*
X11816015Y-12402151D01*
X11816015Y-12402151D02*
X11825539Y-12354532D01*
X11825539Y-12354532D02*
X11835063Y-12325960D01*
X11835063Y-12325960D02*
X11844586Y-12306913D01*
X11844586Y-12306913D02*
X11863634Y-12278341D01*
X11863634Y-12278341D02*
X11873158Y-12268817D01*
X11958872Y-12497389D02*
X11996967Y-12497389D01*
X11996967Y-12497389D02*
X12016015Y-12487865D01*
X12016015Y-12487865D02*
X12025539Y-12478341D01*
X12025539Y-12478341D02*
X12044586Y-12449770D01*
X12044586Y-12449770D02*
X12054110Y-12411674D01*
X12054110Y-12411674D02*
X12054110Y-12335484D01*
X12054110Y-12335484D02*
X12044586Y-12316436D01*
X12044586Y-12316436D02*
X12035063Y-12306913D01*
X12035063Y-12306913D02*
X12016015Y-12297389D01*
X12016015Y-12297389D02*
X11977920Y-12297389D01*
X11977920Y-12297389D02*
X11958872Y-12306913D01*
X11958872Y-12306913D02*
X11949348Y-12316436D01*
X11949348Y-12316436D02*
X11939824Y-12335484D01*
X11939824Y-12335484D02*
X11939824Y-12383103D01*
X11939824Y-12383103D02*
X11949348Y-12402151D01*
X11949348Y-12402151D02*
X11958872Y-12411674D01*
X11958872Y-12411674D02*
X11977920Y-12421198D01*
X11977920Y-12421198D02*
X12016015Y-12421198D01*
X12016015Y-12421198D02*
X12035063Y-12411674D01*
X12035063Y-12411674D02*
X12044586Y-12402151D01*
X12044586Y-12402151D02*
X12054110Y-12383103D01*
X12292205Y-12497389D02*
X12292205Y-12297389D01*
X12377920Y-12497389D02*
X12377920Y-12392627D01*
X12377920Y-12392627D02*
X12368396Y-12373579D01*
X12368396Y-12373579D02*
X12349348Y-12364055D01*
X12349348Y-12364055D02*
X12320777Y-12364055D01*
X12320777Y-12364055D02*
X12301729Y-12373579D01*
X12301729Y-12373579D02*
X12292205Y-12383103D01*
X12501729Y-12497389D02*
X12482682Y-12487865D01*
X12482682Y-12487865D02*
X12473158Y-12478341D01*
X12473158Y-12478341D02*
X12463634Y-12459293D01*
X12463634Y-12459293D02*
X12463634Y-12402151D01*
X12463634Y-12402151D02*
X12473158Y-12383103D01*
X12473158Y-12383103D02*
X12482682Y-12373579D01*
X12482682Y-12373579D02*
X12501729Y-12364055D01*
X12501729Y-12364055D02*
X12530301Y-12364055D01*
X12530301Y-12364055D02*
X12549348Y-12373579D01*
X12549348Y-12373579D02*
X12558872Y-12383103D01*
X12558872Y-12383103D02*
X12568396Y-12402151D01*
X12568396Y-12402151D02*
X12568396Y-12459293D01*
X12568396Y-12459293D02*
X12558872Y-12478341D01*
X12558872Y-12478341D02*
X12549348Y-12487865D01*
X12549348Y-12487865D02*
X12530301Y-12497389D01*
X12530301Y-12497389D02*
X12501729Y-12497389D01*
X12682682Y-12497389D02*
X12663634Y-12487865D01*
X12663634Y-12487865D02*
X12654110Y-12468817D01*
X12654110Y-12468817D02*
X12654110Y-12297389D01*
X12835063Y-12487865D02*
X12816015Y-12497389D01*
X12816015Y-12497389D02*
X12777920Y-12497389D01*
X12777920Y-12497389D02*
X12758872Y-12487865D01*
X12758872Y-12487865D02*
X12749348Y-12468817D01*
X12749348Y-12468817D02*
X12749348Y-12392627D01*
X12749348Y-12392627D02*
X12758872Y-12373579D01*
X12758872Y-12373579D02*
X12777920Y-12364055D01*
X12777920Y-12364055D02*
X12816015Y-12364055D01*
X12816015Y-12364055D02*
X12835063Y-12373579D01*
X12835063Y-12373579D02*
X12844586Y-12392627D01*
X12844586Y-12392627D02*
X12844586Y-12411674D01*
X12844586Y-12411674D02*
X12749348Y-12430722D01*
X12920777Y-12487865D02*
X12939825Y-12497389D01*
X12939825Y-12497389D02*
X12977920Y-12497389D01*
X12977920Y-12497389D02*
X12996967Y-12487865D01*
X12996967Y-12487865D02*
X13006491Y-12468817D01*
X13006491Y-12468817D02*
X13006491Y-12459293D01*
X13006491Y-12459293D02*
X12996967Y-12440246D01*
X12996967Y-12440246D02*
X12977920Y-12430722D01*
X12977920Y-12430722D02*
X12949348Y-12430722D01*
X12949348Y-12430722D02*
X12930301Y-12421198D01*
X12930301Y-12421198D02*
X12920777Y-12402151D01*
X12920777Y-12402151D02*
X12920777Y-12392627D01*
X12920777Y-12392627D02*
X12930301Y-12373579D01*
X12930301Y-12373579D02*
X12949348Y-12364055D01*
X12949348Y-12364055D02*
X12977920Y-12364055D01*
X12977920Y-12364055D02*
X12996967Y-12373579D01*
X13073158Y-12573579D02*
X13082682Y-12564055D01*
X13082682Y-12564055D02*
X13101729Y-12535484D01*
X13101729Y-12535484D02*
X13111253Y-12516436D01*
X13111253Y-12516436D02*
X13120777Y-12487865D01*
X13120777Y-12487865D02*
X13130301Y-12440246D01*
X13130301Y-12440246D02*
X13130301Y-12402151D01*
X13130301Y-12402151D02*
X13120777Y-12354532D01*
X13120777Y-12354532D02*
X13111253Y-12325960D01*
X13111253Y-12325960D02*
X13101729Y-12306913D01*
X13101729Y-12306913D02*
X13082682Y-12278341D01*
X13082682Y-12278341D02*
X13073158Y-12268817D01*
D12*
X8258095Y-12629905D02*
X8258095Y-12709905D01*
X8218095Y-12669905D02*
X8298095Y-12669905D01*
D11*
X8596967Y-12561389D02*
X8616015Y-12561389D01*
X8616015Y-12561389D02*
X8635062Y-12570913D01*
X8635062Y-12570913D02*
X8644586Y-12580436D01*
X8644586Y-12580436D02*
X8654110Y-12599484D01*
X8654110Y-12599484D02*
X8663634Y-12637579D01*
X8663634Y-12637579D02*
X8663634Y-12685198D01*
X8663634Y-12685198D02*
X8654110Y-12723293D01*
X8654110Y-12723293D02*
X8644586Y-12742341D01*
X8644586Y-12742341D02*
X8635062Y-12751865D01*
X8635062Y-12751865D02*
X8616015Y-12761389D01*
X8616015Y-12761389D02*
X8596967Y-12761389D01*
X8596967Y-12761389D02*
X8577919Y-12751865D01*
X8577919Y-12751865D02*
X8568396Y-12742341D01*
X8568396Y-12742341D02*
X8558872Y-12723293D01*
X8558872Y-12723293D02*
X8549348Y-12685198D01*
X8549348Y-12685198D02*
X8549348Y-12637579D01*
X8549348Y-12637579D02*
X8558872Y-12599484D01*
X8558872Y-12599484D02*
X8568396Y-12580436D01*
X8568396Y-12580436D02*
X8577919Y-12570913D01*
X8577919Y-12570913D02*
X8596967Y-12561389D01*
X8749348Y-12742341D02*
X8758872Y-12751865D01*
X8758872Y-12751865D02*
X8749348Y-12761389D01*
X8749348Y-12761389D02*
X8739824Y-12751865D01*
X8739824Y-12751865D02*
X8749348Y-12742341D01*
X8749348Y-12742341D02*
X8749348Y-12761389D01*
X8873158Y-12647103D02*
X8854110Y-12637579D01*
X8854110Y-12637579D02*
X8844586Y-12628055D01*
X8844586Y-12628055D02*
X8835062Y-12609008D01*
X8835062Y-12609008D02*
X8835062Y-12599484D01*
X8835062Y-12599484D02*
X8844586Y-12580436D01*
X8844586Y-12580436D02*
X8854110Y-12570913D01*
X8854110Y-12570913D02*
X8873158Y-12561389D01*
X8873158Y-12561389D02*
X8911253Y-12561389D01*
X8911253Y-12561389D02*
X8930300Y-12570913D01*
X8930300Y-12570913D02*
X8939824Y-12580436D01*
X8939824Y-12580436D02*
X8949348Y-12599484D01*
X8949348Y-12599484D02*
X8949348Y-12609008D01*
X8949348Y-12609008D02*
X8939824Y-12628055D01*
X8939824Y-12628055D02*
X8930300Y-12637579D01*
X8930300Y-12637579D02*
X8911253Y-12647103D01*
X8911253Y-12647103D02*
X8873158Y-12647103D01*
X8873158Y-12647103D02*
X8854110Y-12656627D01*
X8854110Y-12656627D02*
X8844586Y-12666151D01*
X8844586Y-12666151D02*
X8835062Y-12685198D01*
X8835062Y-12685198D02*
X8835062Y-12723293D01*
X8835062Y-12723293D02*
X8844586Y-12742341D01*
X8844586Y-12742341D02*
X8854110Y-12751865D01*
X8854110Y-12751865D02*
X8873158Y-12761389D01*
X8873158Y-12761389D02*
X8911253Y-12761389D01*
X8911253Y-12761389D02*
X8930300Y-12751865D01*
X8930300Y-12751865D02*
X8939824Y-12742341D01*
X8939824Y-12742341D02*
X8949348Y-12723293D01*
X8949348Y-12723293D02*
X8949348Y-12685198D01*
X8949348Y-12685198D02*
X8939824Y-12666151D01*
X8939824Y-12666151D02*
X8930300Y-12656627D01*
X8930300Y-12656627D02*
X8911253Y-12647103D01*
X9073158Y-12561389D02*
X9092205Y-12561389D01*
X9092205Y-12561389D02*
X9111253Y-12570913D01*
X9111253Y-12570913D02*
X9120777Y-12580436D01*
X9120777Y-12580436D02*
X9130300Y-12599484D01*
X9130300Y-12599484D02*
X9139824Y-12637579D01*
X9139824Y-12637579D02*
X9139824Y-12685198D01*
X9139824Y-12685198D02*
X9130300Y-12723293D01*
X9130300Y-12723293D02*
X9120777Y-12742341D01*
X9120777Y-12742341D02*
X9111253Y-12751865D01*
X9111253Y-12751865D02*
X9092205Y-12761389D01*
X9092205Y-12761389D02*
X9073158Y-12761389D01*
X9073158Y-12761389D02*
X9054110Y-12751865D01*
X9054110Y-12751865D02*
X9044586Y-12742341D01*
X9044586Y-12742341D02*
X9035062Y-12723293D01*
X9035062Y-12723293D02*
X9025539Y-12685198D01*
X9025539Y-12685198D02*
X9025539Y-12637579D01*
X9025539Y-12637579D02*
X9035062Y-12599484D01*
X9035062Y-12599484D02*
X9044586Y-12580436D01*
X9044586Y-12580436D02*
X9054110Y-12570913D01*
X9054110Y-12570913D02*
X9073158Y-12561389D01*
X9263634Y-12561389D02*
X9282681Y-12561389D01*
X9282681Y-12561389D02*
X9301729Y-12570913D01*
X9301729Y-12570913D02*
X9311253Y-12580436D01*
X9311253Y-12580436D02*
X9320777Y-12599484D01*
X9320777Y-12599484D02*
X9330300Y-12637579D01*
X9330300Y-12637579D02*
X9330300Y-12685198D01*
X9330300Y-12685198D02*
X9320777Y-12723293D01*
X9320777Y-12723293D02*
X9311253Y-12742341D01*
X9311253Y-12742341D02*
X9301729Y-12751865D01*
X9301729Y-12751865D02*
X9282681Y-12761389D01*
X9282681Y-12761389D02*
X9263634Y-12761389D01*
X9263634Y-12761389D02*
X9244586Y-12751865D01*
X9244586Y-12751865D02*
X9235062Y-12742341D01*
X9235062Y-12742341D02*
X9225539Y-12723293D01*
X9225539Y-12723293D02*
X9216015Y-12685198D01*
X9216015Y-12685198D02*
X9216015Y-12637579D01*
X9216015Y-12637579D02*
X9225539Y-12599484D01*
X9225539Y-12599484D02*
X9235062Y-12580436D01*
X9235062Y-12580436D02*
X9244586Y-12570913D01*
X9244586Y-12570913D02*
X9263634Y-12561389D01*
X9416015Y-12761389D02*
X9416015Y-12628055D01*
X9416015Y-12647103D02*
X9425539Y-12637579D01*
X9425539Y-12637579D02*
X9444586Y-12628055D01*
X9444586Y-12628055D02*
X9473158Y-12628055D01*
X9473158Y-12628055D02*
X9492205Y-12637579D01*
X9492205Y-12637579D02*
X9501729Y-12656627D01*
X9501729Y-12656627D02*
X9501729Y-12761389D01*
X9501729Y-12656627D02*
X9511253Y-12637579D01*
X9511253Y-12637579D02*
X9530300Y-12628055D01*
X9530300Y-12628055D02*
X9558872Y-12628055D01*
X9558872Y-12628055D02*
X9577920Y-12637579D01*
X9577920Y-12637579D02*
X9587443Y-12656627D01*
X9587443Y-12656627D02*
X9587443Y-12761389D01*
X9682681Y-12761389D02*
X9682681Y-12628055D01*
X9682681Y-12647103D02*
X9692205Y-12637579D01*
X9692205Y-12637579D02*
X9711253Y-12628055D01*
X9711253Y-12628055D02*
X9739824Y-12628055D01*
X9739824Y-12628055D02*
X9758872Y-12637579D01*
X9758872Y-12637579D02*
X9768396Y-12656627D01*
X9768396Y-12656627D02*
X9768396Y-12761389D01*
X9768396Y-12656627D02*
X9777920Y-12637579D01*
X9777920Y-12637579D02*
X9796967Y-12628055D01*
X9796967Y-12628055D02*
X9825539Y-12628055D01*
X9825539Y-12628055D02*
X9844586Y-12637579D01*
X9844586Y-12637579D02*
X9854110Y-12656627D01*
X9854110Y-12656627D02*
X9854110Y-12761389D01*
X10244586Y-12551865D02*
X10073158Y-12809008D01*
X10501729Y-12561389D02*
X10520777Y-12561389D01*
X10520777Y-12561389D02*
X10539824Y-12570913D01*
X10539824Y-12570913D02*
X10549348Y-12580436D01*
X10549348Y-12580436D02*
X10558872Y-12599484D01*
X10558872Y-12599484D02*
X10568396Y-12637579D01*
X10568396Y-12637579D02*
X10568396Y-12685198D01*
X10568396Y-12685198D02*
X10558872Y-12723293D01*
X10558872Y-12723293D02*
X10549348Y-12742341D01*
X10549348Y-12742341D02*
X10539824Y-12751865D01*
X10539824Y-12751865D02*
X10520777Y-12761389D01*
X10520777Y-12761389D02*
X10501729Y-12761389D01*
X10501729Y-12761389D02*
X10482682Y-12751865D01*
X10482682Y-12751865D02*
X10473158Y-12742341D01*
X10473158Y-12742341D02*
X10463634Y-12723293D01*
X10463634Y-12723293D02*
X10454110Y-12685198D01*
X10454110Y-12685198D02*
X10454110Y-12637579D01*
X10454110Y-12637579D02*
X10463634Y-12599484D01*
X10463634Y-12599484D02*
X10473158Y-12580436D01*
X10473158Y-12580436D02*
X10482682Y-12570913D01*
X10482682Y-12570913D02*
X10501729Y-12561389D01*
X10654110Y-12742341D02*
X10663634Y-12751865D01*
X10663634Y-12751865D02*
X10654110Y-12761389D01*
X10654110Y-12761389D02*
X10644586Y-12751865D01*
X10644586Y-12751865D02*
X10654110Y-12742341D01*
X10654110Y-12742341D02*
X10654110Y-12761389D01*
X10787443Y-12561389D02*
X10806491Y-12561389D01*
X10806491Y-12561389D02*
X10825539Y-12570913D01*
X10825539Y-12570913D02*
X10835063Y-12580436D01*
X10835063Y-12580436D02*
X10844586Y-12599484D01*
X10844586Y-12599484D02*
X10854110Y-12637579D01*
X10854110Y-12637579D02*
X10854110Y-12685198D01*
X10854110Y-12685198D02*
X10844586Y-12723293D01*
X10844586Y-12723293D02*
X10835063Y-12742341D01*
X10835063Y-12742341D02*
X10825539Y-12751865D01*
X10825539Y-12751865D02*
X10806491Y-12761389D01*
X10806491Y-12761389D02*
X10787443Y-12761389D01*
X10787443Y-12761389D02*
X10768396Y-12751865D01*
X10768396Y-12751865D02*
X10758872Y-12742341D01*
X10758872Y-12742341D02*
X10749348Y-12723293D01*
X10749348Y-12723293D02*
X10739824Y-12685198D01*
X10739824Y-12685198D02*
X10739824Y-12637579D01*
X10739824Y-12637579D02*
X10749348Y-12599484D01*
X10749348Y-12599484D02*
X10758872Y-12580436D01*
X10758872Y-12580436D02*
X10768396Y-12570913D01*
X10768396Y-12570913D02*
X10787443Y-12561389D01*
X10920777Y-12561389D02*
X11044586Y-12561389D01*
X11044586Y-12561389D02*
X10977920Y-12637579D01*
X10977920Y-12637579D02*
X11006491Y-12637579D01*
X11006491Y-12637579D02*
X11025539Y-12647103D01*
X11025539Y-12647103D02*
X11035063Y-12656627D01*
X11035063Y-12656627D02*
X11044586Y-12675674D01*
X11044586Y-12675674D02*
X11044586Y-12723293D01*
X11044586Y-12723293D02*
X11035063Y-12742341D01*
X11035063Y-12742341D02*
X11025539Y-12751865D01*
X11025539Y-12751865D02*
X11006491Y-12761389D01*
X11006491Y-12761389D02*
X10949348Y-12761389D01*
X10949348Y-12761389D02*
X10930301Y-12751865D01*
X10930301Y-12751865D02*
X10920777Y-12742341D01*
X11235062Y-12761389D02*
X11120777Y-12761389D01*
X11177920Y-12761389D02*
X11177920Y-12561389D01*
X11177920Y-12561389D02*
X11158872Y-12589960D01*
X11158872Y-12589960D02*
X11139824Y-12609008D01*
X11139824Y-12609008D02*
X11120777Y-12618532D01*
X11416015Y-12561389D02*
X11320777Y-12561389D01*
X11320777Y-12561389D02*
X11311253Y-12656627D01*
X11311253Y-12656627D02*
X11320777Y-12647103D01*
X11320777Y-12647103D02*
X11339824Y-12637579D01*
X11339824Y-12637579D02*
X11387443Y-12637579D01*
X11387443Y-12637579D02*
X11406491Y-12647103D01*
X11406491Y-12647103D02*
X11416015Y-12656627D01*
X11416015Y-12656627D02*
X11425539Y-12675674D01*
X11425539Y-12675674D02*
X11425539Y-12723293D01*
X11425539Y-12723293D02*
X11416015Y-12742341D01*
X11416015Y-12742341D02*
X11406491Y-12751865D01*
X11406491Y-12751865D02*
X11387443Y-12761389D01*
X11387443Y-12761389D02*
X11339824Y-12761389D01*
X11339824Y-12761389D02*
X11320777Y-12751865D01*
X11320777Y-12751865D02*
X11311253Y-12742341D01*
X11501729Y-12561389D02*
X11501729Y-12599484D01*
X11577920Y-12561389D02*
X11577920Y-12599484D01*
X11873158Y-12837579D02*
X11863634Y-12828055D01*
X11863634Y-12828055D02*
X11844586Y-12799484D01*
X11844586Y-12799484D02*
X11835063Y-12780436D01*
X11835063Y-12780436D02*
X11825539Y-12751865D01*
X11825539Y-12751865D02*
X11816015Y-12704246D01*
X11816015Y-12704246D02*
X11816015Y-12666151D01*
X11816015Y-12666151D02*
X11825539Y-12618532D01*
X11825539Y-12618532D02*
X11835063Y-12589960D01*
X11835063Y-12589960D02*
X11844586Y-12570913D01*
X11844586Y-12570913D02*
X11863634Y-12542341D01*
X11863634Y-12542341D02*
X11873158Y-12532817D01*
X12054110Y-12761389D02*
X11939824Y-12761389D01*
X11996967Y-12761389D02*
X11996967Y-12561389D01*
X11996967Y-12561389D02*
X11977920Y-12589960D01*
X11977920Y-12589960D02*
X11958872Y-12609008D01*
X11958872Y-12609008D02*
X11939824Y-12618532D01*
X12225539Y-12628055D02*
X12225539Y-12761389D01*
X12177920Y-12551865D02*
X12130301Y-12694722D01*
X12130301Y-12694722D02*
X12254110Y-12694722D01*
X12482682Y-12761389D02*
X12482682Y-12561389D01*
X12568396Y-12761389D02*
X12568396Y-12656627D01*
X12568396Y-12656627D02*
X12558872Y-12637579D01*
X12558872Y-12637579D02*
X12539825Y-12628055D01*
X12539825Y-12628055D02*
X12511253Y-12628055D01*
X12511253Y-12628055D02*
X12492205Y-12637579D01*
X12492205Y-12637579D02*
X12482682Y-12647103D01*
X12692205Y-12761389D02*
X12673158Y-12751865D01*
X12673158Y-12751865D02*
X12663634Y-12742341D01*
X12663634Y-12742341D02*
X12654110Y-12723293D01*
X12654110Y-12723293D02*
X12654110Y-12666151D01*
X12654110Y-12666151D02*
X12663634Y-12647103D01*
X12663634Y-12647103D02*
X12673158Y-12637579D01*
X12673158Y-12637579D02*
X12692205Y-12628055D01*
X12692205Y-12628055D02*
X12720777Y-12628055D01*
X12720777Y-12628055D02*
X12739825Y-12637579D01*
X12739825Y-12637579D02*
X12749348Y-12647103D01*
X12749348Y-12647103D02*
X12758872Y-12666151D01*
X12758872Y-12666151D02*
X12758872Y-12723293D01*
X12758872Y-12723293D02*
X12749348Y-12742341D01*
X12749348Y-12742341D02*
X12739825Y-12751865D01*
X12739825Y-12751865D02*
X12720777Y-12761389D01*
X12720777Y-12761389D02*
X12692205Y-12761389D01*
X12873158Y-12761389D02*
X12854110Y-12751865D01*
X12854110Y-12751865D02*
X12844586Y-12732817D01*
X12844586Y-12732817D02*
X12844586Y-12561389D01*
X13025539Y-12751865D02*
X13006491Y-12761389D01*
X13006491Y-12761389D02*
X12968396Y-12761389D01*
X12968396Y-12761389D02*
X12949348Y-12751865D01*
X12949348Y-12751865D02*
X12939825Y-12732817D01*
X12939825Y-12732817D02*
X12939825Y-12656627D01*
X12939825Y-12656627D02*
X12949348Y-12637579D01*
X12949348Y-12637579D02*
X12968396Y-12628055D01*
X12968396Y-12628055D02*
X13006491Y-12628055D01*
X13006491Y-12628055D02*
X13025539Y-12637579D01*
X13025539Y-12637579D02*
X13035063Y-12656627D01*
X13035063Y-12656627D02*
X13035063Y-12675674D01*
X13035063Y-12675674D02*
X12939825Y-12694722D01*
X13111253Y-12751865D02*
X13130301Y-12761389D01*
X13130301Y-12761389D02*
X13168396Y-12761389D01*
X13168396Y-12761389D02*
X13187444Y-12751865D01*
X13187444Y-12751865D02*
X13196967Y-12732817D01*
X13196967Y-12732817D02*
X13196967Y-12723293D01*
X13196967Y-12723293D02*
X13187444Y-12704246D01*
X13187444Y-12704246D02*
X13168396Y-12694722D01*
X13168396Y-12694722D02*
X13139825Y-12694722D01*
X13139825Y-12694722D02*
X13120777Y-12685198D01*
X13120777Y-12685198D02*
X13111253Y-12666151D01*
X13111253Y-12666151D02*
X13111253Y-12656627D01*
X13111253Y-12656627D02*
X13120777Y-12637579D01*
X13120777Y-12637579D02*
X13139825Y-12628055D01*
X13139825Y-12628055D02*
X13168396Y-12628055D01*
X13168396Y-12628055D02*
X13187444Y-12637579D01*
X13263634Y-12837579D02*
X13273158Y-12828055D01*
X13273158Y-12828055D02*
X13292206Y-12799484D01*
X13292206Y-12799484D02*
X13301729Y-12780436D01*
X13301729Y-12780436D02*
X13311253Y-12751865D01*
X13311253Y-12751865D02*
X13320777Y-12704246D01*
X13320777Y-12704246D02*
X13320777Y-12666151D01*
X13320777Y-12666151D02*
X13311253Y-12618532D01*
X13311253Y-12618532D02*
X13301729Y-12589960D01*
X13301729Y-12589960D02*
X13292206Y-12570913D01*
X13292206Y-12570913D02*
X13273158Y-12542341D01*
X13273158Y-12542341D02*
X13263634Y-12532817D01*
D12*
X8284915Y-12965725D02*
X8284915Y-12902085D01*
X8221275Y-12902085D01*
X8221275Y-12965725D01*
X8284915Y-12965725D01*
D11*
X8596967Y-12825389D02*
X8616015Y-12825389D01*
X8616015Y-12825389D02*
X8635062Y-12834913D01*
X8635062Y-12834913D02*
X8644586Y-12844436D01*
X8644586Y-12844436D02*
X8654110Y-12863484D01*
X8654110Y-12863484D02*
X8663634Y-12901579D01*
X8663634Y-12901579D02*
X8663634Y-12949198D01*
X8663634Y-12949198D02*
X8654110Y-12987293D01*
X8654110Y-12987293D02*
X8644586Y-13006341D01*
X8644586Y-13006341D02*
X8635062Y-13015865D01*
X8635062Y-13015865D02*
X8616015Y-13025389D01*
X8616015Y-13025389D02*
X8596967Y-13025389D01*
X8596967Y-13025389D02*
X8577919Y-13015865D01*
X8577919Y-13015865D02*
X8568396Y-13006341D01*
X8568396Y-13006341D02*
X8558872Y-12987293D01*
X8558872Y-12987293D02*
X8549348Y-12949198D01*
X8549348Y-12949198D02*
X8549348Y-12901579D01*
X8549348Y-12901579D02*
X8558872Y-12863484D01*
X8558872Y-12863484D02*
X8568396Y-12844436D01*
X8568396Y-12844436D02*
X8577919Y-12834913D01*
X8577919Y-12834913D02*
X8596967Y-12825389D01*
X8749348Y-13006341D02*
X8758872Y-13015865D01*
X8758872Y-13015865D02*
X8749348Y-13025389D01*
X8749348Y-13025389D02*
X8739824Y-13015865D01*
X8739824Y-13015865D02*
X8749348Y-13006341D01*
X8749348Y-13006341D02*
X8749348Y-13025389D01*
X8854110Y-13025389D02*
X8892205Y-13025389D01*
X8892205Y-13025389D02*
X8911253Y-13015865D01*
X8911253Y-13015865D02*
X8920777Y-13006341D01*
X8920777Y-13006341D02*
X8939824Y-12977770D01*
X8939824Y-12977770D02*
X8949348Y-12939674D01*
X8949348Y-12939674D02*
X8949348Y-12863484D01*
X8949348Y-12863484D02*
X8939824Y-12844436D01*
X8939824Y-12844436D02*
X8930300Y-12834913D01*
X8930300Y-12834913D02*
X8911253Y-12825389D01*
X8911253Y-12825389D02*
X8873158Y-12825389D01*
X8873158Y-12825389D02*
X8854110Y-12834913D01*
X8854110Y-12834913D02*
X8844586Y-12844436D01*
X8844586Y-12844436D02*
X8835062Y-12863484D01*
X8835062Y-12863484D02*
X8835062Y-12911103D01*
X8835062Y-12911103D02*
X8844586Y-12930151D01*
X8844586Y-12930151D02*
X8854110Y-12939674D01*
X8854110Y-12939674D02*
X8873158Y-12949198D01*
X8873158Y-12949198D02*
X8911253Y-12949198D01*
X8911253Y-12949198D02*
X8930300Y-12939674D01*
X8930300Y-12939674D02*
X8939824Y-12930151D01*
X8939824Y-12930151D02*
X8949348Y-12911103D01*
X9073158Y-12825389D02*
X9092205Y-12825389D01*
X9092205Y-12825389D02*
X9111253Y-12834913D01*
X9111253Y-12834913D02*
X9120777Y-12844436D01*
X9120777Y-12844436D02*
X9130300Y-12863484D01*
X9130300Y-12863484D02*
X9139824Y-12901579D01*
X9139824Y-12901579D02*
X9139824Y-12949198D01*
X9139824Y-12949198D02*
X9130300Y-12987293D01*
X9130300Y-12987293D02*
X9120777Y-13006341D01*
X9120777Y-13006341D02*
X9111253Y-13015865D01*
X9111253Y-13015865D02*
X9092205Y-13025389D01*
X9092205Y-13025389D02*
X9073158Y-13025389D01*
X9073158Y-13025389D02*
X9054110Y-13015865D01*
X9054110Y-13015865D02*
X9044586Y-13006341D01*
X9044586Y-13006341D02*
X9035062Y-12987293D01*
X9035062Y-12987293D02*
X9025539Y-12949198D01*
X9025539Y-12949198D02*
X9025539Y-12901579D01*
X9025539Y-12901579D02*
X9035062Y-12863484D01*
X9035062Y-12863484D02*
X9044586Y-12844436D01*
X9044586Y-12844436D02*
X9054110Y-12834913D01*
X9054110Y-12834913D02*
X9073158Y-12825389D01*
X9263634Y-12825389D02*
X9282681Y-12825389D01*
X9282681Y-12825389D02*
X9301729Y-12834913D01*
X9301729Y-12834913D02*
X9311253Y-12844436D01*
X9311253Y-12844436D02*
X9320777Y-12863484D01*
X9320777Y-12863484D02*
X9330300Y-12901579D01*
X9330300Y-12901579D02*
X9330300Y-12949198D01*
X9330300Y-12949198D02*
X9320777Y-12987293D01*
X9320777Y-12987293D02*
X9311253Y-13006341D01*
X9311253Y-13006341D02*
X9301729Y-13015865D01*
X9301729Y-13015865D02*
X9282681Y-13025389D01*
X9282681Y-13025389D02*
X9263634Y-13025389D01*
X9263634Y-13025389D02*
X9244586Y-13015865D01*
X9244586Y-13015865D02*
X9235062Y-13006341D01*
X9235062Y-13006341D02*
X9225539Y-12987293D01*
X9225539Y-12987293D02*
X9216015Y-12949198D01*
X9216015Y-12949198D02*
X9216015Y-12901579D01*
X9216015Y-12901579D02*
X9225539Y-12863484D01*
X9225539Y-12863484D02*
X9235062Y-12844436D01*
X9235062Y-12844436D02*
X9244586Y-12834913D01*
X9244586Y-12834913D02*
X9263634Y-12825389D01*
X9416015Y-13025389D02*
X9416015Y-12892055D01*
X9416015Y-12911103D02*
X9425539Y-12901579D01*
X9425539Y-12901579D02*
X9444586Y-12892055D01*
X9444586Y-12892055D02*
X9473158Y-12892055D01*
X9473158Y-12892055D02*
X9492205Y-12901579D01*
X9492205Y-12901579D02*
X9501729Y-12920627D01*
X9501729Y-12920627D02*
X9501729Y-13025389D01*
X9501729Y-12920627D02*
X9511253Y-12901579D01*
X9511253Y-12901579D02*
X9530300Y-12892055D01*
X9530300Y-12892055D02*
X9558872Y-12892055D01*
X9558872Y-12892055D02*
X9577920Y-12901579D01*
X9577920Y-12901579D02*
X9587443Y-12920627D01*
X9587443Y-12920627D02*
X9587443Y-13025389D01*
X9682681Y-13025389D02*
X9682681Y-12892055D01*
X9682681Y-12911103D02*
X9692205Y-12901579D01*
X9692205Y-12901579D02*
X9711253Y-12892055D01*
X9711253Y-12892055D02*
X9739824Y-12892055D01*
X9739824Y-12892055D02*
X9758872Y-12901579D01*
X9758872Y-12901579D02*
X9768396Y-12920627D01*
X9768396Y-12920627D02*
X9768396Y-13025389D01*
X9768396Y-12920627D02*
X9777920Y-12901579D01*
X9777920Y-12901579D02*
X9796967Y-12892055D01*
X9796967Y-12892055D02*
X9825539Y-12892055D01*
X9825539Y-12892055D02*
X9844586Y-12901579D01*
X9844586Y-12901579D02*
X9854110Y-12920627D01*
X9854110Y-12920627D02*
X9854110Y-13025389D01*
X10244586Y-12815865D02*
X10073158Y-13073008D01*
X10501729Y-12825389D02*
X10520777Y-12825389D01*
X10520777Y-12825389D02*
X10539824Y-12834913D01*
X10539824Y-12834913D02*
X10549348Y-12844436D01*
X10549348Y-12844436D02*
X10558872Y-12863484D01*
X10558872Y-12863484D02*
X10568396Y-12901579D01*
X10568396Y-12901579D02*
X10568396Y-12949198D01*
X10568396Y-12949198D02*
X10558872Y-12987293D01*
X10558872Y-12987293D02*
X10549348Y-13006341D01*
X10549348Y-13006341D02*
X10539824Y-13015865D01*
X10539824Y-13015865D02*
X10520777Y-13025389D01*
X10520777Y-13025389D02*
X10501729Y-13025389D01*
X10501729Y-13025389D02*
X10482682Y-13015865D01*
X10482682Y-13015865D02*
X10473158Y-13006341D01*
X10473158Y-13006341D02*
X10463634Y-12987293D01*
X10463634Y-12987293D02*
X10454110Y-12949198D01*
X10454110Y-12949198D02*
X10454110Y-12901579D01*
X10454110Y-12901579D02*
X10463634Y-12863484D01*
X10463634Y-12863484D02*
X10473158Y-12844436D01*
X10473158Y-12844436D02*
X10482682Y-12834913D01*
X10482682Y-12834913D02*
X10501729Y-12825389D01*
X10654110Y-13006341D02*
X10663634Y-13015865D01*
X10663634Y-13015865D02*
X10654110Y-13025389D01*
X10654110Y-13025389D02*
X10644586Y-13015865D01*
X10644586Y-13015865D02*
X10654110Y-13006341D01*
X10654110Y-13006341D02*
X10654110Y-13025389D01*
X10787443Y-12825389D02*
X10806491Y-12825389D01*
X10806491Y-12825389D02*
X10825539Y-12834913D01*
X10825539Y-12834913D02*
X10835063Y-12844436D01*
X10835063Y-12844436D02*
X10844586Y-12863484D01*
X10844586Y-12863484D02*
X10854110Y-12901579D01*
X10854110Y-12901579D02*
X10854110Y-12949198D01*
X10854110Y-12949198D02*
X10844586Y-12987293D01*
X10844586Y-12987293D02*
X10835063Y-13006341D01*
X10835063Y-13006341D02*
X10825539Y-13015865D01*
X10825539Y-13015865D02*
X10806491Y-13025389D01*
X10806491Y-13025389D02*
X10787443Y-13025389D01*
X10787443Y-13025389D02*
X10768396Y-13015865D01*
X10768396Y-13015865D02*
X10758872Y-13006341D01*
X10758872Y-13006341D02*
X10749348Y-12987293D01*
X10749348Y-12987293D02*
X10739824Y-12949198D01*
X10739824Y-12949198D02*
X10739824Y-12901579D01*
X10739824Y-12901579D02*
X10749348Y-12863484D01*
X10749348Y-12863484D02*
X10758872Y-12844436D01*
X10758872Y-12844436D02*
X10768396Y-12834913D01*
X10768396Y-12834913D02*
X10787443Y-12825389D01*
X10920777Y-12825389D02*
X11044586Y-12825389D01*
X11044586Y-12825389D02*
X10977920Y-12901579D01*
X10977920Y-12901579D02*
X11006491Y-12901579D01*
X11006491Y-12901579D02*
X11025539Y-12911103D01*
X11025539Y-12911103D02*
X11035063Y-12920627D01*
X11035063Y-12920627D02*
X11044586Y-12939674D01*
X11044586Y-12939674D02*
X11044586Y-12987293D01*
X11044586Y-12987293D02*
X11035063Y-13006341D01*
X11035063Y-13006341D02*
X11025539Y-13015865D01*
X11025539Y-13015865D02*
X11006491Y-13025389D01*
X11006491Y-13025389D02*
X10949348Y-13025389D01*
X10949348Y-13025389D02*
X10930301Y-13015865D01*
X10930301Y-13015865D02*
X10920777Y-13006341D01*
X11225539Y-12825389D02*
X11130301Y-12825389D01*
X11130301Y-12825389D02*
X11120777Y-12920627D01*
X11120777Y-12920627D02*
X11130301Y-12911103D01*
X11130301Y-12911103D02*
X11149348Y-12901579D01*
X11149348Y-12901579D02*
X11196967Y-12901579D01*
X11196967Y-12901579D02*
X11216015Y-12911103D01*
X11216015Y-12911103D02*
X11225539Y-12920627D01*
X11225539Y-12920627D02*
X11235062Y-12939674D01*
X11235062Y-12939674D02*
X11235062Y-12987293D01*
X11235062Y-12987293D02*
X11225539Y-13006341D01*
X11225539Y-13006341D02*
X11216015Y-13015865D01*
X11216015Y-13015865D02*
X11196967Y-13025389D01*
X11196967Y-13025389D02*
X11149348Y-13025389D01*
X11149348Y-13025389D02*
X11130301Y-13015865D01*
X11130301Y-13015865D02*
X11120777Y-13006341D01*
X11406491Y-12892055D02*
X11406491Y-13025389D01*
X11358872Y-12815865D02*
X11311253Y-12958722D01*
X11311253Y-12958722D02*
X11435062Y-12958722D01*
X11501729Y-12825389D02*
X11501729Y-12863484D01*
X11577920Y-12825389D02*
X11577920Y-12863484D01*
X11873158Y-13101579D02*
X11863634Y-13092055D01*
X11863634Y-13092055D02*
X11844586Y-13063484D01*
X11844586Y-13063484D02*
X11835063Y-13044436D01*
X11835063Y-13044436D02*
X11825539Y-13015865D01*
X11825539Y-13015865D02*
X11816015Y-12968246D01*
X11816015Y-12968246D02*
X11816015Y-12930151D01*
X11816015Y-12930151D02*
X11825539Y-12882532D01*
X11825539Y-12882532D02*
X11835063Y-12853960D01*
X11835063Y-12853960D02*
X11844586Y-12834913D01*
X11844586Y-12834913D02*
X11863634Y-12806341D01*
X11863634Y-12806341D02*
X11873158Y-12796817D01*
X11939824Y-12844436D02*
X11949348Y-12834913D01*
X11949348Y-12834913D02*
X11968396Y-12825389D01*
X11968396Y-12825389D02*
X12016015Y-12825389D01*
X12016015Y-12825389D02*
X12035063Y-12834913D01*
X12035063Y-12834913D02*
X12044586Y-12844436D01*
X12044586Y-12844436D02*
X12054110Y-12863484D01*
X12054110Y-12863484D02*
X12054110Y-12882532D01*
X12054110Y-12882532D02*
X12044586Y-12911103D01*
X12044586Y-12911103D02*
X11930301Y-13025389D01*
X11930301Y-13025389D02*
X12054110Y-13025389D01*
X12292205Y-13025389D02*
X12292205Y-12825389D01*
X12377920Y-13025389D02*
X12377920Y-12920627D01*
X12377920Y-12920627D02*
X12368396Y-12901579D01*
X12368396Y-12901579D02*
X12349348Y-12892055D01*
X12349348Y-12892055D02*
X12320777Y-12892055D01*
X12320777Y-12892055D02*
X12301729Y-12901579D01*
X12301729Y-12901579D02*
X12292205Y-12911103D01*
X12501729Y-13025389D02*
X12482682Y-13015865D01*
X12482682Y-13015865D02*
X12473158Y-13006341D01*
X12473158Y-13006341D02*
X12463634Y-12987293D01*
X12463634Y-12987293D02*
X12463634Y-12930151D01*
X12463634Y-12930151D02*
X12473158Y-12911103D01*
X12473158Y-12911103D02*
X12482682Y-12901579D01*
X12482682Y-12901579D02*
X12501729Y-12892055D01*
X12501729Y-12892055D02*
X12530301Y-12892055D01*
X12530301Y-12892055D02*
X12549348Y-12901579D01*
X12549348Y-12901579D02*
X12558872Y-12911103D01*
X12558872Y-12911103D02*
X12568396Y-12930151D01*
X12568396Y-12930151D02*
X12568396Y-12987293D01*
X12568396Y-12987293D02*
X12558872Y-13006341D01*
X12558872Y-13006341D02*
X12549348Y-13015865D01*
X12549348Y-13015865D02*
X12530301Y-13025389D01*
X12530301Y-13025389D02*
X12501729Y-13025389D01*
X12682682Y-13025389D02*
X12663634Y-13015865D01*
X12663634Y-13015865D02*
X12654110Y-12996817D01*
X12654110Y-12996817D02*
X12654110Y-12825389D01*
X12835063Y-13015865D02*
X12816015Y-13025389D01*
X12816015Y-13025389D02*
X12777920Y-13025389D01*
X12777920Y-13025389D02*
X12758872Y-13015865D01*
X12758872Y-13015865D02*
X12749348Y-12996817D01*
X12749348Y-12996817D02*
X12749348Y-12920627D01*
X12749348Y-12920627D02*
X12758872Y-12901579D01*
X12758872Y-12901579D02*
X12777920Y-12892055D01*
X12777920Y-12892055D02*
X12816015Y-12892055D01*
X12816015Y-12892055D02*
X12835063Y-12901579D01*
X12835063Y-12901579D02*
X12844586Y-12920627D01*
X12844586Y-12920627D02*
X12844586Y-12939674D01*
X12844586Y-12939674D02*
X12749348Y-12958722D01*
X12920777Y-13015865D02*
X12939825Y-13025389D01*
X12939825Y-13025389D02*
X12977920Y-13025389D01*
X12977920Y-13025389D02*
X12996967Y-13015865D01*
X12996967Y-13015865D02*
X13006491Y-12996817D01*
X13006491Y-12996817D02*
X13006491Y-12987293D01*
X13006491Y-12987293D02*
X12996967Y-12968246D01*
X12996967Y-12968246D02*
X12977920Y-12958722D01*
X12977920Y-12958722D02*
X12949348Y-12958722D01*
X12949348Y-12958722D02*
X12930301Y-12949198D01*
X12930301Y-12949198D02*
X12920777Y-12930151D01*
X12920777Y-12930151D02*
X12920777Y-12920627D01*
X12920777Y-12920627D02*
X12930301Y-12901579D01*
X12930301Y-12901579D02*
X12949348Y-12892055D01*
X12949348Y-12892055D02*
X12977920Y-12892055D01*
X12977920Y-12892055D02*
X12996967Y-12901579D01*
X13073158Y-13101579D02*
X13082682Y-13092055D01*
X13082682Y-13092055D02*
X13101729Y-13063484D01*
X13101729Y-13063484D02*
X13111253Y-13044436D01*
X13111253Y-13044436D02*
X13120777Y-13015865D01*
X13120777Y-13015865D02*
X13130301Y-12968246D01*
X13130301Y-12968246D02*
X13130301Y-12930151D01*
X13130301Y-12930151D02*
X13120777Y-12882532D01*
X13120777Y-12882532D02*
X13111253Y-12853960D01*
X13111253Y-12853960D02*
X13101729Y-12834913D01*
X13101729Y-12834913D02*
X13082682Y-12806341D01*
X13082682Y-12806341D02*
X13073158Y-12796817D01*
D12*
X8248095Y-13247905D02*
X8298095Y-13197905D01*
X8248095Y-13147905D01*
X8198095Y-13197905D01*
X8248095Y-13247905D01*
D11*
X8663634Y-13289389D02*
X8549348Y-13289389D01*
X8606491Y-13289389D02*
X8606491Y-13089389D01*
X8606491Y-13089389D02*
X8587443Y-13117960D01*
X8587443Y-13117960D02*
X8568396Y-13137008D01*
X8568396Y-13137008D02*
X8549348Y-13146532D01*
X8749348Y-13270341D02*
X8758872Y-13279865D01*
X8758872Y-13279865D02*
X8749348Y-13289389D01*
X8749348Y-13289389D02*
X8739824Y-13279865D01*
X8739824Y-13279865D02*
X8749348Y-13270341D01*
X8749348Y-13270341D02*
X8749348Y-13289389D01*
X8882681Y-13089389D02*
X8901729Y-13089389D01*
X8901729Y-13089389D02*
X8920777Y-13098913D01*
X8920777Y-13098913D02*
X8930300Y-13108436D01*
X8930300Y-13108436D02*
X8939824Y-13127484D01*
X8939824Y-13127484D02*
X8949348Y-13165579D01*
X8949348Y-13165579D02*
X8949348Y-13213198D01*
X8949348Y-13213198D02*
X8939824Y-13251293D01*
X8939824Y-13251293D02*
X8930300Y-13270341D01*
X8930300Y-13270341D02*
X8920777Y-13279865D01*
X8920777Y-13279865D02*
X8901729Y-13289389D01*
X8901729Y-13289389D02*
X8882681Y-13289389D01*
X8882681Y-13289389D02*
X8863634Y-13279865D01*
X8863634Y-13279865D02*
X8854110Y-13270341D01*
X8854110Y-13270341D02*
X8844586Y-13251293D01*
X8844586Y-13251293D02*
X8835062Y-13213198D01*
X8835062Y-13213198D02*
X8835062Y-13165579D01*
X8835062Y-13165579D02*
X8844586Y-13127484D01*
X8844586Y-13127484D02*
X8854110Y-13108436D01*
X8854110Y-13108436D02*
X8863634Y-13098913D01*
X8863634Y-13098913D02*
X8882681Y-13089389D01*
X9073158Y-13089389D02*
X9092205Y-13089389D01*
X9092205Y-13089389D02*
X9111253Y-13098913D01*
X9111253Y-13098913D02*
X9120777Y-13108436D01*
X9120777Y-13108436D02*
X9130300Y-13127484D01*
X9130300Y-13127484D02*
X9139824Y-13165579D01*
X9139824Y-13165579D02*
X9139824Y-13213198D01*
X9139824Y-13213198D02*
X9130300Y-13251293D01*
X9130300Y-13251293D02*
X9120777Y-13270341D01*
X9120777Y-13270341D02*
X9111253Y-13279865D01*
X9111253Y-13279865D02*
X9092205Y-13289389D01*
X9092205Y-13289389D02*
X9073158Y-13289389D01*
X9073158Y-13289389D02*
X9054110Y-13279865D01*
X9054110Y-13279865D02*
X9044586Y-13270341D01*
X9044586Y-13270341D02*
X9035062Y-13251293D01*
X9035062Y-13251293D02*
X9025539Y-13213198D01*
X9025539Y-13213198D02*
X9025539Y-13165579D01*
X9025539Y-13165579D02*
X9035062Y-13127484D01*
X9035062Y-13127484D02*
X9044586Y-13108436D01*
X9044586Y-13108436D02*
X9054110Y-13098913D01*
X9054110Y-13098913D02*
X9073158Y-13089389D01*
X9263634Y-13089389D02*
X9282681Y-13089389D01*
X9282681Y-13089389D02*
X9301729Y-13098913D01*
X9301729Y-13098913D02*
X9311253Y-13108436D01*
X9311253Y-13108436D02*
X9320777Y-13127484D01*
X9320777Y-13127484D02*
X9330300Y-13165579D01*
X9330300Y-13165579D02*
X9330300Y-13213198D01*
X9330300Y-13213198D02*
X9320777Y-13251293D01*
X9320777Y-13251293D02*
X9311253Y-13270341D01*
X9311253Y-13270341D02*
X9301729Y-13279865D01*
X9301729Y-13279865D02*
X9282681Y-13289389D01*
X9282681Y-13289389D02*
X9263634Y-13289389D01*
X9263634Y-13289389D02*
X9244586Y-13279865D01*
X9244586Y-13279865D02*
X9235062Y-13270341D01*
X9235062Y-13270341D02*
X9225539Y-13251293D01*
X9225539Y-13251293D02*
X9216015Y-13213198D01*
X9216015Y-13213198D02*
X9216015Y-13165579D01*
X9216015Y-13165579D02*
X9225539Y-13127484D01*
X9225539Y-13127484D02*
X9235062Y-13108436D01*
X9235062Y-13108436D02*
X9244586Y-13098913D01*
X9244586Y-13098913D02*
X9263634Y-13089389D01*
X9416015Y-13289389D02*
X9416015Y-13156055D01*
X9416015Y-13175103D02*
X9425539Y-13165579D01*
X9425539Y-13165579D02*
X9444586Y-13156055D01*
X9444586Y-13156055D02*
X9473158Y-13156055D01*
X9473158Y-13156055D02*
X9492205Y-13165579D01*
X9492205Y-13165579D02*
X9501729Y-13184627D01*
X9501729Y-13184627D02*
X9501729Y-13289389D01*
X9501729Y-13184627D02*
X9511253Y-13165579D01*
X9511253Y-13165579D02*
X9530300Y-13156055D01*
X9530300Y-13156055D02*
X9558872Y-13156055D01*
X9558872Y-13156055D02*
X9577920Y-13165579D01*
X9577920Y-13165579D02*
X9587443Y-13184627D01*
X9587443Y-13184627D02*
X9587443Y-13289389D01*
X9682681Y-13289389D02*
X9682681Y-13156055D01*
X9682681Y-13175103D02*
X9692205Y-13165579D01*
X9692205Y-13165579D02*
X9711253Y-13156055D01*
X9711253Y-13156055D02*
X9739824Y-13156055D01*
X9739824Y-13156055D02*
X9758872Y-13165579D01*
X9758872Y-13165579D02*
X9768396Y-13184627D01*
X9768396Y-13184627D02*
X9768396Y-13289389D01*
X9768396Y-13184627D02*
X9777920Y-13165579D01*
X9777920Y-13165579D02*
X9796967Y-13156055D01*
X9796967Y-13156055D02*
X9825539Y-13156055D01*
X9825539Y-13156055D02*
X9844586Y-13165579D01*
X9844586Y-13165579D02*
X9854110Y-13184627D01*
X9854110Y-13184627D02*
X9854110Y-13289389D01*
X10244586Y-13079865D02*
X10073158Y-13337008D01*
X10501729Y-13089389D02*
X10520777Y-13089389D01*
X10520777Y-13089389D02*
X10539824Y-13098913D01*
X10539824Y-13098913D02*
X10549348Y-13108436D01*
X10549348Y-13108436D02*
X10558872Y-13127484D01*
X10558872Y-13127484D02*
X10568396Y-13165579D01*
X10568396Y-13165579D02*
X10568396Y-13213198D01*
X10568396Y-13213198D02*
X10558872Y-13251293D01*
X10558872Y-13251293D02*
X10549348Y-13270341D01*
X10549348Y-13270341D02*
X10539824Y-13279865D01*
X10539824Y-13279865D02*
X10520777Y-13289389D01*
X10520777Y-13289389D02*
X10501729Y-13289389D01*
X10501729Y-13289389D02*
X10482682Y-13279865D01*
X10482682Y-13279865D02*
X10473158Y-13270341D01*
X10473158Y-13270341D02*
X10463634Y-13251293D01*
X10463634Y-13251293D02*
X10454110Y-13213198D01*
X10454110Y-13213198D02*
X10454110Y-13165579D01*
X10454110Y-13165579D02*
X10463634Y-13127484D01*
X10463634Y-13127484D02*
X10473158Y-13108436D01*
X10473158Y-13108436D02*
X10482682Y-13098913D01*
X10482682Y-13098913D02*
X10501729Y-13089389D01*
X10654110Y-13270341D02*
X10663634Y-13279865D01*
X10663634Y-13279865D02*
X10654110Y-13289389D01*
X10654110Y-13289389D02*
X10644586Y-13279865D01*
X10644586Y-13279865D02*
X10654110Y-13270341D01*
X10654110Y-13270341D02*
X10654110Y-13289389D01*
X10787443Y-13089389D02*
X10806491Y-13089389D01*
X10806491Y-13089389D02*
X10825539Y-13098913D01*
X10825539Y-13098913D02*
X10835063Y-13108436D01*
X10835063Y-13108436D02*
X10844586Y-13127484D01*
X10844586Y-13127484D02*
X10854110Y-13165579D01*
X10854110Y-13165579D02*
X10854110Y-13213198D01*
X10854110Y-13213198D02*
X10844586Y-13251293D01*
X10844586Y-13251293D02*
X10835063Y-13270341D01*
X10835063Y-13270341D02*
X10825539Y-13279865D01*
X10825539Y-13279865D02*
X10806491Y-13289389D01*
X10806491Y-13289389D02*
X10787443Y-13289389D01*
X10787443Y-13289389D02*
X10768396Y-13279865D01*
X10768396Y-13279865D02*
X10758872Y-13270341D01*
X10758872Y-13270341D02*
X10749348Y-13251293D01*
X10749348Y-13251293D02*
X10739824Y-13213198D01*
X10739824Y-13213198D02*
X10739824Y-13165579D01*
X10739824Y-13165579D02*
X10749348Y-13127484D01*
X10749348Y-13127484D02*
X10758872Y-13108436D01*
X10758872Y-13108436D02*
X10768396Y-13098913D01*
X10768396Y-13098913D02*
X10787443Y-13089389D01*
X10920777Y-13089389D02*
X11044586Y-13089389D01*
X11044586Y-13089389D02*
X10977920Y-13165579D01*
X10977920Y-13165579D02*
X11006491Y-13165579D01*
X11006491Y-13165579D02*
X11025539Y-13175103D01*
X11025539Y-13175103D02*
X11035063Y-13184627D01*
X11035063Y-13184627D02*
X11044586Y-13203674D01*
X11044586Y-13203674D02*
X11044586Y-13251293D01*
X11044586Y-13251293D02*
X11035063Y-13270341D01*
X11035063Y-13270341D02*
X11025539Y-13279865D01*
X11025539Y-13279865D02*
X11006491Y-13289389D01*
X11006491Y-13289389D02*
X10949348Y-13289389D01*
X10949348Y-13289389D02*
X10930301Y-13279865D01*
X10930301Y-13279865D02*
X10920777Y-13270341D01*
X11139824Y-13289389D02*
X11177920Y-13289389D01*
X11177920Y-13289389D02*
X11196967Y-13279865D01*
X11196967Y-13279865D02*
X11206491Y-13270341D01*
X11206491Y-13270341D02*
X11225539Y-13241770D01*
X11225539Y-13241770D02*
X11235062Y-13203674D01*
X11235062Y-13203674D02*
X11235062Y-13127484D01*
X11235062Y-13127484D02*
X11225539Y-13108436D01*
X11225539Y-13108436D02*
X11216015Y-13098913D01*
X11216015Y-13098913D02*
X11196967Y-13089389D01*
X11196967Y-13089389D02*
X11158872Y-13089389D01*
X11158872Y-13089389D02*
X11139824Y-13098913D01*
X11139824Y-13098913D02*
X11130301Y-13108436D01*
X11130301Y-13108436D02*
X11120777Y-13127484D01*
X11120777Y-13127484D02*
X11120777Y-13175103D01*
X11120777Y-13175103D02*
X11130301Y-13194151D01*
X11130301Y-13194151D02*
X11139824Y-13203674D01*
X11139824Y-13203674D02*
X11158872Y-13213198D01*
X11158872Y-13213198D02*
X11196967Y-13213198D01*
X11196967Y-13213198D02*
X11216015Y-13203674D01*
X11216015Y-13203674D02*
X11225539Y-13194151D01*
X11225539Y-13194151D02*
X11235062Y-13175103D01*
X11406491Y-13156055D02*
X11406491Y-13289389D01*
X11358872Y-13079865D02*
X11311253Y-13222722D01*
X11311253Y-13222722D02*
X11435062Y-13222722D01*
X11501729Y-13089389D02*
X11501729Y-13127484D01*
X11577920Y-13089389D02*
X11577920Y-13127484D01*
X11873158Y-13365579D02*
X11863634Y-13356055D01*
X11863634Y-13356055D02*
X11844586Y-13327484D01*
X11844586Y-13327484D02*
X11835063Y-13308436D01*
X11835063Y-13308436D02*
X11825539Y-13279865D01*
X11825539Y-13279865D02*
X11816015Y-13232246D01*
X11816015Y-13232246D02*
X11816015Y-13194151D01*
X11816015Y-13194151D02*
X11825539Y-13146532D01*
X11825539Y-13146532D02*
X11835063Y-13117960D01*
X11835063Y-13117960D02*
X11844586Y-13098913D01*
X11844586Y-13098913D02*
X11863634Y-13070341D01*
X11863634Y-13070341D02*
X11873158Y-13060817D01*
X11930301Y-13089389D02*
X12054110Y-13089389D01*
X12054110Y-13089389D02*
X11987443Y-13165579D01*
X11987443Y-13165579D02*
X12016015Y-13165579D01*
X12016015Y-13165579D02*
X12035063Y-13175103D01*
X12035063Y-13175103D02*
X12044586Y-13184627D01*
X12044586Y-13184627D02*
X12054110Y-13203674D01*
X12054110Y-13203674D02*
X12054110Y-13251293D01*
X12054110Y-13251293D02*
X12044586Y-13270341D01*
X12044586Y-13270341D02*
X12035063Y-13279865D01*
X12035063Y-13279865D02*
X12016015Y-13289389D01*
X12016015Y-13289389D02*
X11958872Y-13289389D01*
X11958872Y-13289389D02*
X11939824Y-13279865D01*
X11939824Y-13279865D02*
X11930301Y-13270341D01*
X12177920Y-13089389D02*
X12196967Y-13089389D01*
X12196967Y-13089389D02*
X12216015Y-13098913D01*
X12216015Y-13098913D02*
X12225539Y-13108436D01*
X12225539Y-13108436D02*
X12235063Y-13127484D01*
X12235063Y-13127484D02*
X12244586Y-13165579D01*
X12244586Y-13165579D02*
X12244586Y-13213198D01*
X12244586Y-13213198D02*
X12235063Y-13251293D01*
X12235063Y-13251293D02*
X12225539Y-13270341D01*
X12225539Y-13270341D02*
X12216015Y-13279865D01*
X12216015Y-13279865D02*
X12196967Y-13289389D01*
X12196967Y-13289389D02*
X12177920Y-13289389D01*
X12177920Y-13289389D02*
X12158872Y-13279865D01*
X12158872Y-13279865D02*
X12149348Y-13270341D01*
X12149348Y-13270341D02*
X12139824Y-13251293D01*
X12139824Y-13251293D02*
X12130301Y-13213198D01*
X12130301Y-13213198D02*
X12130301Y-13165579D01*
X12130301Y-13165579D02*
X12139824Y-13127484D01*
X12139824Y-13127484D02*
X12149348Y-13108436D01*
X12149348Y-13108436D02*
X12158872Y-13098913D01*
X12158872Y-13098913D02*
X12177920Y-13089389D01*
X12482682Y-13289389D02*
X12482682Y-13089389D01*
X12568396Y-13289389D02*
X12568396Y-13184627D01*
X12568396Y-13184627D02*
X12558872Y-13165579D01*
X12558872Y-13165579D02*
X12539825Y-13156055D01*
X12539825Y-13156055D02*
X12511253Y-13156055D01*
X12511253Y-13156055D02*
X12492205Y-13165579D01*
X12492205Y-13165579D02*
X12482682Y-13175103D01*
X12692205Y-13289389D02*
X12673158Y-13279865D01*
X12673158Y-13279865D02*
X12663634Y-13270341D01*
X12663634Y-13270341D02*
X12654110Y-13251293D01*
X12654110Y-13251293D02*
X12654110Y-13194151D01*
X12654110Y-13194151D02*
X12663634Y-13175103D01*
X12663634Y-13175103D02*
X12673158Y-13165579D01*
X12673158Y-13165579D02*
X12692205Y-13156055D01*
X12692205Y-13156055D02*
X12720777Y-13156055D01*
X12720777Y-13156055D02*
X12739825Y-13165579D01*
X12739825Y-13165579D02*
X12749348Y-13175103D01*
X12749348Y-13175103D02*
X12758872Y-13194151D01*
X12758872Y-13194151D02*
X12758872Y-13251293D01*
X12758872Y-13251293D02*
X12749348Y-13270341D01*
X12749348Y-13270341D02*
X12739825Y-13279865D01*
X12739825Y-13279865D02*
X12720777Y-13289389D01*
X12720777Y-13289389D02*
X12692205Y-13289389D01*
X12873158Y-13289389D02*
X12854110Y-13279865D01*
X12854110Y-13279865D02*
X12844586Y-13260817D01*
X12844586Y-13260817D02*
X12844586Y-13089389D01*
X13025539Y-13279865D02*
X13006491Y-13289389D01*
X13006491Y-13289389D02*
X12968396Y-13289389D01*
X12968396Y-13289389D02*
X12949348Y-13279865D01*
X12949348Y-13279865D02*
X12939825Y-13260817D01*
X12939825Y-13260817D02*
X12939825Y-13184627D01*
X12939825Y-13184627D02*
X12949348Y-13165579D01*
X12949348Y-13165579D02*
X12968396Y-13156055D01*
X12968396Y-13156055D02*
X13006491Y-13156055D01*
X13006491Y-13156055D02*
X13025539Y-13165579D01*
X13025539Y-13165579D02*
X13035063Y-13184627D01*
X13035063Y-13184627D02*
X13035063Y-13203674D01*
X13035063Y-13203674D02*
X12939825Y-13222722D01*
X13111253Y-13279865D02*
X13130301Y-13289389D01*
X13130301Y-13289389D02*
X13168396Y-13289389D01*
X13168396Y-13289389D02*
X13187444Y-13279865D01*
X13187444Y-13279865D02*
X13196967Y-13260817D01*
X13196967Y-13260817D02*
X13196967Y-13251293D01*
X13196967Y-13251293D02*
X13187444Y-13232246D01*
X13187444Y-13232246D02*
X13168396Y-13222722D01*
X13168396Y-13222722D02*
X13139825Y-13222722D01*
X13139825Y-13222722D02*
X13120777Y-13213198D01*
X13120777Y-13213198D02*
X13111253Y-13194151D01*
X13111253Y-13194151D02*
X13111253Y-13184627D01*
X13111253Y-13184627D02*
X13120777Y-13165579D01*
X13120777Y-13165579D02*
X13139825Y-13156055D01*
X13139825Y-13156055D02*
X13168396Y-13156055D01*
X13168396Y-13156055D02*
X13187444Y-13165579D01*
X13263634Y-13365579D02*
X13273158Y-13356055D01*
X13273158Y-13356055D02*
X13292206Y-13327484D01*
X13292206Y-13327484D02*
X13301729Y-13308436D01*
X13301729Y-13308436D02*
X13311253Y-13279865D01*
X13311253Y-13279865D02*
X13320777Y-13232246D01*
X13320777Y-13232246D02*
X13320777Y-13194151D01*
X13320777Y-13194151D02*
X13311253Y-13146532D01*
X13311253Y-13146532D02*
X13301729Y-13117960D01*
X13301729Y-13117960D02*
X13292206Y-13098913D01*
X13292206Y-13098913D02*
X13273158Y-13070341D01*
X13273158Y-13070341D02*
X13263634Y-13060817D01*
D13*
X8188095Y-13406905D02*
X8298095Y-13516905D01*
X8298095Y-13406905D02*
X8188095Y-13516905D01*
X8298095Y-13461905D02*
G75*
G02*
X8188095Y-13461905I-55000J0D01*
G01*
X8188095Y-13461905D02*
G75*
G02*
X8298095Y-13461905I55000J0D01*
G01*
D11*
X8663634Y-13553389D02*
X8549348Y-13553389D01*
X8606491Y-13553389D02*
X8606491Y-13353389D01*
X8606491Y-13353389D02*
X8587443Y-13381960D01*
X8587443Y-13381960D02*
X8568396Y-13401008D01*
X8568396Y-13401008D02*
X8549348Y-13410532D01*
X8749348Y-13534341D02*
X8758872Y-13543865D01*
X8758872Y-13543865D02*
X8749348Y-13553389D01*
X8749348Y-13553389D02*
X8739824Y-13543865D01*
X8739824Y-13543865D02*
X8749348Y-13534341D01*
X8749348Y-13534341D02*
X8749348Y-13553389D01*
X8949348Y-13553389D02*
X8835062Y-13553389D01*
X8892205Y-13553389D02*
X8892205Y-13353389D01*
X8892205Y-13353389D02*
X8873158Y-13381960D01*
X8873158Y-13381960D02*
X8854110Y-13401008D01*
X8854110Y-13401008D02*
X8835062Y-13410532D01*
X9073158Y-13353389D02*
X9092205Y-13353389D01*
X9092205Y-13353389D02*
X9111253Y-13362913D01*
X9111253Y-13362913D02*
X9120777Y-13372436D01*
X9120777Y-13372436D02*
X9130300Y-13391484D01*
X9130300Y-13391484D02*
X9139824Y-13429579D01*
X9139824Y-13429579D02*
X9139824Y-13477198D01*
X9139824Y-13477198D02*
X9130300Y-13515293D01*
X9130300Y-13515293D02*
X9120777Y-13534341D01*
X9120777Y-13534341D02*
X9111253Y-13543865D01*
X9111253Y-13543865D02*
X9092205Y-13553389D01*
X9092205Y-13553389D02*
X9073158Y-13553389D01*
X9073158Y-13553389D02*
X9054110Y-13543865D01*
X9054110Y-13543865D02*
X9044586Y-13534341D01*
X9044586Y-13534341D02*
X9035062Y-13515293D01*
X9035062Y-13515293D02*
X9025539Y-13477198D01*
X9025539Y-13477198D02*
X9025539Y-13429579D01*
X9025539Y-13429579D02*
X9035062Y-13391484D01*
X9035062Y-13391484D02*
X9044586Y-13372436D01*
X9044586Y-13372436D02*
X9054110Y-13362913D01*
X9054110Y-13362913D02*
X9073158Y-13353389D01*
X9263634Y-13353389D02*
X9282681Y-13353389D01*
X9282681Y-13353389D02*
X9301729Y-13362913D01*
X9301729Y-13362913D02*
X9311253Y-13372436D01*
X9311253Y-13372436D02*
X9320777Y-13391484D01*
X9320777Y-13391484D02*
X9330300Y-13429579D01*
X9330300Y-13429579D02*
X9330300Y-13477198D01*
X9330300Y-13477198D02*
X9320777Y-13515293D01*
X9320777Y-13515293D02*
X9311253Y-13534341D01*
X9311253Y-13534341D02*
X9301729Y-13543865D01*
X9301729Y-13543865D02*
X9282681Y-13553389D01*
X9282681Y-13553389D02*
X9263634Y-13553389D01*
X9263634Y-13553389D02*
X9244586Y-13543865D01*
X9244586Y-13543865D02*
X9235062Y-13534341D01*
X9235062Y-13534341D02*
X9225539Y-13515293D01*
X9225539Y-13515293D02*
X9216015Y-13477198D01*
X9216015Y-13477198D02*
X9216015Y-13429579D01*
X9216015Y-13429579D02*
X9225539Y-13391484D01*
X9225539Y-13391484D02*
X9235062Y-13372436D01*
X9235062Y-13372436D02*
X9244586Y-13362913D01*
X9244586Y-13362913D02*
X9263634Y-13353389D01*
X9416015Y-13553389D02*
X9416015Y-13420055D01*
X9416015Y-13439103D02*
X9425539Y-13429579D01*
X9425539Y-13429579D02*
X9444586Y-13420055D01*
X9444586Y-13420055D02*
X9473158Y-13420055D01*
X9473158Y-13420055D02*
X9492205Y-13429579D01*
X9492205Y-13429579D02*
X9501729Y-13448627D01*
X9501729Y-13448627D02*
X9501729Y-13553389D01*
X9501729Y-13448627D02*
X9511253Y-13429579D01*
X9511253Y-13429579D02*
X9530300Y-13420055D01*
X9530300Y-13420055D02*
X9558872Y-13420055D01*
X9558872Y-13420055D02*
X9577920Y-13429579D01*
X9577920Y-13429579D02*
X9587443Y-13448627D01*
X9587443Y-13448627D02*
X9587443Y-13553389D01*
X9682681Y-13553389D02*
X9682681Y-13420055D01*
X9682681Y-13439103D02*
X9692205Y-13429579D01*
X9692205Y-13429579D02*
X9711253Y-13420055D01*
X9711253Y-13420055D02*
X9739824Y-13420055D01*
X9739824Y-13420055D02*
X9758872Y-13429579D01*
X9758872Y-13429579D02*
X9768396Y-13448627D01*
X9768396Y-13448627D02*
X9768396Y-13553389D01*
X9768396Y-13448627D02*
X9777920Y-13429579D01*
X9777920Y-13429579D02*
X9796967Y-13420055D01*
X9796967Y-13420055D02*
X9825539Y-13420055D01*
X9825539Y-13420055D02*
X9844586Y-13429579D01*
X9844586Y-13429579D02*
X9854110Y-13448627D01*
X9854110Y-13448627D02*
X9854110Y-13553389D01*
X10244586Y-13343865D02*
X10073158Y-13601008D01*
X10501729Y-13353389D02*
X10520777Y-13353389D01*
X10520777Y-13353389D02*
X10539824Y-13362913D01*
X10539824Y-13362913D02*
X10549348Y-13372436D01*
X10549348Y-13372436D02*
X10558872Y-13391484D01*
X10558872Y-13391484D02*
X10568396Y-13429579D01*
X10568396Y-13429579D02*
X10568396Y-13477198D01*
X10568396Y-13477198D02*
X10558872Y-13515293D01*
X10558872Y-13515293D02*
X10549348Y-13534341D01*
X10549348Y-13534341D02*
X10539824Y-13543865D01*
X10539824Y-13543865D02*
X10520777Y-13553389D01*
X10520777Y-13553389D02*
X10501729Y-13553389D01*
X10501729Y-13553389D02*
X10482682Y-13543865D01*
X10482682Y-13543865D02*
X10473158Y-13534341D01*
X10473158Y-13534341D02*
X10463634Y-13515293D01*
X10463634Y-13515293D02*
X10454110Y-13477198D01*
X10454110Y-13477198D02*
X10454110Y-13429579D01*
X10454110Y-13429579D02*
X10463634Y-13391484D01*
X10463634Y-13391484D02*
X10473158Y-13372436D01*
X10473158Y-13372436D02*
X10482682Y-13362913D01*
X10482682Y-13362913D02*
X10501729Y-13353389D01*
X10654110Y-13534341D02*
X10663634Y-13543865D01*
X10663634Y-13543865D02*
X10654110Y-13553389D01*
X10654110Y-13553389D02*
X10644586Y-13543865D01*
X10644586Y-13543865D02*
X10654110Y-13534341D01*
X10654110Y-13534341D02*
X10654110Y-13553389D01*
X10787443Y-13353389D02*
X10806491Y-13353389D01*
X10806491Y-13353389D02*
X10825539Y-13362913D01*
X10825539Y-13362913D02*
X10835063Y-13372436D01*
X10835063Y-13372436D02*
X10844586Y-13391484D01*
X10844586Y-13391484D02*
X10854110Y-13429579D01*
X10854110Y-13429579D02*
X10854110Y-13477198D01*
X10854110Y-13477198D02*
X10844586Y-13515293D01*
X10844586Y-13515293D02*
X10835063Y-13534341D01*
X10835063Y-13534341D02*
X10825539Y-13543865D01*
X10825539Y-13543865D02*
X10806491Y-13553389D01*
X10806491Y-13553389D02*
X10787443Y-13553389D01*
X10787443Y-13553389D02*
X10768396Y-13543865D01*
X10768396Y-13543865D02*
X10758872Y-13534341D01*
X10758872Y-13534341D02*
X10749348Y-13515293D01*
X10749348Y-13515293D02*
X10739824Y-13477198D01*
X10739824Y-13477198D02*
X10739824Y-13429579D01*
X10739824Y-13429579D02*
X10749348Y-13391484D01*
X10749348Y-13391484D02*
X10758872Y-13372436D01*
X10758872Y-13372436D02*
X10768396Y-13362913D01*
X10768396Y-13362913D02*
X10787443Y-13353389D01*
X11025539Y-13420055D02*
X11025539Y-13553389D01*
X10977920Y-13343865D02*
X10930301Y-13486722D01*
X10930301Y-13486722D02*
X11054110Y-13486722D01*
X11111253Y-13353389D02*
X11235062Y-13353389D01*
X11235062Y-13353389D02*
X11168396Y-13429579D01*
X11168396Y-13429579D02*
X11196967Y-13429579D01*
X11196967Y-13429579D02*
X11216015Y-13439103D01*
X11216015Y-13439103D02*
X11225539Y-13448627D01*
X11225539Y-13448627D02*
X11235062Y-13467674D01*
X11235062Y-13467674D02*
X11235062Y-13515293D01*
X11235062Y-13515293D02*
X11225539Y-13534341D01*
X11225539Y-13534341D02*
X11216015Y-13543865D01*
X11216015Y-13543865D02*
X11196967Y-13553389D01*
X11196967Y-13553389D02*
X11139824Y-13553389D01*
X11139824Y-13553389D02*
X11120777Y-13543865D01*
X11120777Y-13543865D02*
X11111253Y-13534341D01*
X11301729Y-13353389D02*
X11425539Y-13353389D01*
X11425539Y-13353389D02*
X11358872Y-13429579D01*
X11358872Y-13429579D02*
X11387443Y-13429579D01*
X11387443Y-13429579D02*
X11406491Y-13439103D01*
X11406491Y-13439103D02*
X11416015Y-13448627D01*
X11416015Y-13448627D02*
X11425539Y-13467674D01*
X11425539Y-13467674D02*
X11425539Y-13515293D01*
X11425539Y-13515293D02*
X11416015Y-13534341D01*
X11416015Y-13534341D02*
X11406491Y-13543865D01*
X11406491Y-13543865D02*
X11387443Y-13553389D01*
X11387443Y-13553389D02*
X11330301Y-13553389D01*
X11330301Y-13553389D02*
X11311253Y-13543865D01*
X11311253Y-13543865D02*
X11301729Y-13534341D01*
X11501729Y-13353389D02*
X11501729Y-13391484D01*
X11577920Y-13353389D02*
X11577920Y-13391484D01*
X11873158Y-13629579D02*
X11863634Y-13620055D01*
X11863634Y-13620055D02*
X11844586Y-13591484D01*
X11844586Y-13591484D02*
X11835063Y-13572436D01*
X11835063Y-13572436D02*
X11825539Y-13543865D01*
X11825539Y-13543865D02*
X11816015Y-13496246D01*
X11816015Y-13496246D02*
X11816015Y-13458151D01*
X11816015Y-13458151D02*
X11825539Y-13410532D01*
X11825539Y-13410532D02*
X11835063Y-13381960D01*
X11835063Y-13381960D02*
X11844586Y-13362913D01*
X11844586Y-13362913D02*
X11863634Y-13334341D01*
X11863634Y-13334341D02*
X11873158Y-13324817D01*
X12054110Y-13553389D02*
X11939824Y-13553389D01*
X11996967Y-13553389D02*
X11996967Y-13353389D01*
X11996967Y-13353389D02*
X11977920Y-13381960D01*
X11977920Y-13381960D02*
X11958872Y-13401008D01*
X11958872Y-13401008D02*
X11939824Y-13410532D01*
X12130301Y-13372436D02*
X12139824Y-13362913D01*
X12139824Y-13362913D02*
X12158872Y-13353389D01*
X12158872Y-13353389D02*
X12206491Y-13353389D01*
X12206491Y-13353389D02*
X12225539Y-13362913D01*
X12225539Y-13362913D02*
X12235063Y-13372436D01*
X12235063Y-13372436D02*
X12244586Y-13391484D01*
X12244586Y-13391484D02*
X12244586Y-13410532D01*
X12244586Y-13410532D02*
X12235063Y-13439103D01*
X12235063Y-13439103D02*
X12120777Y-13553389D01*
X12120777Y-13553389D02*
X12244586Y-13553389D01*
X12482682Y-13553389D02*
X12482682Y-13353389D01*
X12568396Y-13553389D02*
X12568396Y-13448627D01*
X12568396Y-13448627D02*
X12558872Y-13429579D01*
X12558872Y-13429579D02*
X12539825Y-13420055D01*
X12539825Y-13420055D02*
X12511253Y-13420055D01*
X12511253Y-13420055D02*
X12492205Y-13429579D01*
X12492205Y-13429579D02*
X12482682Y-13439103D01*
X12692205Y-13553389D02*
X12673158Y-13543865D01*
X12673158Y-13543865D02*
X12663634Y-13534341D01*
X12663634Y-13534341D02*
X12654110Y-13515293D01*
X12654110Y-13515293D02*
X12654110Y-13458151D01*
X12654110Y-13458151D02*
X12663634Y-13439103D01*
X12663634Y-13439103D02*
X12673158Y-13429579D01*
X12673158Y-13429579D02*
X12692205Y-13420055D01*
X12692205Y-13420055D02*
X12720777Y-13420055D01*
X12720777Y-13420055D02*
X12739825Y-13429579D01*
X12739825Y-13429579D02*
X12749348Y-13439103D01*
X12749348Y-13439103D02*
X12758872Y-13458151D01*
X12758872Y-13458151D02*
X12758872Y-13515293D01*
X12758872Y-13515293D02*
X12749348Y-13534341D01*
X12749348Y-13534341D02*
X12739825Y-13543865D01*
X12739825Y-13543865D02*
X12720777Y-13553389D01*
X12720777Y-13553389D02*
X12692205Y-13553389D01*
X12873158Y-13553389D02*
X12854110Y-13543865D01*
X12854110Y-13543865D02*
X12844586Y-13524817D01*
X12844586Y-13524817D02*
X12844586Y-13353389D01*
X13025539Y-13543865D02*
X13006491Y-13553389D01*
X13006491Y-13553389D02*
X12968396Y-13553389D01*
X12968396Y-13553389D02*
X12949348Y-13543865D01*
X12949348Y-13543865D02*
X12939825Y-13524817D01*
X12939825Y-13524817D02*
X12939825Y-13448627D01*
X12939825Y-13448627D02*
X12949348Y-13429579D01*
X12949348Y-13429579D02*
X12968396Y-13420055D01*
X12968396Y-13420055D02*
X13006491Y-13420055D01*
X13006491Y-13420055D02*
X13025539Y-13429579D01*
X13025539Y-13429579D02*
X13035063Y-13448627D01*
X13035063Y-13448627D02*
X13035063Y-13467674D01*
X13035063Y-13467674D02*
X12939825Y-13486722D01*
X13111253Y-13543865D02*
X13130301Y-13553389D01*
X13130301Y-13553389D02*
X13168396Y-13553389D01*
X13168396Y-13553389D02*
X13187444Y-13543865D01*
X13187444Y-13543865D02*
X13196967Y-13524817D01*
X13196967Y-13524817D02*
X13196967Y-13515293D01*
X13196967Y-13515293D02*
X13187444Y-13496246D01*
X13187444Y-13496246D02*
X13168396Y-13486722D01*
X13168396Y-13486722D02*
X13139825Y-13486722D01*
X13139825Y-13486722D02*
X13120777Y-13477198D01*
X13120777Y-13477198D02*
X13111253Y-13458151D01*
X13111253Y-13458151D02*
X13111253Y-13448627D01*
X13111253Y-13448627D02*
X13120777Y-13429579D01*
X13120777Y-13429579D02*
X13139825Y-13420055D01*
X13139825Y-13420055D02*
X13168396Y-13420055D01*
X13168396Y-13420055D02*
X13187444Y-13429579D01*
X13263634Y-13629579D02*
X13273158Y-13620055D01*
X13273158Y-13620055D02*
X13292206Y-13591484D01*
X13292206Y-13591484D02*
X13301729Y-13572436D01*
X13301729Y-13572436D02*
X13311253Y-13543865D01*
X13311253Y-13543865D02*
X13320777Y-13496246D01*
X13320777Y-13496246D02*
X13320777Y-13458151D01*
X13320777Y-13458151D02*
X13311253Y-13410532D01*
X13311253Y-13410532D02*
X13301729Y-13381960D01*
X13301729Y-13381960D02*
X13292206Y-13362913D01*
X13292206Y-13362913D02*
X13273158Y-13334341D01*
X13273158Y-13334341D02*
X13263634Y-13324817D01*
M02*
